SplineFontDB: 3.2
FontName: CursiveSerif-Bold
FullName: Cursive Serif Bold
FamilyName: Cursive Serif
Weight: Bold
Copyright: Copyright (c) 2020-2024 by Wojciech Kalinowski "wmk69" with Reserved Font Name "CursiveSerif-Bold".\nThis Font Software is licensed under the SIL Open Font License, Version 1.1.
Version: 3.1.0; 2022-02-18
ItalicAngle: -15
UnderlinePosition: -80
UnderlineWidth: 320
Ascent: 1638
Descent: 410
InvalidEm: 0
LayerCount: 2
Layer: 0 1 "Warstwa t+AUIA-a" 1
Layer: 1 1 "Plan pierwszy" 0
XUID: [1021 783 23647091 14658235]
StyleMap: 0x0021
FSType: 0
OS2Version: 3
OS2_WeightWidthSlopeOnly: 0
OS2_UseTypoMetrics: 1
CreationTime: 1260698820
ModificationTime: 1645209020
PfmFamily: 17
TTFWeight: 700
TTFWidth: 5
LineGap: 300
VLineGap: 0
Panose: 2 8 8 3 6 3 8 13 5 4
OS2TypoAscent: 1950
OS2TypoAOffset: 0
OS2TypoDescent: -537
OS2TypoDOffset: 0
OS2TypoLinegap: 300
OS2WinAscent: 1950
OS2WinAOffset: 0
OS2WinDescent: 537
OS2WinDOffset: 0
HheadAscent: 1950
HheadAOffset: 0
HheadDescent: -537
HheadDOffset: 0
OS2SubXSize: 1434
OS2SubYSize: 1331
OS2SubXOff: 0
OS2SubYOff: 287
OS2SupXSize: 1434
OS2SupYSize: 1331
OS2SupXOff: 0
OS2SupYOff: 977
OS2StrikeYSize: 102
OS2StrikeYPos: 512
OS2CapHeight: 1530
OS2XHeight: 1120
OS2Vendor: '    '
OS2CodePages: 20000093.00000000
OS2UnicodeRanges: 8000002f.4000204b.00000000.00000000
Lookup: 258 0 0 "'kern' Horizontal Kerning lookup 0" { "'kern' Horizontal Kerning lookup 0-1 subtable" [307,0,4] } ['kern' ('DFLT' <'dflt' > 'grek' <'dflt' > 'latn' <'dflt' > ) ]
MarkAttachClasses: 1
DEI: 91125
KernClass2: 70 56 "'kern' Horizontal Kerning lookup 0-1 subtable"
 84 A Agrave Aacute Acircumflex Atilde Adieresis Aring Amacron Abreve Aogonek Aringacute
 17 B uni1E02 uni1E9E
 47 C Ccedilla Cacute Ccircumflex Cdotaccent Ccaron
 27 D Eth Dcaron Dcroat uni1E0A
 92 E AE Egrave Eacute Ecircumflex Edieresis Emacron Ebreve Edotaccent Eogonek Ecaron OE AEacute
 9 F uni1E1E
 44 G Gcircumflex Gbreve Gdotaccent Gcommaaccent
 18 H Hcircumflex Hbar

StartChar: .notdef
Encoding: 65536 -1 0
Width: 1114
Flags: W
HStem: 0 118<370 808> 1392 118<711 1149>
VStem: 150 814<0 814> 555 814<696 1510>
DStem2: 150 0 338.382 0 0.258819 0.965926<170.919 1489.77> 776.382 0 964 0 0.258819 0.965926<122.163 1441.01>
LayerCount: 2
Fore
SplineSet
150 0 m 5,0,-1
 555 1510 l 5,1,-1
 1369 1510 l 5,2,-1
 964 0 l 5,3,-1
 150 0 l 5,0,-1
370 118 m 5,4,-1
 808 118 l 5,5,-1
 1149 1392 l 5,6,-1
 711 1392 l 5,7,-1
 370 118 l 5,4,-1
EndSplineSet
Validated: 1
EndChar

StartChar: exclam
Encoding: 33 33 4
Width: 764
GlyphClass: 2
Flags: W
HStem: -20 370<307.14 544.86> 1510 20G<703 780.5>
VStem: 244 364<42.5779 287.422> 559 358<1237.35 1468.36>
LayerCount: 2
Fore
SplineSet
742 1530 m 0,0,1
 819 1530 819 1530 871 1476 c 0,2,3
 917 1428 917 1428 917 1357 c 0,4,5
 917 1318 917 1318 897 1269 c 2,6,-1
 556 429 l 2,7,8
 544 400 544 400 511 400 c 2,9,-1
 467 400 l 2,10,11
 437 400 437 400 437 416 c 0,12,13
 437 421 437 421 438 429 c 2,14,-1
 559 1346 l 2,15,16
 571 1437 571 1437 616 1482 c 0,17,18
 664 1530 664 1530 742 1530 c 0,0,1
426 -20 m 128,-1,20
 350 -20 350 -20 297 34 c 128,-1,21
 244 88 244 88 244 165 c 128,-1,22
 244 242 244 242 297 296 c 128,-1,23
 350 350 350 350 426 350 c 128,-1,24
 502 350 502 350 555 296 c 128,-1,25
 608 242 608 242 608 165 c 128,-1,26
 608 88 608 88 555 34 c 128,-1,19
 502 -20 502 -20 426 -20 c 128,-1,20
EndSplineSet
Validated: 1
EndChar

StartChar: quotedbl
Encoding: 34 34 5
Width: 741
GlyphClass: 2
Flags: W
HStem: 1125 425<503 606.024 842 945.024>
VStem: 503 229<1291.24 1548.15> 842 229<1291.24 1548.15>
LayerCount: 2
Fore
SplineSet
804 1550 m 1,0,1
 1050 1550 l 1,2,3
 1071 1503 1071 1503 1071 1451 c 0,4,5
 1071 1416 1071 1416 1061 1379 c 0,6,7
 1027 1251 1027 1251 906 1125 c 1,8,-1
 720 1125 l 1,9,10
 801 1234 801 1234 831 1343 c 0,11,12
 842 1384 842 1384 842 1421 c 0,13,14
 842 1491 842 1491 804 1550 c 1,0,1
465 1550 m 1,15,-1
 711 1550 l 1,16,17
 732 1503 732 1503 732 1451 c 0,18,19
 732 1416 732 1416 722 1379 c 0,20,21
 688 1251 688 1251 567 1125 c 1,22,-1
 381 1125 l 1,23,24
 462 1234 462 1234 492 1343 c 0,25,26
 503 1384 503 1384 503 1421 c 0,27,28
 503 1491 503 1491 465 1550 c 1,15,-1
EndSplineSet
Validated: 1
EndChar

StartChar: numbersign
Encoding: 35 35 6
Width: 1474
GlyphClass: 2
Flags: W
HStem: 503 160<366.002 621 824 963 1166 1420.14> 844 160<457.002 712 915 1054 1257 1511.14>
DStem2: 543.674 216 703.674 216 0.258819 0.965926<29.7017 297.234 504.322 650.167 857.256 1123.93> 885.674 216 1045.67 216 0.258819 0.965926<29.7017 297.234 504.322 650.167 857.256 1123.59>
LayerCount: 2
Fore
SplineSet
878 1290 m 2,0,-1
 948 1290 l 2,1,2
 983 1290 983 1290 983 1263 c 0,3,4
 983 1256 983 1256 980 1246 c 2,5,-1
 915 1004 l 1,6,-1
 1097 1004 l 1,7,-1
 1162 1246 l 2,8,9
 1174 1290 1174 1290 1218 1290 c 2,10,-1
 1288 1290 l 2,11,12
 1324 1290 1324 1290 1324 1262 c 0,13,14
 1324 1255 1324 1255 1322 1246 c 2,15,-1
 1257 1004 l 1,16,-1
 1498 1004 l 2,17,18
 1534 1004 1534 1004 1534 976 c 0,19,20
 1534 969 1534 969 1531 959 c 2,21,-1
 1512 889 l 2,22,23
 1500 844 1500 844 1455 844 c 2,24,-1
 1214 844 l 1,25,-1
 1166 663 l 1,26,-1
 1407 663 l 2,27,28
 1443 663 1443 663 1443 635 c 0,29,30
 1443 628 1443 628 1440 618 c 2,31,-1
 1421 548 l 2,32,33
 1409 503 1409 503 1364 503 c 2,34,-1
 1123 503 l 1,35,-1
 1058 262 l 2,36,37
 1046 216 1046 216 1000 216 c 2,38,-1
 930 216 l 2,39,40
 895 216 895 216 895 244 c 0,41,42
 895 252 895 252 898 262 c 2,43,-1
 963 503 l 1,44,-1
 781 503 l 1,45,-1
 716 262 l 2,46,47
 704 216 704 216 660 216 c 2,48,-1
 588 216 l 2,49,50
 553 216 553 216 553 244 c 0,51,52
 553 252 553 252 556 262 c 2,53,-1
 621 503 l 1,54,-1
 380 503 l 2,55,56
 344 503 344 503 344 531 c 0,57,58
 344 538 344 538 347 548 c 2,59,-1
 366 619 l 2,60,61
 378 663 378 663 423 663 c 2,62,-1
 664 663 l 1,63,-1
 712 844 l 1,64,-1
 471 844 l 2,65,66
 435 844 435 844 435 872 c 0,67,68
 435 879 435 879 438 889 c 2,69,-1
 457 960 l 2,70,71
 469 1004 469 1004 514 1004 c 2,72,-1
 755 1004 l 1,73,-1
 820 1246 l 2,74,75
 832 1290 832 1290 878 1290 c 2,0,-1
824 663 m 1,76,-1
 1006 663 l 1,77,-1
 1054 844 l 1,78,-1
 872 844 l 1,79,-1
 824 663 l 1,76,-1
EndSplineSet
Validated: 1
EndChar

StartChar: dollar
Encoding: 36 36 7
Width: 1381
GlyphClass: 2
Flags: W
HStem: -19 105<432.416 613> 172 369<373.034 511.821>
VStem: 204 375<238.372 468.859> 518 288<1059 1235.2> 1078 318<360.639 596.848> 1097 373<1106.09 1332.18>
DStem2: 578.282 -150 708.282 -150 0.258819 0.965926<24.3963 135.522 301.866 893.974 1225.63 1602.59 1769.64 1882.02>
LayerCount: 2
Fore
SplineSet
613 -19 m 1,0,1
 387 -9 387 -9 279 122 c 0,2,3
 204 212 204 212 204 320 c 0,4,5
 204 423 204 423 262 485 c 0,6,7
 315 541 315 541 395 541 c 128,-1,8
 475 541 475 541 527 488 c 128,-1,9
 579 435 579 435 579 355 c 0,10,11
 579 273 579 273 517 220 c 0,12,13
 462 172 462 172 372 172 c 1,14,15
 457 87 457 87 641 86 c 1,16,-1
 816 737 l 1,17,-1
 730 778 l 2,18,19
 518 879 518 879 518 1059 c 0,20,21
 518 1096 518 1096 527 1137 c 0,22,23
 566 1312 566 1312 748 1431 c 0,24,25
 871 1511 871 1511 1027 1526 c 1,26,-1
 1052 1620 l 2,27,28
 1063 1660 1063 1660 1103 1660 c 2,29,-1
 1153 1660 l 2,30,31
 1185 1660 1185 1660 1185 1636 c 0,32,33
 1185 1631 1185 1631 1182 1620 c 2,34,-1
 1157 1527 l 1,35,36
 1332 1510 1332 1510 1422 1381 c 0,37,38
 1470 1312 1470 1312 1470 1232 c 0,39,40
 1470 1148 1470 1148 1411 1089 c 0,41,42
 1355 1032 1355 1032 1276 1032 c 0,43,44
 1200 1032 1200 1032 1149 1086 c 0,45,46
 1097 1141 1097 1141 1097 1215 c 0,47,48
 1097 1291 1097 1291 1149 1340 c 0,49,50
 1197 1385 1197 1385 1270 1388 c 1,51,52
 1208 1423 1208 1423 1129 1423 c 9,53,-1
 1009 972 l 1,54,-1
 1158 901 l 2,55,56
 1396 788 1396 788 1396 562 c 0,57,58
 1396 518 1396 518 1387 470 c 0,59,60
 1349 266 1349 266 1127 122 c 0,61,62
 948 6 948 6 744 -15 c 1,63,-1
 719 -110 l 2,64,65
 708 -150 708 -150 668 -150 c 2,66,-1
 618 -150 l 2,67,68
 586 -150 586 -150 586 -127 c 0,69,70
 586 -121 586 -121 589 -110 c 2,71,-1
 613 -19 l 1,0,1
895 1034 m 1,72,-1
 993 1398 l 1,73,74
 957 1384 957 1384 925 1362 c 0,75,76
 834 1299 834 1299 810 1199 c 0,77,78
 806 1182 806 1182 806 1165 c 0,79,80
 806 1096 806 1096 895 1034 c 1,72,-1
931 681 m 1,81,-1
 778 109 l 1,82,83
 864 139 864 139 946 209 c 0,84,85
 1060 306 1060 306 1076 443 c 0,86,87
 1078 460 1078 460 1078 475 c 0,88,89
 1078 597 1078 597 931 681 c 1,81,-1
EndSplineSet
Validated: 1
EndChar

StartChar: percent
Encoding: 37 37 8
Width: 1828
GlyphClass: 2
Flags: W
HStem: -20 75<1260.53 1423.91> 623 75<1392.66 1553.16> 812 75<677.731 843.237> 1455 75<811.99 972.328>
VStem: 449 210<921.966 1229.83> 993 210<1111.86 1420.18> 1030 210<89.824 398.313> 1574 210<280.343 588.034>
DStem2: 424 129 613 0 0.654033 0.756466<-46.755 1899.01>
LayerCount: 2
Fore
SplineSet
1685 1550 m 0,0,1
 1705 1550 1705 1550 1724 1537 c 2,2,-1
 1807 1481 l 2,3,4
 1830 1465 1830 1465 1830 1438 c 0,5,6
 1830 1408 1830 1408 1807 1381 c 2,7,-1
 613 0 l 2,8,9
 578 -40 578 -40 547 -40 c 0,10,11
 525 -40 525 -40 506 -27 c 2,12,-1
 423 29 l 2,13,14
 397 47 397 47 397 73 c 0,15,16
 397 98 397 98 424 129 c 2,17,-1
 1618 1510 l 2,18,19
 1653 1550 1653 1550 1685 1550 c 0,0,1
1483 623 m 128,-1,21
 1417 623 1417 623 1362 556 c 0,22,23
 1306 486 1306 486 1267 339 c 0,24,25
 1240 239 1240 239 1240 175 c 0,26,27
 1240 145 1240 145 1246 122 c 0,28,29
 1264 55 1264 55 1332.5 55 c 128,-1,30
 1401 55 1401 55 1452 122 c 0,31,32
 1508 193 1508 193 1547 339 c 0,33,34
 1574 441 1574 441 1574 504 c 0,35,36
 1574 534 1574 534 1568 556 c 0,37,20
 1549 623 1549 623 1483 623 c 128,-1,21
1311 -20 m 128,-1,39
 1175 -20 1175 -20 1094 66 c 0,40,41
 1030 133 1030 133 1030 234 c 0,42,43
 1030 283 1030 283 1045 340 c 0,44,45
 1091 512 1091 512 1240 612 c 0,46,47
 1366 698 1366 698 1502.5 698 c 128,-1,48
 1639 698 1639 698 1720 612 c 0,49,50
 1784 544 1784 544 1784 444 c 0,51,52
 1784 395 1784 395 1769 339 c 0,53,54
 1723 167 1723 167 1574 66 c 0,55,38
 1447 -20 1447 -20 1311 -20 c 128,-1,39
922 1530 m 128,-1,57
 1058 1530 1058 1530 1139 1444 c 0,58,59
 1203 1377 1203 1377 1203 1276 c 0,60,61
 1203 1227 1203 1227 1188 1170 c 0,62,63
 1142 998 1142 998 993 898 c 0,64,65
 867 812 867 812 730.5 812 c 128,-1,66
 594 812 594 812 513 898 c 0,67,68
 449 966 449 966 449 1066 c 0,69,70
 449 1115 449 1115 464 1171 c 0,71,72
 510 1343 510 1343 659 1444 c 0,73,56
 786 1530 786 1530 922 1530 c 128,-1,57
902 1455 m 128,-1,75
 836 1455 836 1455 781 1388 c 0,76,77
 725 1318 725 1318 686 1171 c 0,78,79
 659 1071 659 1071 659 1007 c 0,80,81
 659 977 659 977 665 954 c 0,82,83
 683 887 683 887 751.5 887 c 128,-1,84
 820 887 820 887 871 954 c 0,85,86
 927 1025 927 1025 966 1171 c 0,87,88
 993 1273 993 1273 993 1336 c 0,89,90
 993 1366 993 1366 987 1388 c 0,91,74
 968 1455 968 1455 902 1455 c 128,-1,75
EndSplineSet
Validated: 1
EndChar

StartChar: ampersand
Encoding: 38 38 9
Width: 1752
GlyphClass: 2
Flags: W
HStem: -20 145<1323.5 1555.86> -20 105<654.512 995.778> 1435 95<1004.11 1234.35>
VStem: 229 336<178.724 538.803> 560 312<970.193 1274.89> 1070 371<1124.51 1352.53> 1403 364<768.394 1003.26>
DStem2: 1265 881 984 837 0.275088 -0.961419<-16.9819 437.768 521.622 616.849>
LayerCount: 2
Fore
SplineSet
732 -20 m 0,0,1
 445 -20 445 -20 322 112 c 0,2,3
 229 212 229 212 229 349 c 0,4,5
 229 409 229 409 247 475 c 0,6,7
 293 646 293 646 422 753 c 128,-1,8
 551 860 551 860 711 889 c 1,9,10
 649 918 649 918 612 961 c 0,11,12
 560 1022 560 1022 560 1108 c 0,13,14
 560 1151 560 1151 573 1199 c 0,15,16
 611 1339 611 1339 768 1437 c 0,17,18
 919 1530 919 1530 1129 1530 c 0,19,20
 1285 1530 1285 1530 1378 1426 c 0,21,22
 1441 1355 1441 1355 1441 1264 c 0,23,24
 1441 1168 1441 1168 1380 1106 c 0,25,26
 1328 1053 1328 1053 1250 1053 c 128,-1,27
 1172 1053 1172 1053 1121 1103 c 128,-1,28
 1070 1153 1070 1153 1070 1232 c 0,29,30
 1070 1320 1070 1320 1130 1368 c 0,31,32
 1173 1403 1173 1403 1237 1408 c 1,33,34
 1196 1435 1196 1435 1132 1435 c 0,35,36
 1060 1435 1060 1435 1001 1388 c 0,37,38
 921 1325 921 1325 888 1200 c 0,39,40
 872 1140 872 1140 872 1093 c 0,41,42
 872 1032 872 1032 898 990 c 8,43,44
 952 905 952 905 1265 881 c 1,45,-1
 1385 460 l 1,46,47
 1500 579 1500 579 1580 710 c 1,48,49
 1504 718 1504 718 1462 754 c 0,50,51
 1403 803 1403 803 1403 883 c 0,52,53
 1403 960 1403 960 1456.5 1013.5 c 128,-1,54
 1510 1067 1510 1067 1588 1067 c 0,55,56
 1662 1067 1662 1067 1716 1014 c 0,57,58
 1767 964 1767 964 1767 882 c 0,59,60
 1767 849 1767 849 1754 812 c 0,61,62
 1737 765 1737 765 1709 718 c 0,63,64
 1656 629 1656 629 1582 535 c 0,65,66
 1509 442 1509 442 1414 357 c 1,67,-1
 1463 189 l 2,68,69
 1482 125 1482 125 1539 125 c 0,70,71
 1602 125 1602 125 1679 227 c 1,72,-1
 1693 227 l 1,73,74
 1669 135 1669 135 1616 76 c 0,75,76
 1530 -20 1530 -20 1399 -20 c 0,77,78
 1248 -20 1248 -20 1187 136 c 1,79,80
 1006 -20 1006 -20 732 -20 c 0,0,1
984 837 m 1,81,82
 875 813 875 813 779 750 c 0,83,84
 638 659 638 659 588 475 c 0,85,86
 566 392 566 392 565 327 c 0,87,88
 565 250 565 250 596 196 c 0,89,90
 659 85 659 85 802 85 c 0,91,92
 986 85 986 85 1160 228 c 1,93,-1
 984 837 l 1,81,82
EndSplineSet
Validated: 1
EndChar

StartChar: quotesingle
Encoding: 39 39 10
Width: 402
GlyphClass: 2
Flags: W
HStem: 1125 425<503 606.024>
VStem: 503 229<1291.24 1548.15>
LayerCount: 2
Fore
SplineSet
465 1550 m 1,0,1
 711 1550 l 1,2,3
 732 1503 732 1503 732 1451 c 0,4,5
 732 1416 732 1416 722 1379 c 0,6,7
 688 1251 688 1251 567 1125 c 1,8,-1
 381 1125 l 1,9,10
 462 1234 462 1234 492 1343 c 0,11,12
 503 1384 503 1384 503 1421 c 0,13,14
 503 1491 503 1491 465 1550 c 1,0,1
EndSplineSet
Validated: 1
EndChar

StartChar: parenleft
Encoding: 40 40 11
Width: 748
GlyphClass: 2
Flags: W
VStem: 356 258<63.5366 593.917>
LayerCount: 2
Fore
SplineSet
1055 1730 m 1,0,1
 1146 1673 l 1,2,3
 1003 1496 1003 1496 874 1235 c 0,4,5
 771 1025 771 1025 699 762 c 0,6,7
 631 517 631 517 617 275 c 0,8,9
 614 223 614 223 614 174 c 0,10,11
 614 -8 614 -8 654 -163 c 1,12,-1
 532 -220 l 1,13,14
 394 -16 394 -16 364 242 c 0,15,16
 356 315 356 315 356 389 c 0,17,18
 356 580 356 580 410 785 c 0,19,20
 486 1071 486 1071 646.5 1298.5 c 128,-1,21
 807 1526 807 1526 1055 1730 c 1,0,1
EndSplineSet
Validated: 1
EndChar

StartChar: parenright
Encoding: 41 41 12
Width: 748
GlyphClass: 2
Flags: W
VStem: 539 258<916.083 1446.46>
LayerCount: 2
Fore
SplineSet
621 1730 m 1,0,1
 759 1526 759 1526 789 1268 c 0,2,3
 797 1195 797 1195 797 1121 c 0,4,5
 797 930 797 930 743 725 c 0,6,7
 667 439 667 439 506.5 211.5 c 128,-1,8
 346 -16 346 -16 98 -220 c 1,9,-1
 7 -163 l 1,10,11
 150 14 150 14 279 275 c 0,12,13
 382 485 382 485 454 748 c 0,14,15
 522 993 522 993 536 1235 c 0,16,17
 539 1287 539 1287 539 1336 c 0,18,19
 539 1518 539 1518 499 1673 c 1,20,-1
 621 1730 l 1,0,1
EndSplineSet
Validated: 1
EndChar

StartChar: asterisk
Encoding: 42 42 13
Width: 1129
GlyphClass: 2
Flags: W
LayerCount: 2
Fore
SplineSet
1002 1669 m 1,0,-1
 1016 1669 l 1,1,-1
 1023 1337 l 1,2,-1
 1197 1409 l 1,3,-1
 1085 1262 l 1,4,-1
 1391 1164 l 1,5,-1
 1387 1150 l 1,6,-1
 1029 1054 l 1,7,-1
 1060 900 l 1,8,-1
 932 972 l 1,9,-1
 745 640 l 1,10,-1
 731 640 l 1,11,-1
 724 972 l 1,12,-1
 551 900 l 1,13,-1
 663 1047 l 1,14,-1
 357 1145 l 1,15,-1
 361 1159 l 1,16,-1
 718 1255 l 1,17,-1
 688 1409 l 1,18,-1
 815 1337 l 1,19,-1
 1002 1669 l 1,0,-1
EndSplineSet
Validated: 1
EndChar

StartChar: plus
Encoding: 43 43 14
Width: 1373
GlyphClass: 2
Flags: W
HStem: 649 211<371.328 755 1022 1405.67>
DStem2: 639.583 218 850.583 218 0.258819 0.965926<44.4808 446.186 719.101 1121.13>
LayerCount: 2
Fore
SplineSet
992 1291 m 2,0,-1
 1073 1291 l 2,1,2
 1125 1291 1125 1291 1125 1250 c 0,3,4
 1125 1239 1125 1239 1121 1226 c 2,5,-1
 1022 860 l 1,6,-1
 1388 860 l 2,7,8
 1440 860 1440 860 1440 819 c 0,9,10
 1440 808 1440 808 1436 795 c 2,11,-1
 1414 714 l 2,12,13
 1397 649 1397 649 1332 649 c 2,14,-1
 966 649 l 1,15,-1
 868 283 l 2,16,17
 851 218 851 218 785 218 c 2,18,-1
 704 218 l 2,19,20
 653 218 653 218 653 258 c 0,21,22
 653 269 653 269 657 283 c 2,23,-1
 755 649 l 1,24,-1
 389 649 l 2,25,26
 337 649 337 649 337 690 c 0,27,28
 337 701 337 701 341 714 c 2,29,-1
 363 795 l 2,30,31
 380 860 380 860 445 860 c 2,32,-1
 811 860 l 1,33,-1
 910 1226 l 2,34,35
 927 1291 927 1291 992 1291 c 2,0,-1
EndSplineSet
Validated: 1
EndChar

StartChar: comma
Encoding: 44 44 15
Width: 514
GlyphClass: 2
Flags: W
HStem: -172 30<-18 40.2695>
VStem: 104 386<37.2617 269.944>
LayerCount: 2
Fore
SplineSet
344 336 m 0,0,1
 423 315 423 315 462 246 c 0,2,3
 490 196 490 196 490 136 c 0,4,5
 490 99 490 99 479 59 c 0,6,7
 447 -59 447 -59 341 -133 c 0,8,9
 251 -195 251 -195 130 -195 c 0,10,11
 58 -195 58 -195 -26 -172 c 1,12,-1
 -18 -142 l 1,13,14
 75 -130 75 -130 147 -96 c 0,15,16
 203 -68 203 -68 240 -19 c 1,17,18
 164 1 164 1 127 65 c 0,19,20
 104 105 104 105 104 150 c 0,21,22
 104 176 104 176 112 205 c 0,23,24
 132 281 132 281 196 320 c 0,25,26
 237 344 237 344 285 344 c 0,27,28
 313 344 313 344 344 336 c 0,0,1
EndSplineSet
Validated: 1
EndChar

StartChar: hyphen
Encoding: 45 45 16
Width: 1373
GlyphClass: 2
Flags: W
HStem: 649 211<371.328 1405.67>
LayerCount: 2
Fore
SplineSet
445 860 m 2,0,-1
 1388 860 l 2,1,2
 1440 860 1440 860 1440 819 c 0,3,4
 1440 808 1440 808 1436 795 c 2,5,-1
 1414 714 l 2,6,7
 1397 649 1397 649 1332 649 c 2,8,-1
 389 649 l 2,9,10
 337 649 337 649 337 690 c 0,11,12
 337 701 337 701 341 714 c 2,13,-1
 363 795 l 2,14,15
 380 860 380 860 445 860 c 2,0,-1
EndSplineSet
Validated: 1
EndChar

StartChar: period
Encoding: 46 46 17
Width: 464
GlyphClass: 2
Flags: W
HStem: -20 370<157.14 394.86>
VStem: 94 364<42.5779 287.422>
LayerCount: 2
Fore
SplineSet
276 -20 m 128,-1,1
 200 -20 200 -20 147 34 c 128,-1,2
 94 88 94 88 94 165 c 128,-1,3
 94 242 94 242 147 296 c 128,-1,4
 200 350 200 350 276 350 c 128,-1,5
 352 350 352 350 405 296 c 128,-1,6
 458 242 458 242 458 165 c 128,-1,7
 458 88 458 88 405 34 c 128,-1,0
 352 -20 352 -20 276 -20 c 128,-1,1
EndSplineSet
Validated: 1
EndChar

StartChar: slash
Encoding: 47 47 18
Width: 1194
GlyphClass: 2
Flags: W
DStem2: 28 19 218 -110 0.645558 0.763711<-48.3647 2172.09>
LayerCount: 2
Fore
SplineSet
1450 1662 m 0,0,1
 1470 1662 1470 1662 1489 1649 c 2,2,-1
 1572 1593 l 2,3,4
 1597 1576 1597 1576 1597 1548 c 0,5,6
 1597 1523 1597 1523 1572 1493 c 2,7,-1
 218 -110 l 2,8,9
 184 -150 184 -150 152 -150 c 0,10,11
 129 -150 129 -150 110 -137 c 2,12,-1
 27 -81 l 2,13,14
 1 -63 1 -63 1 -41 c 0,15,16
 1 -13 1 -13 28 19 c 2,17,-1
 1383 1622 l 2,18,19
 1417 1662 1417 1662 1450 1662 c 0,0,1
EndSplineSet
Validated: 1
EndChar

StartChar: zero
Encoding: 48 48 19
Width: 1542
GlyphClass: 2
Flags: W
HStem: -20 105<679.497 932.151> 1425 105<1014.62 1267.04>
VStem: 291 320<236.299 693.61> 1335 321<816.573 1273.76>
LayerCount: 2
Fore
SplineSet
794 85 m 128,-1,1
 911 85 911 85 1014 202 c 0,2,3
 1176 386 1176 386 1275 755 c 0,4,5
 1335 979 1335 979 1335 1135 c 0,6,7
 1335 1236 1335 1236 1310 1308 c 0,8,9
 1269 1425 1269 1425 1152.5 1425 c 128,-1,10
 1036 1425 1036 1425 932 1308 c 0,11,12
 770 1124 770 1124 671 755 c 0,13,14
 611 531 611 531 611 375 c 0,15,16
 611 274 611 274 636 202 c 0,17,0
 677 85 677 85 794 85 c 128,-1,1
766 -20 m 128,-1,19
 501 -20 501 -20 387 142 c 0,20,21
 291 278 291 278 291 474 c 0,22,23
 291 602 291 602 332 755 c 0,24,25
 436 1143 436 1143 716 1368 c 0,26,27
 916 1530 916 1530 1181 1530 c 128,-1,28
 1446 1530 1446 1530 1560 1368 c 0,29,30
 1656 1232 1656 1232 1656 1037 c 0,31,32
 1656 909 1656 909 1614 755 c 0,33,34
 1510 367 1510 367 1231 142 c 0,35,18
 1031 -20 1031 -20 766 -20 c 128,-1,19
EndSplineSet
Validated: 1
EndChar

StartChar: one
Encoding: 49 49 20
Width: 820
GlyphClass: 2
Flags: W
HStem: 0 21G<298.5 530>
DStem2: 249.564 0 569.564 0 0.258819 0.965926<75.4195 1131.09>
LayerCount: 2
Fore
SplineSet
330 0 m 2,0,1
 267 0 267 0 267 50 c 0,2,3
 267 63 267 63 271 80 c 2,4,-1
 521 1010 l 2,5,6
 534 1057 534 1057 534 1096 c 0,7,8
 534 1214 534 1214 413 1244 c 1,9,-1
 417 1259 l 1,10,11
 718 1356 718 1356 978 1580 c 1,12,-1
 993 1580 l 1,13,-1
 591 80 l 2,14,15
 570 0 570 0 490 0 c 2,16,-1
 330 0 l 2,0,1
EndSplineSet
Validated: 1
EndChar

StartChar: two
Encoding: 50 50 21
Width: 1481
GlyphClass: 2
Flags: W
HStem: -10 300<948.326 1202.58> 80 293<423.117 795.405> 1404 126<886.038 1162.62>
VStem: 467 364<945.593 1190.61> 1215 345<1033.21 1352.01>
LayerCount: 2
Fore
SplineSet
147 -10 m 1,0,1
 298 280 298 280 500 454 c 0,2,3
 683 612 683 612 930 768 c 0,4,5
 1144 903 1144 903 1199 1108 c 0,6,7
 1215 1168 1215 1168 1215 1217 c 0,8,9
 1215 1271 1215 1271 1196 1313 c 0,10,11
 1155 1404 1155 1404 1030 1404 c 0,12,13
 925 1404 925 1404 831 1354 c 0,14,15
 739 1305 739 1305 675 1244 c 1,16,17
 735 1240 735 1240 778 1199 c 0,18,19
 831 1150 831 1150 831 1070.5 c 128,-1,20
 831 991 831 991 778 937 c 128,-1,21
 725 883 725 883 649 883 c 128,-1,22
 573 883 573 883 520 937 c 128,-1,23
 467 991 467 991 467 1068 c 0,24,25
 467 1142 467 1142 513 1207 c 0,26,27
 579 1300 579 1300 683 1377 c 0,28,29
 889 1530 889 1530 1146 1530 c 0,30,31
 1388 1530 1388 1530 1490 1407 c 0,32,33
 1560 1321 1560 1321 1560 1214 c 0,34,35
 1560 1167 1560 1167 1546 1115 c 0,36,37
 1481 869 1481 869 1183 704 c 0,38,39
 1011 609 1011 609 787 498 c 0,40,41
 613 411 613 411 501 289 c 1,42,43
 641 373 641 373 743.5 373 c 128,-1,44
 846 373 846 373 947 335 c 0,45,46
 1070 290 1070 290 1147 290 c 0,47,48
 1285 291 1285 291 1420 388 c 1,49,-1
 1435 388 l 1,50,51
 1196 -10 1196 -10 971 -10 c 0,52,53
 858 -10 858 -10 724 43 c 0,54,55
 630 80 630 80 469 80 c 0,56,57
 314 80 314 80 162 -10 c 1,58,-1
 147 -10 l 1,0,1
EndSplineSet
Validated: 1
EndChar

StartChar: three
Encoding: 51 51 22
Width: 1333
GlyphClass: 2
Flags: W
HStem: -20 105<418.71 716.073> 1435 95<788.651 1043.93>
VStem: 198 364<170.426 409.41> 535 364<1087.33 1325.47> 987 341<400.603 730.758> 1073 309<1115.67 1393.2>
LayerCount: 2
Fore
SplineSet
575 -20 m 0,0,1
 392 -20 392 -20 279 94 c 0,2,3
 198 175 198 175 198 285 c 0,4,5
 198 364 198 364 251 418 c 128,-1,6
 304 472 304 472 380 472 c 128,-1,7
 456 472 456 472 509 418 c 128,-1,8
 562 364 562 364 562 287 c 0,9,10
 562 203 562 203 506 158 c 0,11,12
 465 125 465 125 417 119 c 1,13,14
 468 85 468 85 548 85 c 0,15,16
 690 85 690 85 813 196 c 0,17,18
 923 295 923 295 971 475 c 0,19,20
 987 537 987 537 987 588 c 0,21,22
 987 687 987 687 926 750 c 0,23,24
 833 845 833 845 696 859 c 1,25,-1
 700 874 l 1,26,27
 851 918 851 918 935 990 c 0,28,29
 1023 1065 1023 1065 1059 1200 c 0,30,31
 1073 1253 1073 1253 1073 1294 c 0,32,33
 1073 1351 1073 1351 1046 1388 c 0,34,35
 1012 1435 1012 1435 940 1435 c 0,36,37
 841 1435 841 1435 767 1375 c 1,38,39
 812 1363 812 1363 842 1338 c 0,40,41
 899 1290 899 1290 899 1208 c 0,42,43
 899 1132 899 1132 846 1077.5 c 128,-1,44
 793 1023 793 1023 717 1023 c 128,-1,45
 641 1023 641 1023 588 1077 c 128,-1,46
 535 1131 535 1131 535 1208 c 0,47,48
 535 1321 535 1321 657 1415 c 0,49,50
 805 1530 805 1530 993 1530 c 0,51,52
 1204 1530 1204 1530 1305 1437 c 0,53,54
 1382 1365 1382 1365 1382 1270 c 0,55,56
 1382 1236 1382 1236 1372 1199 c 0,57,58
 1333 1053 1333 1053 1205 961 c 0,59,60
 1145 918 1145 918 1068 889 c 1,61,62
 1212 860 1212 860 1284 753 c 0,63,64
 1328 688 1328 688 1328 599 c 0,65,66
 1328 542 1328 542 1310 475 c 0,67,68
 1250 253 1250 253 1042 112 c 0,69,70
 847 -20 847 -20 575 -20 c 0,0,1
EndSplineSet
Validated: 1
EndChar

StartChar: four
Encoding: 52 52 23
Width: 1296
GlyphClass: 2
Flags: W
HStem: 0 21G<775.5 1007> 356 120<363 822 1175 1303.44>
DStem2: 192 468 363 476 0.757379 0.652975<134.736 977.837> 726.564 0 1046.56 0 0.258819 0.965926<75.602 368.57 575.844 1062.33>
LayerCount: 2
Fore
SplineSet
807 0 m 2,0,1
 744 0 744 0 744 50 c 0,2,3
 744 65 744 65 748 80 c 2,4,-1
 822 356 l 1,5,-1
 192 356 l 2,6,7
 154 356 154 356 154 383 c 0,8,9
 154 390 154 390 156 397 c 2,10,-1
 163 421 l 2,11,12
 172 451 172 451 192 468 c 2,13,-1
 1447 1550 l 1,14,-1
 1462 1550 l 1,15,-1
 1175 476 l 1,16,-1
 1284 476 l 2,17,18
 1316 476 1316 476 1316 454 c 0,19,20
 1316 449 1316 449 1314 441 c 2,21,-1
 1301 391 l 2,22,23
 1292 356 1292 356 1251 356 c 2,24,-1
 1142 356 l 1,25,-1
 1068 80 l 2,26,27
 1047 0 1047 0 967 0 c 2,28,-1
 807 0 l 2,0,1
855 476 m 1,29,-1
 1002 1026 l 1,30,-1
 363 476 l 1,31,-1
 855 476 l 1,29,-1
EndSplineSet
Validated: 1
EndChar

StartChar: five
Encoding: 53 53 24
Width: 1322
GlyphClass: 2
Flags: W
HStem: -20 105<407.71 705.698> 814 105<753.092 930.363> 1290 220<974.859 1261.44>
VStem: 187 364<170.426 409.41> 983 333<408.625 757.779>
LayerCount: 2
Fore
SplineSet
564 -20 m 0,0,1
 381 -20 381 -20 268 94 c 0,2,3
 187 175 187 175 187 285 c 0,4,5
 187 364 187 364 240 418 c 128,-1,6
 293 472 293 472 369 472 c 128,-1,7
 445 472 445 472 498 418 c 128,-1,8
 551 364 551 364 551 287 c 0,9,10
 551 203 551 203 495 158 c 0,11,12
 454 125 454 125 406 119 c 1,13,14
 457 85 457 85 537 85 c 0,15,16
 680 85 680 85 804 197 c 0,17,18
 911 294 911 294 958 470 c 0,19,20
 983 562 983 562 983 628 c 0,21,22
 983 692 983 692 960 732 c 0,23,24
 914 814 914 814 799 814 c 0,25,26
 702 814 702 814 597 739 c 1,27,-1
 409 894 l 1,28,-1
 741 1510 l 1,29,-1
 1529 1510 l 1,30,31
 1369 1290 1369 1290 1160 1290 c 0,32,33
 939 1290 939 1290 894 1445 c 1,34,-1
 753 919 l 1,35,36
 815 926 815 926 873 926 c 0,37,38
 1108 926 1108 926 1233 804 c 0,39,40
 1316 723 1316 723 1316 597 c 0,41,42
 1316 538 1316 538 1298 470 c 0,43,44
 1240 253 1240 253 1031 112 c 0,45,46
 836 -20 836 -20 564 -20 c 0,0,1
EndSplineSet
Validated: 1
EndChar

StartChar: six
Encoding: 54 54 25
Width: 1485
GlyphClass: 2
Flags: W
HStem: -20 107<659.475 906.962> 938 108<861.98 1113.21> 1425 105<1076.51 1352.62>
VStem: 298 305<202.313 545.696> 1166 326<478.098 839.325> 1231 364<1127.17 1363.51>
LayerCount: 2
Fore
SplineSet
759 -20 m 132,-1,1
 503 -20 503 -20 397 113 c 0,2,3
 298 236 298 236 298 429 c 0,4,5
 298 553 298 553 339 706 c 0,6,7
 454 1134 454 1134 734 1363 c 0,8,9
 938 1530 938 1530 1206 1530 c 0,10,11
 1432 1530 1432 1530 1537 1402 c 0,12,13
 1595 1331 1595 1331 1595 1249 c 0,14,15
 1595 1170 1595 1170 1542 1117 c 0,16,17
 1489 1063 1489 1063 1413 1063 c 128,-1,18
 1337 1063 1337 1063 1284 1117 c 128,-1,19
 1231 1171 1231 1171 1231 1248 c 0,20,21
 1231 1324 1231 1324 1286 1375 c 0,22,23
 1315 1402 1315 1402 1354 1410 c 1,24,25
 1304 1425 1304 1425 1235 1425 c 0,26,27
 1087 1425 1087 1425 952 1281 c 0,28,29
 832 1153 832 1153 763 979 c 1,30,31
 885 1046 885 1046 1034 1046 c 0,32,33
 1299 1046 1299 1046 1417 888 c 0,34,35
 1492 787 1492 787 1492 656 c 0,36,37
 1492 589 1492 589 1472 513 c 0,38,39
 1413 294 1413 294 1219 141 c 0,40,0
 1015 -20 1015 -20 759 -20 c 132,-1,1
999 938 m 128,-1,42
 877 938 877 938 776 814 c 0,43,44
 691 710 691 710 638 514 c 0,45,46
 603 384 603 384 603 296 c 0,47,48
 603 247 603 247 614 211 c 0,49,50
 651 87 651 87 771 87 c 128,-1,51
 891 87 891 87 994 211 c 0,52,53
 1078 312 1078 312 1132 514 c 0,54,55
 1166 641 1166 641 1166 729 c 0,56,57
 1166 777 1166 777 1156 814 c 0,58,41
 1121 938 1121 938 999 938 c 128,-1,42
EndSplineSet
Validated: 1
EndChar

StartChar: seven
Encoding: 55 55 26
Width: 1261
GlyphClass: 2
Flags: W
HStem: -20 21G<571.75 667.25> 1226 294<598.176 887.323>
VStem: 409 356<141.5 414.904>
LayerCount: 2
Fore
SplineSet
619.5 -20 m 128,-1,1
 524 -20 524 -20 472 28 c 0,2,3
 409 86 409 86 409 197 c 0,4,5
 409 263 409 263 431 346 c 0,6,7
 496 589 496 589 685 775 c 0,8,9
 813 900 813 900 964 1003 c 0,10,-1
 1223 1187 l 1,11,12
 1115 1157 1115 1157 1038 1157 c 128,-1,13
 961 1157 961 1157 876 1185 c 0,14,15
 751 1226 751 1226 675 1226 c 0,16,17
 505 1226 505 1226 368 1132 c 1,18,-1
 353 1132 l 1,19,20
 588 1520 588 1520 873 1520 c 0,21,22
 994 1520 994 1520 1096.5 1476 c 128,-1,23
 1199 1432 1199 1432 1333 1432 c 0,24,25
 1481 1432 1481 1432 1603 1520 c 1,26,-1
 1618 1520 l 1,27,28
 1480 1241 1480 1241 1244 1069 c 0,29,30
 1141 993 1141 993 1041 895 c 0,31,32
 921 777 921 777 846 650 c 0,33,34
 765 515 765 515 765 410 c 0,35,36
 765 352 765 352 790 298 c 0,37,38
 823 227 823 227 823 166 c 0,39,40
 823 94 823 94 771 39 c 0,41,0
 715 -20 715 -20 619.5 -20 c 128,-1,1
EndSplineSet
Validated: 1
EndChar

StartChar: eight
Encoding: 56 56 27
Width: 1365
GlyphClass: 2
Flags: W
HStem: -20 102<529.354 856.515> 1432 98<965.999 1188.93>
VStem: 220 236<160.711 504.201> 544 309<1018.41 1256.66> 1056 319<346.393 589.343> 1220 231<1099.01 1404.98>
LayerCount: 2
Fore
SplineSet
1096 1432 m 0,0,1
 1009 1432 1009 1432 948 1373 c 0,2,3
 884 1312 884 1312 862 1218 c 0,4,5
 853 1178 853 1178 853 1143 c 0,6,7
 853 1038 853 1038 937 984 c 2,8,-1
 1047 914 l 1,9,10
 1165 1031 1165 1031 1207 1188 c 0,11,12
 1220 1237 1220 1237 1220 1279 c 128,-1,13
 1220 1321 1220 1321 1207 1356 c 0,14,15
 1179 1432 1179 1432 1096 1432 c 0,0,1
671 -20 m 0,16,17
 410 -20 410 -20 298 113 c 0,18,19
 221 205 221 205 220 322 c 0,20,21
 220 373 220 373 235 430 c 0,22,23
 309 709 309 709 667 826 c 1,24,25
 544 930 544 930 544 1076 c 0,26,27
 544 1114 544 1114 552 1154 c 0,28,29
 588 1327 588 1327 760 1435 c 0,30,31
 911 1530 911 1530 1107 1530 c 0,32,33
 1302 1530 1302 1530 1386 1439 c 0,34,35
 1451 1369 1451 1369 1451 1273 c 0,36,37
 1451 1231 1451 1231 1438 1183 c 0,38,39
 1382 967 1382 967 1145 859 c 1,40,41
 1375 730 1375 730 1375 528 c 0,42,43
 1375 496 1375 496 1369 462 c 0,44,45
 1335 265 1335 265 1123 120 c 24,46,47
 917 -20 917 -20 671 -20 c 0,16,17
682 82 m 0,48,49
 818 82 818 82 919 171 c 0,50,51
 1016 255 1016 255 1046 381 c 0,52,53
 1056 424 1056 424 1056 461 c 0,54,55
 1056 574 1056 574 962 634 c 2,56,-1
 749 770 l 1,57,58
 542 684 542 684 474 427 c 0,59,60
 456 359 456 359 456 303 c 0,61,62
 456 236 456 236 482 185 c 0,63,64
 535 82 535 82 682 82 c 0,48,49
EndSplineSet
Validated: 1
EndChar

StartChar: nine
Encoding: 57 57 28
Width: 1485
GlyphClass: 2
Flags: W
HStem: -20 105<536.378 812.494> 464 108<775.786 1027.02> 1423 107<982.038 1229.53>
VStem: 294 364<146.495 382.834> 397 326<670.675 1031.9> 1286 305<964.304 1307.69>
LayerCount: 2
Fore
SplineSet
535 100 m 1,0,1
 585 85 585 85 654 85 c 0,2,3
 802 85 802 85 937 229 c 0,4,5
 1057 357 1057 357 1126 531 c 1,6,7
 1004 464 1004 464 855 464 c 0,8,9
 590 464 590 464 472 622 c 0,10,11
 397 723 397 723 397 854 c 0,12,13
 397 921 397 921 417 997 c 0,14,15
 476 1216 476 1216 670 1369 c 0,16,17
 874 1530 874 1530 1130 1530 c 128,-1,18
 1386 1530 1386 1530 1492 1397 c 0,19,20
 1591 1274 1591 1274 1591 1081 c 0,21,22
 1591 957 1591 957 1550 804 c 0,23,24
 1435 376 1435 376 1155 147 c 0,25,26
 951 -20 951 -20 683 -20 c 0,27,28
 457 -20 457 -20 352 108 c 0,29,30
 294 179 294 179 294 261 c 0,31,32
 294 340 294 340 347 393 c 0,33,34
 400 447 400 447 476 447 c 128,-1,35
 552 447 552 447 605 393 c 128,-1,36
 658 339 658 339 658 262 c 0,37,38
 658 186 658 186 603 135 c 0,39,40
 574 108 574 108 535 100 c 1,0,1
890 572 m 128,-1,42
 1012 572 1012 572 1113 696 c 0,43,44
 1198 800 1198 800 1251 996 c 0,45,46
 1286 1126 1286 1126 1286 1214 c 0,47,48
 1286 1263 1286 1263 1275 1299 c 0,49,50
 1238 1423 1238 1423 1118 1423 c 128,-1,51
 998 1423 998 1423 895 1299 c 0,52,53
 811 1198 811 1198 757 996 c 0,54,55
 723 869 723 869 723 781 c 0,56,57
 723 733 723 733 733 696 c 0,58,41
 768 572 768 572 890 572 c 128,-1,42
EndSplineSet
Validated: 1
EndChar

StartChar: colon
Encoding: 58 58 29
Width: 464
GlyphClass: 2
Flags: W
HStem: -20 370<157.14 394.86> 569 370<315.14 552.86>
VStem: 94 364<42.5779 287.422> 252 364<631.578 876.422>
LayerCount: 2
Fore
SplineSet
276 -20 m 128,-1,1
 200 -20 200 -20 147 34 c 128,-1,2
 94 88 94 88 94 165 c 128,-1,3
 94 242 94 242 147 296 c 128,-1,4
 200 350 200 350 276 350 c 128,-1,5
 352 350 352 350 405 296 c 128,-1,6
 458 242 458 242 458 165 c 128,-1,7
 458 88 458 88 405 34 c 128,-1,0
 352 -20 352 -20 276 -20 c 128,-1,1
434 569 m 128,-1,9
 358 569 358 569 305 623 c 128,-1,10
 252 677 252 677 252 754 c 128,-1,11
 252 831 252 831 305 885 c 128,-1,12
 358 939 358 939 434 939 c 128,-1,13
 510 939 510 939 563 885 c 128,-1,14
 616 831 616 831 616 754 c 128,-1,15
 616 677 616 677 563 623 c 128,-1,8
 510 569 510 569 434 569 c 128,-1,9
EndSplineSet
Validated: 1
EndChar

StartChar: semicolon
Encoding: 59 59 30
Width: 484
GlyphClass: 2
Flags: W
HStem: -172 30<-18 40.2695> 569 370<315.14 552.86>
VStem: 104 386<37.2617 269.944> 252 364<631.578 876.422>
LayerCount: 2
Fore
SplineSet
344 336 m 0,0,1
 423 315 423 315 462 246 c 0,2,3
 490 196 490 196 490 136 c 0,4,5
 490 99 490 99 479 59 c 0,6,7
 447 -59 447 -59 341 -133 c 0,8,9
 251 -195 251 -195 130 -195 c 0,10,11
 58 -195 58 -195 -26 -172 c 1,12,-1
 -18 -142 l 1,13,14
 75 -130 75 -130 147 -96 c 0,15,16
 203 -68 203 -68 240 -19 c 1,17,18
 164 1 164 1 127 65 c 0,19,20
 104 105 104 105 104 150 c 0,21,22
 104 176 104 176 112 205 c 0,23,24
 132 281 132 281 196 320 c 0,25,26
 237 344 237 344 285 344 c 0,27,28
 313 344 313 344 344 336 c 0,0,1
434 569 m 128,-1,30
 358 569 358 569 305 623 c 128,-1,31
 252 677 252 677 252 754 c 128,-1,32
 252 831 252 831 305 885 c 128,-1,33
 358 939 358 939 434 939 c 128,-1,34
 510 939 510 939 563 885 c 128,-1,35
 616 831 616 831 616 754 c 128,-1,36
 616 677 616 677 563 623 c 128,-1,29
 510 569 510 569 434 569 c 128,-1,30
EndSplineSet
Validated: 1
EndChar

StartChar: less
Encoding: 60 60 31
Width: 1242
GlyphClass: 2
Flags: W
DStem2: 643 772 379 669 0.841225 -0.540685<0 564.752> 428 850 643 772 0.895917 0.444221<157.973 966.509>
LayerCount: 2
Fore
SplineSet
1297 1274 m 0,0,1
 1323 1274 1323 1274 1331 1247 c 2,2,-1
 1351 1183 l 2,3,4
 1354 1173 1354 1173 1354 1164 c 0,5,6
 1354 1135 1354 1135 1313 1114 c 2,7,-1
 643 772 l 1,8,-1
 1115 474 l 2,9,10
 1137 460 1137 460 1137 430 c 0,11,12
 1137 408 1137 408 1117 384 c 2,13,-1
 1061 317 l 2,14,15
 1032 282 1032 282 1000 282 c 0,16,17
 981 282 981 282 964 293 c 2,18,-1
 379 669 l 2,19,20
 347 690 347 690 347 725 c 0,21,22
 347 735 347 735 348 739 c 2,23,-1
 359 780 l 2,24,25
 370 821 370 821 428 850 c 2,26,-1
 1267 1266 l 2,27,28
 1283 1274 1283 1274 1297 1274 c 0,0,1
EndSplineSet
Validated: 1
EndChar

StartChar: equal
Encoding: 61 61 32
Width: 1373
GlyphClass: 2
Flags: W
HStem: 444 211<316.328 1351.33> 854 211<426.328 1460.67>
LayerCount: 2
Fore
SplineSet
391 655 m 2,0,-1
 1334 655 l 2,1,2
 1385 655 1385 655 1385 615 c 0,3,4
 1385 604 1385 604 1381 590 c 2,5,-1
 1359 509 l 2,6,7
 1342 444 1342 444 1277 444 c 2,8,-1
 334 444 l 2,9,10
 282 444 282 444 282 485 c 0,11,12
 282 496 282 496 286 509 c 2,13,-1
 308 590 l 2,14,15
 326 655 326 655 391 655 c 2,0,-1
500 1065 m 2,16,-1
 1443 1065 l 2,17,18
 1495 1065 1495 1065 1495 1024 c 0,19,20
 1495 1013 1495 1013 1491 1000 c 2,21,-1
 1469 919 l 2,22,23
 1452 854 1452 854 1387 854 c 2,24,-1
 444 854 l 2,25,26
 392 854 392 854 392 895 c 0,27,28
 392 906 392 906 396 919 c 2,29,-1
 418 1000 l 2,30,31
 435 1065 435 1065 500 1065 c 2,16,-1
EndSplineSet
Validated: 1
EndChar

StartChar: greater
Encoding: 62 62 33
Width: 1242
GlyphClass: 2
Flags: W
DStem2: 1280 887 544 1082 0.841225 -0.540685<-731.145 -166.393> 1016 784 392 290 0.895917 0.444221<-808.536 0>
LayerCount: 2
Fore
SplineSet
659 1274 m 0,0,1
 678 1274 678 1274 695 1263 c 2,2,-1
 1280 887 l 2,3,4
 1312 866 1312 866 1312 831 c 0,5,6
 1312 821 1312 821 1311 817 c 2,7,-1
 1300 776 l 2,8,9
 1289 735 1289 735 1231 706 c 2,10,-1
 392 290 l 2,11,12
 376 282 376 282 362 282 c 0,13,14
 336 282 336 282 328 309 c 2,15,-1
 308 373 l 2,16,17
 305 383 305 383 305 392 c 0,18,19
 305 421 305 421 346 442 c 2,20,-1
 1016 784 l 1,21,-1
 544 1082 l 2,22,23
 522 1096 522 1096 522 1126 c 0,24,25
 522 1148 522 1148 542 1172 c 2,26,-1
 598 1239 l 2,27,28
 627 1274 627 1274 659 1274 c 0,0,1
EndSplineSet
Validated: 1
EndChar

StartChar: question
Encoding: 63 63 34
Width: 1376
GlyphClass: 2
Flags: W
HStem: -20 370<548.14 785.86> 1404 126<862.078 1140.28>
VStem: 443 364<945.59 1190.61> 485 364<42.5779 287.422> 1195 341<1041.19 1349.86>
LayerCount: 2
Fore
SplineSet
667 -20 m 128,-1,1
 591 -20 591 -20 538 34 c 128,-1,2
 485 88 485 88 485 165 c 128,-1,3
 485 242 485 242 538 296 c 128,-1,4
 591 350 591 350 667 350 c 128,-1,5
 743 350 743 350 796 296 c 128,-1,6
 849 242 849 242 849 165 c 128,-1,7
 849 88 849 88 796 34 c 128,-1,0
 743 -20 743 -20 667 -20 c 128,-1,1
1122 1530 m 0,8,9
 1372 1530 1372 1530 1470 1405 c 0,10,11
 1536 1321 1536 1321 1536 1210 c 0,12,13
 1536 1165 1536 1165 1525 1115 c 0,14,15
 1473 881 1473 881 1220 730 c 2,16,-1
 899 538 l 2,17,18
 823 492 823 492 807 434 c 0,19,20
 798 400 798 400 759 400 c 2,21,-1
 695 400 l 2,22,23
 663 400 663 400 663 422 c 0,24,25
 663 426 663 426 665 434 c 0,26,27
 701 577 701 577 811 669 c 2,28,-1
 935 773 l 2,29,30
 1132 938 1132 938 1181 1120 c 0,31,32
 1195 1172 1195 1172 1195 1215 c 0,33,34
 1195 1268 1195 1268 1175 1313 c 0,35,36
 1134 1404 1134 1404 1007 1404 c 0,37,38
 901 1404 901 1404 807 1354 c 0,39,40
 715 1305 715 1305 651 1244 c 1,41,42
 711 1240 711 1240 754 1199 c 0,43,44
 807 1148 807 1148 807 1070 c 0,45,46
 807 991 807 991 754 937 c 128,-1,47
 701 883 701 883 625 883 c 128,-1,48
 549 883 549 883 496 937 c 128,-1,49
 443 991 443 991 443 1068 c 0,50,51
 443 1142 443 1142 489 1207 c 0,52,53
 555 1300 555 1300 659 1377 c 0,54,55
 865 1530 865 1530 1122 1530 c 0,8,9
EndSplineSet
Validated: 1
EndChar

StartChar: at
Encoding: 64 64 35
Width: 1594
GlyphClass: 2
Flags: W
HStem: -430 97<661.908 1032.29> -20 144<1218.5 1500> -20 97<824 1051.32> 1019 101<960.729 1253.83>
VStem: 200 314<-164.83 340.468> 620 286<87.6396 372.338> 1274 293<693.547 997.757>
DStem2: 929.168 -430 1229.15 -430 0.258819 0.965926<716.222 1079.63 1135.66 1374.5>
LayerCount: 2
Fore
SplineSet
907 -20 m 0,0,1
 741 -20 741 -20 672 62 c 0,2,3
 620 123 620 123 620 206 c 0,4,5
 620 246 620 246 632 290 c 0,6,7
 673 443 673 443 831.5 556 c 128,-1,8
 990 669 990 669 1226 681 c 1,9,-1
 1256 791 l 2,10,11
 1274 857 1274 857 1274 902 c 0,12,13
 1274 943 1274 943 1259 968 c 0,14,15
 1228 1019 1228 1019 1140 1019 c 0,16,17
 960 1019 960 1019 823 864 c 0,18,19
 647 669 647 669 559 343 c 0,20,21
 514 173 514 173 514 43 c 0,22,23
 514 -79 514 -79 554 -166 c 0,24,25
 630 -333 630 -333 842 -333 c 0,26,27
 1060 -333 1060 -333 1250 -209 c 1,28,-1
 1284 -277 l 1,29,30
 1027 -430 1027 -430 714 -430 c 0,31,32
 442 -430 442 -430 316 -282 c 0,33,34
 200 -145 200 -145 200 66 c 0,35,36
 200 190 200 190 240 338 c 0,37,38
 348 740 348 740 648 957 c 0,39,40
 874 1120 874 1120 1200 1120 c 0,41,42
 1394 1120 1394 1120 1497 1032 c 0,43,44
 1567 972 1567 972 1567 874 c 0,45,46
 1567 831 1567 831 1553 780 c 2,47,-1
 1406 230 l 2,48,49
 1399 204 1399 204 1399 185 c 0,50,51
 1399 124 1399 124 1465 124 c 0,52,53
 1535 124 1535 124 1601 230 c 1,54,-1
 1616 230 l 1,55,56
 1593 143 1593 143 1534 85 c 0,57,58
 1428 -20 1428 -20 1285 -20 c 0,59,60
 1152 -20 1152 -20 1107 83 c 1,61,62
 1035 -20 1035 -20 907 -20 c 0,0,1
1208 613 m 1,63,64
 1135 588 1135 588 1072 540 c 0,65,66
 967 460 967 460 924 302 c 0,67,68
 906 236 906 236 906 191 c 0,69,70
 906 173 906 173 909 159 c 0,71,72
 925 77 925 77 991 77 c 0,73,74
 1036 77 1036 77 1069 134 c 0,75,76
 1090 170 1090 170 1117 271 c 2,77,-1
 1208 613 l 1,63,64
EndSplineSet
Validated: 1
EndChar

StartChar: A
Encoding: 65 65 36
Width: 1744
GlyphClass: 2
Flags: W
HStem: -20 150<1386.5 1656.43> -20 110<107.283 252.483> 491 121<736 1186> 1385 145<969.894 1249.5>
VStem: 72 15<201.05 230> 833 15<1286 1294.1>
DStem2: 297 188 653 491 0.56235 0.8269<-147.347 450.747 597.477 1257.33> 1396 1318 1108 1157 0.153078 -0.988214<115.016 665.533 788.015 1206.53>
LayerCount: 2
Fore
SplineSet
182 -20 m 0,0,1
 91 -20 91 -20 65 49 c 0,2,3
 54 78 54 78 54 116 c 0,4,5
 54 165 54 165 72 230 c 1,6,-1
 87 230 l 1,7,8
 96 90 96 90 170 90 c 0,9,10
 230 90 230 90 297 188 c 2,11,-1
 1075 1332 l 1,12,13
 1057 1385 1057 1385 993 1385 c 0,14,15
 919 1385 919 1385 848 1286 c 0,16,-1
 833 1286 l 1,17,18
 850 1373 850 1373 909 1435 c 0,19,20
 999 1530 999 1530 1136 1530 c 0,21,22
 1363 1530 1363 1530 1396 1318 c 2,23,-1
 1565 227 l 2,24,25
 1580 130 1580 130 1642 130 c 0,26,27
 1717 130 1717 130 1781 230 c 1,28,-1
 1796 230 l 1,29,30
 1773 136 1773 136 1721 79 c 0,31,32
 1632 -20 1632 -20 1490 -20 c 0,33,34
 1283 -20 1283 -20 1254 172 c 2,35,-1
 1205 491 l 1,36,-1
 653 491 l 1,37,-1
 408 136 l 2,38,39
 300 -20 300 -20 182 -20 c 0,0,1
1108 1157 m 1,40,-1
 736 612 l 1,41,-1
 1186 612 l 1,42,-1
 1108 1157 l 1,40,-1
EndSplineSet
Validated: 1
EndChar

StartChar: C
Encoding: 67 67 37
Width: 1399
GlyphClass: 2
Flags: W
HStem: -20 105<732.024 1079.04> 959 368<1285.16 1427.1> 1425 105<1051.04 1377.69>
VStem: 290 331<231.625 692.796> 1221 387<1045.38 1265.27>
LayerCount: 2
Fore
SplineSet
816.5 -20 m 128,-1,1
 511 -20 511 -20 387 142 c 0,2,3
 290 269 290 269 290 465 c 0,4,5
 290 599 290 599 332 755 c 0,6,7
 440 1156 440 1156 716 1368 c 0,8,9
 926 1529 926 1529 1216 1530 c 0,10,11
 1429 1530 1429 1530 1537 1395 c 0,12,13
 1608 1306 1608 1306 1608 1187 c 0,14,15
 1608 1087 1608 1087 1544 1022 c 0,16,17
 1482 959 1482 959 1406 959 c 0,18,19
 1328 959 1328 959 1275 1013 c 0,20,21
 1221 1067 1221 1067 1221 1144 c 128,-1,22
 1221 1221 1221 1221 1275 1276 c 0,23,24
 1325 1327 1325 1327 1392 1327 c 0,25,26
 1412 1327 1412 1327 1429 1319 c 1,27,28
 1414 1348 1414 1348 1399 1363 c 0,29,30
 1337 1425 1337 1425 1223 1425 c 0,31,32
 1072 1425 1072 1425 954 1305 c 0,33,34
 780 1129 780 1129 681 755 c 0,35,36
 621 529 621 529 621 385 c 0,37,38
 621 271 621 271 658 207 c 0,39,40
 729 85 729 85 886 85 c 0,41,42
 1040 85 1040 85 1169 181 c 0,43,44
 1282 265 1282 265 1386 390 c 1,45,-1
 1400 390 l 1,46,-1
 1347 189 l 1,47,-1
 1345 188 l 1,48,0
 1122 -20 1122 -20 816.5 -20 c 128,-1,1
EndSplineSet
Validated: 1
EndChar

StartChar: D
Encoding: 68 68 38
Width: 1625
GlyphClass: 2
Flags: W
HStem: -20 144<197.651 412.5> -20 110<684.981 947.356> 1410 120<879.554 1232.23>
VStem: 142 15<193.977 230> 1383 350<746.424 1234.24>
DStem2: 285.013 -20 604.151 -20 0.258819 0.965926<308.606 1274.77>
LayerCount: 2
Fore
SplineSet
350 -20 m 0,0,1
 200 -20 200 -20 152 84 c 0,2,3
 134 123 134 123 134 168 c 0,4,5
 134 198 134 198 142 230 c 1,6,-1
 157 230 l 1,7,8
 170 124 170 124 247 124 c 128,-1,9
 324 124 324 124 352 230 c 2,10,-1
 592 1125 l 2,11,12
 613 1205 613 1205 694 1205 c 2,13,-1
 854 1205 l 2,14,15
 916 1205 916 1205 916 1156 c 0,16,17
 916 1144 916 1144 911 1125 c 2,18,-1
 684 278 l 2,19,20
 671 229 671 229 671 195 c 0,21,22
 671 90 671 90 783 90 c 0,23,24
 982 90 982 90 1145 318 c 0,25,26
 1273 498 1273 498 1342 755 c 0,27,28
 1383 906 1383 906 1383 1030 c 0,29,30
 1383 1116 1383 1116 1363 1189 c 0,31,32
 1302 1410 1302 1410 1049 1410 c 0,33,34
 662 1410 662 1410 312 1036 c 1,35,-1
 300 1044 l 1,36,37
 638 1530 638 1530 1183 1530 c 0,38,39
 1496 1530 1496 1530 1632 1338 c 0,40,41
 1733 1195 1733 1195 1733 1002 c 0,42,43
 1733 887 1733 887 1697 755 c 0,44,45
 1618 462 1618 462 1395 239 c 0,46,47
 1136 -20 1136 -20 785 -20 c 0,48,49
 612 -20 612 -20 560 61 c 1,50,51
 475 -20 475 -20 350 -20 c 0,0,1
EndSplineSet
Validated: 1
EndChar

StartChar: E
Encoding: 69 69 39
Width: 1312
GlyphClass: 2
Flags: W
HStem: -20 105<654.512 994.606> 1435 95<1004.11 1234.35>
VStem: 229 336<178.724 538.193> 560 312<970.494 1274.89> 1070 371<1124.51 1352.53>
LayerCount: 2
Fore
SplineSet
1237 1408 m 1,0,1
 1196 1435 1196 1435 1132 1435 c 0,2,3
 1060 1435 1060 1435 1001 1388 c 0,4,5
 922 1325 922 1325 888 1200 c 0,6,7
 872 1140 872 1140 872 1093 c 0,8,9
 872 1032 872 1032 898 990 c 0,10,11
 944 918 944 918 1071 874 c 1,12,-1
 1067 859 l 1,13,14
 922 845 922 845 779 750 c 128,-1,15
 636 655 636 655 588 475 c 0,16,17
 566 392 566 392 565 327 c 0,18,19
 565 250 565 250 596 196 c 0,20,21
 659 85 659 85 802 85 c 0,22,23
 957 85 957 85 1084 181 c 0,24,25
 1194 265 1194 265 1300 390 c 1,26,-1
 1316 390 l 1,27,-1
 1263 189 l 1,28,-1
 1260 188 l 1,29,30
 1037 -20 1037 -20 732 -20 c 0,31,32
 445 -20 445 -20 322 112 c 0,33,34
 229 212 229 212 229 349 c 0,35,36
 229 409 229 409 247 475 c 0,37,38
 293 646 293 646 422 753 c 128,-1,39
 551 860 551 860 711 889 c 1,40,41
 649 918 649 918 612 961 c 0,42,43
 560 1022 560 1022 560 1108 c 0,44,45
 560 1151 560 1151 573 1199 c 0,46,47
 611 1339 611 1339 768 1437 c 0,48,49
 919 1530 919 1530 1129 1530 c 0,50,51
 1285 1530 1285 1530 1378 1426 c 0,52,53
 1441 1355 1441 1355 1441 1264 c 0,54,55
 1441 1168 1441 1168 1380 1106 c 0,56,57
 1328 1053 1328 1053 1250 1053 c 128,-1,58
 1172 1053 1172 1053 1121 1103 c 128,-1,59
 1070 1153 1070 1153 1070 1232 c 0,60,61
 1070 1320 1070 1320 1130 1368 c 0,62,63
 1173 1403 1173 1403 1237 1408 c 1,0,1
EndSplineSet
Validated: 1
EndChar

StartChar: F
Encoding: 70 70 40
Width: 1248
GlyphClass: 2
Flags: W
HStem: -20 144<147.651 381> 586 120<236.543 397 749 1157.46> 1425 105<1081.45 1340.16>
VStem: 92 15<193.977 230> 1185 366<1113.69 1349.51>
DStem2: 235.013 -20 554.883 -20 0.258819 0.965926<160.252 627.276 834.292 1293.9>
LayerCount: 2
Fore
SplineSet
300 -20 m 0,0,1
 150 -20 150 -20 102 84 c 0,2,3
 84 123 84 123 84 168 c 0,4,5
 84 198 84 198 92 230 c 1,6,-1
 107 230 l 1,7,8
 120 124 120 124 197 124 c 128,-1,9
 274 124 274 124 302 230 c 2,10,-1
 397 586 l 1,11,-1
 256 586 l 2,12,13
 223 586 223 586 223 608 c 0,14,15
 223 614 223 614 225 621 c 2,16,-1
 239 671 l 2,17,18
 249 706 249 706 288 706 c 2,19,-1
 429 706 l 1,20,-1
 496 956 l 2,21,22
 572 1239 572 1239 765 1380 c 0,23,24
 970 1530 970 1530 1193 1530 c 0,25,26
 1400 1530 1400 1530 1504 1386 c 0,27,28
 1551 1321 1551 1321 1551 1247 c 0,29,30
 1551 1157 1551 1157 1495 1100 c 0,31,32
 1443 1047 1443 1047 1366.5 1047 c 128,-1,33
 1290 1047 1290 1047 1236 1102 c 0,34,35
 1185 1154 1185 1154 1185 1232 c 0,36,37
 1185 1314 1185 1314 1240 1360 c 0,38,39
 1284 1397 1284 1397 1343 1403 c 1,40,41
 1289 1425 1289 1425 1223 1425 c 0,42,43
 1141 1425 1141 1425 1060 1368 c 0,44,45
 896 1253 896 1253 816 955 c 2,46,-1
 749 706 l 1,47,-1
 1138 706 l 2,48,49
 1171 706 1171 706 1171 685 c 0,50,51
 1171 678 1171 678 1169 671 c 2,52,-1
 1155 621 l 2,53,54
 1145 586 1145 586 1106 586 c 2,55,-1
 717 586 l 1,56,-1
 635 279 l 2,57,58
 599 144 599 144 552 88 c 0,59,60
 462 -20 462 -20 300 -20 c 0,0,1
EndSplineSet
Validated: 1
EndChar

StartChar: G
Encoding: 71 71 41
Width: 1466
GlyphClass: 2
Flags: W
HStem: -20 105<702.936 975.031> 586 120<959.543 1137.65> 959 368<1285.16 1427.1> 1425 105<1051.04 1377.69>
VStem: 290 336<231.796 713.658> 1221 387<1045.38 1265.27>
LayerCount: 2
Fore
SplineSet
799 -20 m 0,0,1
 511 -20 511 -20 387 142 c 0,2,3
 290 269 290 269 290 465 c 0,4,5
 290 599 290 599 332 755 c 0,6,7
 440 1156 440 1156 716 1368 c 0,8,9
 926 1529 926 1529 1216 1530 c 0,10,11
 1429 1530 1429 1530 1537 1395 c 0,12,13
 1608 1306 1608 1306 1608 1187 c 0,14,15
 1608 1087 1608 1087 1544 1022 c 0,16,17
 1482 959 1482 959 1406 959 c 0,18,19
 1328 959 1328 959 1275 1013 c 0,20,21
 1221 1067 1221 1067 1221 1144 c 128,-1,22
 1221 1221 1221 1221 1275 1276 c 0,23,24
 1325 1327 1325 1327 1392 1327 c 0,25,26
 1412 1327 1412 1327 1429 1319 c 1,27,28
 1414 1348 1414 1348 1399 1363 c 0,29,30
 1337 1425 1337 1425 1223 1425 c 0,31,32
 1072 1425 1072 1425 954 1305 c 0,33,34
 782 1131 782 1131 681 755 c 0,35,36
 626 551 626 551 626 397 c 0,37,38
 626 290 626 290 653 207 c 0,39,40
 692 85 692 85 830 85 c 0,41,42
 950 85 950 85 1048 190 c 0,43,44
 1134 282 1134 282 1163 393 c 0,45,46
 1172 428 1172 428 1172 456 c 0,47,48
 1172 586 1172 586 979 586 c 0,49,50
 946 586 946 586 946 608 c 0,51,52
 946 614 946 614 948 621 c 2,53,-1
 962 671 l 2,54,55
 972 706 972 706 1011 706 c 2,56,-1
 1256 706 l 2,57,58
 1504 706 1504 706 1504 549 c 0,59,60
 1504 517 1504 517 1494 478 c 0,61,62
 1446 300 1446 300 1282 156 c 0,63,64
 1081 -20 1081 -20 799 -20 c 0,0,1
EndSplineSet
Validated: 1
EndChar

StartChar: H
Encoding: 72 72 42
Width: 1537
GlyphClass: 2
Flags: W
HStem: -20 144<147.651 380.5 1178 1429.13> 586 121<749 1134> 1386 144<512.377 764 1562 1794.35>
VStem: 92 15<193.977 230> 590 317<1144.84 1383.68> 1035 317<126.634 365.695> 1835 15<1280 1316.02>
DStem2: 235.013 -20 554.883 -20 0.258819 0.965926<160.252 710.099 835.258 1390.47> 971.883 -20 1292.01 -20 0.258819 0.965926<296.972 627.31 752.469 1524.34>
LayerCount: 2
Fore
SplineSet
300 -20 m 0,0,1
 150 -20 150 -20 102 84 c 0,2,3
 84 123 84 123 84 168 c 0,4,5
 84 198 84 198 92 230 c 1,6,-1
 107 230 l 1,7,8
 120 124 120 124 197 124 c 128,-1,9
 274 124 274 124 302 230 c 2,10,-1
 583 1280 l 2,11,12
 590 1306 590 1306 590 1325 c 0,13,14
 590 1386 590 1386 523 1386 c 0,15,16
 453 1386 453 1386 388 1280 c 1,17,-1
 373 1280 l 1,18,19
 399 1375 399 1375 449 1431 c 0,20,21
 536 1530 536 1530 684 1530 c 0,22,23
 844 1530 844 1530 891 1427 c 0,24,25
 907 1392 907 1392 907 1344 c 0,26,27
 907 1294 907 1294 890 1231 c 2,28,-1
 749 707 l 1,29,-1
 1166 707 l 1,30,-1
 1307 1231 l 2,31,32
 1344 1368 1344 1368 1390 1422 c 0,33,34
 1482 1530 1482 1530 1642 1530 c 0,35,36
 1792 1530 1792 1530 1840 1426 c 0,37,38
 1858 1387 1858 1387 1858 1342 c 0,39,40
 1858 1312 1858 1312 1850 1280 c 1,41,-1
 1835 1280 l 1,42,43
 1822 1386 1822 1386 1745 1386 c 128,-1,44
 1668 1386 1668 1386 1640 1280 c 2,45,-1
 1359 230 l 2,46,47
 1352 204 1352 204 1352 185 c 0,48,49
 1352 124 1352 124 1418 124 c 0,50,51
 1488 124 1488 124 1554 230 c 1,52,-1
 1569 230 l 1,53,54
 1543 135 1543 135 1493 79 c 0,55,56
 1406 -20 1406 -20 1258 -20 c 0,57,58
 1098 -20 1098 -20 1050 83 c 0,59,60
 1035 116 1035 116 1035 163 c 0,61,62
 1035 215 1035 215 1052 279 c 2,63,-1
 1134 586 l 1,64,-1
 717 586 l 1,65,-1
 635 279 l 2,66,67
 599 144 599 144 552 88 c 0,68,69
 461 -20 461 -20 300 -20 c 0,0,1
EndSplineSet
Validated: 1
EndChar

StartChar: I
Encoding: 73 73 43
Width: 800
GlyphClass: 2
Flags: W
HStem: -20 144<147.651 381> 1490 20G<684.5 916.5>
VStem: 92 15<193.977 230>
DStem2: 235.013 -20 554.883 -20 0.258819 0.965926<160.252 1591.34>
LayerCount: 2
Fore
SplineSet
300 -20 m 0,0,1
 150 -20 150 -20 102 84 c 0,2,3
 84 123 84 123 84 168 c 0,4,5
 84 198 84 198 92 230 c 1,6,-1
 107 230 l 1,7,8
 120 124 120 124 197 124 c 128,-1,9
 274 124 274 124 302 230 c 2,10,-1
 623 1430 l 2,11,12
 644 1510 644 1510 725 1510 c 2,13,-1
 885 1510 l 2,14,15
 948 1510 948 1510 948 1460 c 0,16,17
 948 1447 948 1447 943 1430 c 2,18,-1
 635 279 l 2,19,20
 598 143 598 143 552 88 c 0,21,22
 462 -20 462 -20 300 -20 c 0,0,1
EndSplineSet
Validated: 1
EndChar

StartChar: J
Encoding: 74 74 44
Width: 1248
GlyphClass: 2
Flags: W
HStem: -20 105<312.844 571.742> 1386 144<960.874 1212>
VStem: 102 366<161.274 396.314> 1038 317<1145.22 1383.37>
DStem2: 682.929 -20 1002.2 -20 0.258819 0.965926<393.534 1390.49>
LayerCount: 2
Fore
SplineSet
460 -20 m 0,0,1
 253 -20 253 -20 149 124 c 0,2,3
 102 189 102 189 102 263 c 0,4,5
 102 353 102 353 158 410 c 0,6,7
 210 463 210 463 286.5 463 c 128,-1,8
 363 463 363 463 417 408 c 0,9,10
 468 356 468 356 468 278 c 0,11,12
 468 198 468 198 413 150 c 0,13,14
 369 113 369 113 310 107 c 1,15,16
 364 85 364 85 430 85 c 0,17,18
 512 85 512 85 593 142 c 0,19,20
 757 257 757 257 837 555 c 2,21,-1
 1031 1280 l 2,22,23
 1038 1306 1038 1306 1038 1325 c 0,24,25
 1038 1386 1038 1386 972 1386 c 0,26,27
 902 1386 902 1386 836 1280 c 1,28,-1
 821 1280 l 1,29,30
 847 1375 847 1375 897 1431 c 0,31,32
 984 1530 984 1530 1132 1530 c 0,33,34
 1292 1530 1292 1530 1340 1427 c 0,35,36
 1355 1394 1355 1394 1355 1347 c 0,37,38
 1355 1294 1355 1294 1338 1231 c 2,39,-1
 1156 554 l 2,40,41
 1080 271 1080 271 888 130 c 0,42,43
 684 -20 684 -20 460 -20 c 0,0,1
EndSplineSet
Validated: 1
EndChar

StartChar: K
Encoding: 75 75 45
Width: 1562
GlyphClass: 2
Flags: W
HStem: -312 163<1157.5 1443.57> -39 20G<1601.5 1627> -20 144<147.651 381> 1386 144<512.377 764>
VStem: 92 15<193.977 230> 590 317<1143.31 1383.68> 1277 364<1231.39 1466.26>
DStem2: 156.772 -312 476.642 -312 0.258819 0.965926<462.553 921.97 1063.09 1692.77> 1277 415 961 342 0.131589 -0.991304<-117.04 563.214>
LayerCount: 2
Fore
SplineSet
1431 1177 m 1,0,1
 1374 1185 1374 1185 1336 1217 c 0,2,3
 1277 1266 1277 1266 1277 1346 c 0,4,5
 1277 1423 1277 1423 1330 1476.5 c 128,-1,6
 1383 1530 1383 1530 1459 1530 c 128,-1,7
 1535 1530 1535 1530 1588 1476 c 128,-1,8
 1641 1422 1641 1422 1641 1345 c 0,9,10
 1641 1307 1641 1307 1628 1271 c 0,11,12
 1611 1224 1611 1224 1580 1181 c 0,13,14
 1369 887 1369 887 1003 662 c 1,15,16
 1244 662 1244 662 1277 415 c 2,17,-1
 1337 -37 l 2,18,19
 1352 -149 1352 -149 1438 -149 c 0,20,21
 1495 -149 1495 -149 1539 -111 c 0,22,23
 1586 -71 1586 -71 1617 -19 c 1,24,-1
 1627 -19 l 1,25,26
 1597 -141 1597 -141 1512 -218 c 0,27,28
 1409 -312 1409 -312 1267 -312 c 0,29,30
 1048 -312 1048 -312 1019 -94 c 2,31,-1
 961 342 l 2,32,33
 938 515 938 515 804 515 c 0,34,35
 699 515 699 515 635 279 c 8,36,37
 598 143 598 143 552 88 c 0,38,39
 462 -20 462 -20 300 -20 c 0,40,41
 150 -20 150 -20 102 84 c 0,42,43
 84 123 84 123 84 168 c 0,44,45
 84 198 84 198 92 230 c 1,46,-1
 107 230 l 1,47,48
 120 124 120 124 197 124 c 128,-1,49
 274 124 274 124 302 230 c 2,50,-1
 583 1280 l 2,51,52
 590 1306 590 1306 590 1325 c 0,53,54
 590 1386 590 1386 523 1386 c 0,55,56
 453 1386 453 1386 388 1280 c 1,57,-1
 373 1280 l 1,58,59
 399 1375 399 1375 449 1431 c 0,60,61
 536 1530 536 1530 684 1530 c 0,62,63
 844 1530 844 1530 891 1427 c 0,64,65
 907 1392 907 1392 907 1344 c 0,66,67
 907 1294 907 1294 890 1231 c 2,68,-1
 730 635 l 1,69,70
 1207 884 1207 884 1431 1177 c 1,0,1
EndSplineSet
Validated: 1
EndChar

StartChar: L
Encoding: 76 76 46
Width: 1338
GlyphClass: 2
Flags: W
HStem: -20 144<147.651 348> -20 105<766.746 1104.23> 35 112<580.571 831.222> 1425 105<1081.45 1340.16>
VStem: 92 15<193.977 230> 1004 364<129.566 364.584> 1185 366<1113.69 1349.51>
DStem2: 235.013 -20 554.883 -20 0.258819 0.965926<252.054 1293.9>
LayerCount: 2
Fore
SplineSet
300 -20 m 0,0,1
 150 -20 150 -20 102 84 c 0,2,3
 84 123 84 123 84 168 c 0,4,5
 84 198 84 198 92 230 c 1,6,-1
 107 230 l 1,7,8
 120 124 120 124 197 124 c 128,-1,9
 274 124 274 124 302 230 c 2,10,-1
 496 956 l 2,11,12
 572 1239 572 1239 765 1380 c 0,13,14
 970 1530 970 1530 1193 1530 c 0,15,16
 1400 1530 1400 1530 1504 1386 c 0,17,18
 1551 1321 1551 1321 1551 1247 c 0,19,20
 1551 1157 1551 1157 1495 1100 c 0,21,22
 1443 1047 1443 1047 1366.5 1047 c 128,-1,23
 1290 1047 1290 1047 1236 1102 c 0,24,25
 1185 1154 1185 1154 1185 1232 c 0,26,27
 1185 1314 1185 1314 1240 1360 c 0,28,29
 1284 1397 1284 1397 1343 1403 c 1,30,31
 1289 1425 1289 1425 1223 1425 c 0,32,33
 1141 1425 1141 1425 1060 1368 c 0,34,35
 896 1253 896 1253 816 955 c 2,36,-1
 635 279 l 2,37,38
 616 208 616 208 580 146 c 1,39,40
 608 147 608 147 638 147 c 0,41,42
 719 147 719 147 812 116 c 128,-1,43
 905 85 905 85 988 85 c 0,44,45
 1042 85 1042 85 1106 98 c 1,46,47
 1079 104 1079 104 1058 121 c 0,48,49
 1004 165 1004 165 1004 245 c 0,50,51
 1004 320 1004 320 1056 373 c 0,52,53
 1110 428 1110 428 1186 428 c 128,-1,54
 1262 428 1262 428 1315 374 c 128,-1,55
 1368 320 1368 320 1368 243 c 0,56,57
 1368 209 1368 209 1355 171 c 0,58,59
 1330 98 1330 98 1246 46 c 0,60,61
 1141 -20 1141 -20 962 -20 c 0,62,63
 855 -20 855 -20 747 8 c 0,64,65
 643 35 643 35 596 35 c 0,66,67
 541 35 541 35 488 15 c 0,68,69
 396 -20 396 -20 300 -20 c 0,0,1
EndSplineSet
Validated: 1
EndChar

StartChar: M
Encoding: 77 77 47
Width: 2086
GlyphClass: 2
Flags: W
HStem: -20 154<1764.5 2002.59> -20 104<104.34 247.537> 1370 160<628.802 913> 1429 101<2056.62 2214.52>
VStem: 52 35<127.665 220.854> 482 16<1250 1260.99> 1613 317<136.352 620.219> 2234 33<1284.48 1379.17>
DStem2: 297 216 429 214 0.385426 0.922739<-156.498 950.878> 1057 1310 730 1300 0.165592 -0.986194<-115.648 -10.7488 213.989 862.088> 1183 457 970 -40 0.578679 0.815556<0 729.448> 1617 253 1931 216 0.10552 0.994417<-20.422 737.455>
LayerCount: 2
Fore
SplineSet
192 -20 m 0,0,1
 90 -20 90 -20 61 66 c 0,2,3
 52 92 52 92 52 124 c 0,4,5
 52 171 52 171 72 230 c 1,6,-1
 87 230 l 1,7,8
 87 84 87 84 172 84 c 0,9,10
 242 84 242 84 297 216 c 2,11,-1
 736 1267 l 1,12,-1
 730 1300 l 2,13,14
 717 1370 717 1370 646 1370 c 0,15,16
 568 1370 568 1370 498 1250 c 1,17,-1
 482 1250 l 1,18,19
 503 1351 503 1351 563 1426 c 0,20,21
 646 1530 646 1530 801 1530 c 0,22,23
 1025 1530 1025 1530 1057 1310 c 2,24,-1
 1183 457 l 1,25,-1
 1830 1374 l 2,26,27
 1940 1530 1940 1530 2088 1530 c 0,28,29
 2196 1530 2196 1530 2243 1454 c 0,30,31
 2267 1416 2267 1416 2267 1369 c 0,32,33
 2267 1328 2267 1328 2249 1280 c 1,34,-1
 2234 1280 l 1,35,36
 2234 1429 2234 1429 2143 1429 c 0,37,38
 2093 1429 2093 1429 2056 1394 c 1,39,-1
 1931 216 l 2,40,41
 1930 207 1930 207 1930 199 c 0,42,43
 1930 134 1930 134 1992 134 c 0,44,45
 2063 134 2063 134 2122 230 c 1,46,-1
 2138 230 l 1,47,48
 2114 137 2114 137 2063 78 c 0,49,50
 1979 -20 1979 -20 1842 -20 c 0,51,52
 1687 -20 1687 -20 1640 67 c 0,53,54
 1613 116 1613 116 1613 193 c 0,55,56
 1613 221 1613 221 1617 253 c 2,57,-1
 1698 986 l 1,58,-1
 970 -40 l 1,59,-1
 955 -40 l 1,60,-1
 777 1046 l 1,61,-1
 429 214 l 2,62,63
 385 109 385 109 338 53 c 0,64,65
 276 -20 276 -20 192 -20 c 0,0,1
EndSplineSet
Validated: 1
EndChar

StartChar: N
Encoding: 78 78 48
Width: 1647
GlyphClass: 2
Flags: W
HStem: -20 111<126.125 281.994> 1355 175<480.5 770.5> 1419 111<1770.18 1925.88>
VStem: 78 29<145.297 230> 1945 29<1280 1364.7>
DStem2: 250.654 -40 400.654 -40 0.258819 0.965926<134.354 1249.8> 948 1359 713 1130 0.483927 -0.875108<86.6768 927.129> 1225.86 -40 1375 -40 0.258819 0.965926<599.425 1550.45>
LayerCount: 2
Fore
SplineSet
238 -20 m 0,0,1
 123 -20 123 -20 89 68 c 0,2,3
 78 97 78 97 78 134 c 0,4,5
 78 176 78 176 92 230 c 1,6,-1
 107 230 l 1,7,8
 109 91 109 91 203 91 c 0,9,10
 286 91 286 91 323 230 c 2,11,-1
 610 1303 l 1,12,13
 581 1355 581 1355 521 1355 c 0,14,15
 440 1355 440 1355 380 1250 c 1,16,-1
 365 1250 l 1,17,18
 389 1380 389 1380 484 1458 c 0,19,20
 572 1530 572 1530 683 1530 c 0,21,22
 858 1530 858 1530 948 1359 c 2,23,-1
 1381 539 l 1,24,-1
 1579 1280 l 2,25,26
 1610 1395 1610 1395 1641 1437 c 0,27,28
 1710 1530 1710 1530 1814 1530 c 0,29,30
 1929 1530 1929 1530 1963 1442 c 0,31,32
 1974 1413 1974 1413 1974 1376 c 0,33,34
 1974 1334 1974 1334 1960 1280 c 1,35,-1
 1945 1280 l 1,36,37
 1943 1419 1943 1419 1849 1419 c 0,38,39
 1766 1419 1766 1419 1729 1280 c 2,40,-1
 1375 -40 l 1,41,-1
 1360 -40 l 1,42,-1
 713 1130 l 1,43,-1
 473 230 l 2,44,45
 443 116 443 116 411 73 c 0,46,47
 343 -20 343 -20 238 -20 c 0,0,1
EndSplineSet
Validated: 1
EndChar

StartChar: P
Encoding: 80 80 49
Width: 1538
GlyphClass: 2
Flags: W
HStem: -20 144<199.651 433> 446 101<823.986 1075.23> 1410 120<866.918 1239.17>
VStem: 144 15<193.977 230> 1352 339<924.087 1305.62>
DStem2: 287.013 -20 606.883 -20 0.258819 0.965926<160.252 626.165 734.167 1275.55>
LayerCount: 2
Fore
SplineSet
352 -20 m 0,0,1
 202 -20 202 -20 154 84 c 0,2,3
 136 123 136 123 136 168 c 0,4,5
 136 198 136 198 144 230 c 1,6,-1
 159 230 l 1,7,8
 172 124 172 124 249 124 c 128,-1,9
 326 124 326 124 354 230 c 2,10,-1
 593 1125 l 2,11,12
 614 1205 614 1205 695 1205 c 2,13,-1
 855 1205 l 2,14,15
 918 1205 918 1205 918 1156 c 0,16,17
 918 1142 918 1142 913 1125 c 2,18,-1
 789 660 l 1,19,20
 817 547 817 547 936 547 c 0,21,22
 1016 547 1016 547 1089 601 c 0,23,24
 1257 724 1257 724 1328 988 c 0,25,26
 1352 1079 1352 1079 1352 1149 c 0,27,28
 1352 1231 1352 1231 1320 1287 c 0,29,30
 1250 1410 1250 1410 1037 1410 c 0,31,32
 665 1410 665 1410 313 1036 c 1,33,-1
 299 1042 l 1,34,35
 632 1530 632 1530 1173 1530 c 0,36,37
 1484 1530 1484 1530 1610 1373 c 0,38,39
 1691 1272 1691 1272 1691 1129 c 0,40,41
 1691 1070 1691 1070 1677 1003 c 0,42,43
 1636 804 1636 804 1469 649 c 0,44,45
 1251 446 1251 446 960 446 c 0,46,47
 823 446 823 446 747 505 c 1,48,-1
 687 279 l 2,49,50
 651 144 651 144 604 88 c 0,51,52
 514 -20 514 -20 352 -20 c 0,0,1
EndSplineSet
Validated: 1
EndChar

StartChar: R
Encoding: 82 82 50
Width: 1593
GlyphClass: 2
Flags: W
HStem: -313 163<1198 1475.75> -39 20G<1631.5 1658> -20 144<199.651 433> 1410 120<866.918 1239.17>
VStem: 144 15<193.977 230> 1352 337<923.764 1305.95>
DStem2: 208.504 -313 528.374 -313 0.258819 0.965926<463.588 929.5 1033.15 1578.84> 1315 289 993 263 0.159926 -0.987129<-142.306 441.082>
LayerCount: 2
Fore
SplineSet
352 -20 m 0,0,1
 202 -20 202 -20 154 84 c 0,2,3
 136 123 136 123 136 168 c 0,4,5
 136 198 136 198 144 230 c 1,6,-1
 159 230 l 1,7,8
 172 124 172 124 249 124 c 128,-1,9
 326 124 326 124 354 230 c 2,10,-1
 593 1125 l 2,11,12
 614 1205 614 1205 695 1205 c 2,13,-1
 855 1205 l 2,14,15
 918 1205 918 1205 918 1155 c 0,16,17
 918 1142 918 1142 913 1125 c 2,18,-1
 789 660 l 1,19,20
 810 547 810 547 936 547 c 0,21,22
 1016 547 1016 547 1089 601 c 0,23,24
 1257 724 1257 724 1328 988 c 0,25,26
 1352 1079 1352 1079 1352 1149 c 0,27,28
 1352 1231 1352 1231 1320 1287 c 0,29,30
 1250 1410 1250 1410 1037 1410 c 0,31,32
 665 1410 665 1410 313 1036 c 1,33,-1
 299 1042 l 1,34,35
 632 1530 632 1530 1173 1530 c 0,36,37
 1484 1530 1484 1530 1610 1373 c 0,38,39
 1689 1274 1689 1274 1689 1127 c 0,40,41
 1689 1069 1689 1069 1677 1003 c 0,42,43
 1639 802 1639 802 1469 649 c 0,44,45
 1322 517 1322 517 1150 469 c 1,46,47
 1291 439 1291 439 1315 289 c 2,48,-1
 1368 -38 l 2,49,50
 1386 -150 1386 -150 1469 -150 c 0,51,52
 1524 -150 1524 -150 1569.5 -111.5 c 128,-1,53
 1615 -73 1615 -73 1648 -19 c 1,54,-1
 1658 -19 l 1,55,56
 1613 -155 1613 -155 1537 -223 c 0,57,58
 1438 -313 1438 -313 1310 -313 c 0,59,60
 1086 -313 1086 -313 1051 -95 c 2,61,-1
 993 263 l 2,62,63
 967 422 967 422 836 455 c 0,64,65
 786 468 786 468 747 505 c 1,66,-1
 687 279 l 2,67,68
 651 144 651 144 604 88 c 0,69,70
 514 -20 514 -20 352 -20 c 0,0,1
EndSplineSet
Validated: 1
EndChar

StartChar: S
Encoding: 83 83 51
Width: 1381
GlyphClass: 2
Flags: W
HStem: -20 106<429.87 825.349> 172 369<373.034 511.821> 1423 107<950.894 1268.67>
VStem: 204 375<238.372 468.859> 518 288<1059 1235.2> 1078 318<360.639 596.952> 1097 373<1106.09 1332.18>
DStem2: 980 986 730 778 0.902391 -0.430917<-198.903 235.433>
LayerCount: 2
Fore
SplineSet
652.5 -20 m 128,-1,1
 397 -20 397 -20 279 122 c 0,2,3
 204 212 204 212 204 320 c 0,4,5
 204 423 204 423 262 485 c 0,6,7
 315 541 315 541 395 541 c 128,-1,8
 475 541 475 541 527 488 c 128,-1,9
 579 435 579 435 579 355 c 0,10,11
 579 273 579 273 517 220 c 0,12,13
 462 172 462 172 372 172 c 1,14,15
 458 86 458 86 645 86 c 0,16,17
 802 86 802 86 946 209 c 0,18,19
 1060 306 1060 306 1076 443 c 0,20,21
 1078 460 1078 460 1078 475 c 0,22,23
 1078 613 1078 613 888 703 c 2,24,-1
 730 778 l 2,25,26
 518 879 518 879 518 1059 c 0,27,28
 518 1096 518 1096 527 1137 c 0,29,30
 566 1312 566 1312 748 1431 c 0,31,32
 900 1530 900 1530 1101 1530 c 0,33,34
 1318 1530 1318 1530 1422 1381 c 0,35,36
 1470 1312 1470 1312 1470 1232 c 0,37,38
 1470 1148 1470 1148 1411 1089 c 0,39,40
 1355 1032 1355 1032 1276 1032 c 0,41,42
 1200 1032 1200 1032 1149 1086 c 0,43,44
 1097 1141 1097 1141 1097 1215 c 0,45,46
 1097 1291 1097 1291 1149 1340 c 0,47,48
 1197 1385 1197 1385 1270 1388 c 1,49,50
 1209 1423 1209 1423 1131 1423 c 0,51,52
 1013 1423 1013 1423 925 1362 c 0,53,54
 834 1299 834 1299 810 1199 c 0,55,56
 806 1182 806 1182 806 1165 c 0,57,58
 806 1069 806 1069 980 986 c 2,59,-1
 1158 901 l 2,60,61
 1396 787 1396 787 1396 562 c 0,62,63
 1396 518 1396 518 1387 470 c 0,64,65
 1349 266 1349 266 1127 122 c 0,66,0
 908 -20 908 -20 652.5 -20 c 128,-1,1
EndSplineSet
Validated: 1
EndChar

StartChar: T
Encoding: 84 84 52
Width: 1416
GlyphClass: 2
Flags: W
HStem: -20 144<477.651 711> 1390 120<799.27 1485.52>
VStem: 422 15<193.977 230> 1352 369<1120.06 1327.95>
DStem2: 565.013 -20 884.883 -20 0.258819 0.965926<160.252 1275.41>
LayerCount: 2
Fore
SplineSet
630 -20 m 0,0,1
 480 -20 480 -20 432 84 c 0,2,3
 414 123 414 123 414 168 c 0,4,5
 414 198 414 198 422 230 c 1,6,-1
 437 230 l 1,7,8
 450 124 450 124 527 124 c 128,-1,9
 604 124 604 124 632 230 c 2,10,-1
 871 1125 l 2,11,12
 892 1205 892 1205 973 1205 c 2,13,-1
 1133 1205 l 2,14,15
 1195 1205 1195 1205 1195 1155 c 0,16,17
 1195 1142 1195 1142 1191 1125 c 2,18,-1
 965 279 l 2,19,20
 929 144 929 144 882 88 c 0,21,22
 792 -20 792 -20 630 -20 c 0,0,1
1105 1510 m 2,23,-1
 1374 1510 l 2,24,25
 1578 1510 1578 1510 1673 1391 c 0,26,27
 1721 1331 1721 1331 1721 1250 c 0,28,29
 1721 1167 1721 1167 1663 1104 c 0,30,31
 1609 1045 1609 1045 1530 1045 c 0,32,33
 1449 1045 1449 1045 1400 1097 c 0,34,35
 1352 1147 1352 1147 1352 1212 c 0,36,37
 1352 1287 1352 1287 1405 1337 c 0,38,39
 1439 1370 1439 1370 1489 1381 c 1,40,41
 1446 1390 1446 1390 1373 1390 c 2,42,-1
 1064 1390 l 2,43,44
 583 1390 583 1390 296 1015 c 1,45,-1
 284 1023 l 1,46,47
 546 1510 546 1510 1105 1510 c 2,23,-1
EndSplineSet
Validated: 1
EndChar

StartChar: U
Encoding: 85 85 53
Width: 1600
GlyphClass: 2
Flags: W
HStem: -20 142<709.817 937.267 1291.97 1492.13> 1386 144<512.874 764> 1490 20G<1484.5 1716>
VStem: 335 321<172.901 516.711> 590 317<1147.43 1383.37>
DStem2: 234.207 -20 554.528 -20 0.258819 0.965926<418.123 1390.68> 1034.47 -20 1355.01 -20 0.258819 0.965926<297.078 1590.48>
LayerCount: 2
Fore
SplineSet
720 -20 m 0,0,1
 456 -20 456 -20 368 144 c 0,2,3
 335 205 335 205 335 288 c 0,4,5
 335 357 335 357 358 442 c 2,6,-1
 583 1280 l 2,7,8
 590 1306 590 1306 590 1325 c 0,9,10
 590 1386 590 1386 524 1386 c 0,11,12
 454 1386 454 1386 388 1280 c 1,13,-1
 373 1280 l 1,14,15
 399 1375 399 1375 449 1431 c 0,16,17
 536 1530 536 1530 684 1530 c 0,18,19
 844 1530 844 1530 892 1427 c 0,20,21
 907 1394 907 1394 907 1347 c 0,22,23
 907 1294 907 1294 890 1231 c 2,24,-1
 681 452 l 2,25,26
 656 357 656 357 656 298 c 0,27,28
 656 271 656 271 661 250 c 0,29,30
 695 122 695 122 831 122 c 0,31,32
 970 122 970 122 1070 245 c 0,33,34
 1124 311 1124 311 1161 452 c 2,35,-1
 1423 1430 l 2,36,37
 1444 1510 1444 1510 1525 1510 c 2,38,-1
 1685 1510 l 2,39,40
 1747 1510 1747 1510 1747 1460 c 0,41,42
 1747 1447 1747 1447 1743 1430 c 2,43,-1
 1422 230 l 2,44,45
 1415 204 1415 204 1415 185 c 0,46,47
 1415 124 1415 124 1481 124 c 0,48,49
 1551 124 1551 124 1617 230 c 1,50,-1
 1632 230 l 1,51,52
 1606 135 1606 135 1556 79 c 0,53,54
 1469 -20 1469 -20 1321 -20 c 0,55,56
 1167 -20 1167 -20 1113 83 c 0,57,58
 1103 102 1103 102 1101 129 c 1,59,60
 928 -20 928 -20 720 -20 c 0,0,1
EndSplineSet
Validated: 1
EndChar

StartChar: V
Encoding: 86 86 54
Width: 1565
GlyphClass: 2
Flags: W
HStem: -20 149<725.692 1009.54> 1386 144<512.874 764.5>
VStem: 344 321<186.989 549.711> 590 317<1145.01 1383.37> 1425 280<841.183 1220.5>
DStem2: 234.647 -20 554.647 -20 0.258819 0.965926<441.05 1390.57>
LayerCount: 2
Fore
SplineSet
758 -20 m 24,0,1
 445 -20 445 -20 365 175 c 0,2,3
 344 226 344 226 344 298 c 0,4,5
 344 388 344 388 378 515 c 2,6,-1
 583 1280 l 2,7,8
 590 1306 590 1306 590 1325 c 0,9,10
 590 1386 590 1386 524 1386 c 0,11,12
 454 1386 454 1386 388 1280 c 1,13,-1
 373 1280 l 1,14,15
 399 1375 399 1375 449 1431 c 0,16,17
 536 1530 536 1530 684 1530 c 0,18,19
 845 1530 845 1530 892 1427 c 0,20,21
 907 1394 907 1394 907 1347 c 0,22,23
 907 1294 907 1294 890 1231 c 2,24,-1
 698 515 l 2,25,26
 665 392 665 392 665 319 c 0,27,28
 665 288 665 288 671 265 c 0,29,30
 707 129 707 129 846 129 c 0,31,32
 976 129 976 129 1081 208 c 0,33,34
 1180 282 1180 282 1276 426 c 0,35,36
 1368 564 1368 564 1406 730 c 0,37,38
 1425 813 1425 813 1425 913 c 0,39,40
 1425 1090 1425 1090 1332 1182 c 0,41,42
 1257 1255 1257 1255 1257 1340 c 0,43,44
 1257 1424 1257 1424 1312 1477 c 128,-1,45
 1367 1530 1367 1530 1462 1530 c 0,46,47
 1592 1530 1592 1530 1655 1397 c 0,48,49
 1705 1292 1705 1292 1705 1149 c 0,50,51
 1705 1007 1705 1007 1656 825 c 0,52,53
 1575 522 1575 522 1409 324 c 0,54,55
 1122 -20 1122 -20 758 -20 c 24,0,1
EndSplineSet
Validated: 1
EndChar

StartChar: W
Encoding: 87 87 55
Width: 2365
GlyphClass: 2
Flags: W
HStem: -20 142<709.817 954.876 1529.6 1809.54> 1386 144<512.874 764> 1490 20G<1484.5 1716.5>
VStem: 335 321<172.901 516.711> 590 317<1147.43 1383.37> 2225 280<841.183 1220.5>
DStem2: 234.207 -20 554.528 -20 0.258819 0.965926<418.123 1390.68> 1034.47 -20 1354.47 -20 0.258819 0.965926<441.124 1590.48>
LayerCount: 2
Fore
SplineSet
720 -20 m 0,0,1
 456 -20 456 -20 368 144 c 0,2,3
 335 205 335 205 335 288 c 0,4,5
 335 357 335 357 358 442 c 2,6,-1
 583 1280 l 2,7,8
 590 1306 590 1306 590 1325 c 0,9,10
 590 1386 590 1386 524 1386 c 0,11,12
 454 1386 454 1386 388 1280 c 1,13,-1
 373 1280 l 1,14,15
 399 1375 399 1375 449 1431 c 0,16,17
 536 1530 536 1530 684 1530 c 0,18,19
 844 1530 844 1530 892 1427 c 0,20,21
 907 1394 907 1394 907 1347 c 0,22,23
 907 1294 907 1294 890 1231 c 2,24,-1
 681 452 l 2,25,26
 656 357 656 357 656 298 c 0,27,28
 656 271 656 271 661 250 c 0,29,30
 695 122 695 122 831 122 c 0,31,32
 969 122 969 122 1070 245 c 0,33,34
 1124 311 1124 311 1161 452 c 2,35,-1
 1423 1430 l 2,36,37
 1444 1510 1444 1510 1525 1510 c 2,38,-1
 1685 1510 l 2,39,40
 1748 1510 1748 1510 1748 1461 c 0,41,42
 1748 1447 1748 1447 1743 1430 c 2,43,-1
 1498 515 l 2,44,45
 1465 393 1465 393 1465 319 c 0,46,47
 1465 288 1465 288 1471 265 c 0,48,49
 1507 129 1507 129 1646 129 c 0,50,51
 1776 129 1776 129 1881 208 c 0,52,53
 1996 294 1996 294 2076 426 c 24,54,55
 2173 586 2173 586 2206 730 c 0,56,57
 2225 813 2225 813 2225 913 c 0,58,59
 2225 1090 2225 1090 2132 1182 c 0,60,61
 2057 1255 2057 1255 2057 1340 c 0,62,63
 2057 1424 2057 1424 2112 1477 c 128,-1,64
 2167 1530 2167 1530 2262 1530 c 0,65,66
 2392 1530 2392 1530 2455 1397 c 0,67,68
 2505 1292 2505 1292 2505 1149 c 0,69,70
 2505 1007 2505 1007 2456 825 c 0,71,72
 2375 522 2375 522 2209 324 c 0,73,74
 1922 -20 1922 -20 1558 -20 c 0,75,76
 1245 -20 1245 -20 1165 175 c 1,77,78
 993 -20 993 -20 720 -20 c 0,0,1
EndSplineSet
Validated: 1
EndChar

StartChar: X
Encoding: 88 88 56
Width: 1409
GlyphClass: 2
Flags: W
HStem: -20 148<1021 1298.99> -20 116<140.014 390.344> 1175 355<1389.15 1511.73> 1382 148<515.333 792.5>
VStem: 93 15<199.118 226> 1323 367<1231.71 1464.5>
DStem2: 930 1349 622 1310 0.221511 -0.975158<-110.696 723.15 834.517 894.845 1013.69 1254.51>
LayerCount: 2
Fore
SplineSet
244.5 -20 m 128,-1,1
 145 -20 145 -20 105 48 c 0,2,3
 80 90 80 90 80 144 c 0,4,5
 80 182 80 182 93 226 c 1,6,-1
 108 226 l 1,7,8
 125 96 125 96 244 96 c 0,9,10
 305 96 305 96 367 128 c 0,11,12
 613 255 613 255 823 426 c 1,13,-1
 622 1310 l 2,14,15
 606 1382 606 1382 530 1382 c 0,16,17
 446 1382 446 1382 389 1284 c 1,18,-1
 374 1284 l 1,19,20
 397 1373 397 1373 451 1433 c 0,21,22
 539 1530 539 1530 696 1530 c 0,23,24
 889 1530 889 1530 930 1349 c 2,25,-1
 1091 644 l 1,26,27
 1351 879 1351 879 1514 1175 c 1,28,29
 1428 1175 1428 1175 1375.5 1221 c 128,-1,30
 1323 1267 1323 1267 1323 1344 c 0,31,32
 1323 1420 1323 1420 1377 1475 c 128,-1,33
 1431 1530 1431 1530 1507 1530 c 128,-1,34
 1583 1530 1583 1530 1638 1475 c 0,35,36
 1690 1423 1690 1423 1690 1335 c 0,37,38
 1690 1219 1690 1219 1563 1020 c 0,39,40
 1404 771 1404 771 1120 512 c 1,41,-1
 1187 220 l 2,42,43
 1208 128 1208 128 1293 128 c 0,44,45
 1365 128 1365 128 1425 226 c 1,46,-1
 1440 226 l 1,47,48
 1417 136 1417 136 1363 76 c 0,49,50
 1276 -20 1276 -20 1118 -20 c 0,51,52
 924 -20 924 -20 883 161 c 2,53,-1
 853 292 l 1,54,55
 621 123 621 123 433 26 c 0,56,0
 344 -20 344 -20 244.5 -20 c 128,-1,1
EndSplineSet
Validated: 1
EndChar

StartChar: Y
Encoding: 89 89 57
Width: 1540
GlyphClass: 2
Flags: W
HStem: -20 105<563.073 863.416> 492 142<818.537 1038.24> 1386 144<512.874 764.5> 1490 20G<1424.5 1656.5>
VStem: 352 366<160.493 396.314> 462 324<666.017 992.688> 590 317<1140.42 1383.37>
DStem2: 234.415 -20 554.735 -20 0.258819 0.965926<925.83 1390.63> 974.929 -20 1294.2 -20 0.258819 0.965926<388.425 635.543 748.385 1591.46>
LayerCount: 2
Fore
SplineSet
726 -20 m 0,0,1
 503 -20 503 -20 399 124 c 0,2,3
 352 189 352 189 352 263 c 0,4,5
 352 353 352 353 408 410 c 0,6,7
 460 463 460 463 536.5 463 c 128,-1,8
 613 463 613 463 667 408 c 0,9,10
 718 356 718 356 718 278 c 0,11,12
 718 196 718 196 663 150 c 0,13,14
 619 113 619 113 560 107 c 1,15,16
 614 85 614 85 691 85 c 0,17,18
 804 85 804 85 885 142 c 0,19,20
 1053 260 1053 260 1129 555 c 2,21,-1
 1139 594 l 1,22,23
 995 492 995 492 827 492 c 0,24,25
 584 492 584 492 498 631 c 0,26,27
 462 689 462 689 462 770 c 0,28,29
 462 830 462 830 482 904 c 2,30,-1
 583 1280 l 2,31,32
 590 1306 590 1306 590 1325 c 0,33,34
 590 1386 590 1386 524 1386 c 0,35,36
 454 1386 454 1386 388 1280 c 1,37,-1
 373 1280 l 1,38,39
 399 1375 399 1375 449 1431 c 0,40,41
 536 1530 536 1530 684 1530 c 0,42,43
 845 1530 845 1530 892 1427 c 0,44,45
 907 1394 907 1394 907 1347 c 0,46,47
 907 1294 907 1294 890 1231 c 2,48,-1
 805 914 l 2,49,50
 786 843 786 843 786 789 c 0,51,52
 786 761 786 761 791 737 c 0,53,54
 811 634 811 634 940 634 c 0,55,56
 1064 634 1064 634 1140 732 c 0,57,58
 1196 805 1196 805 1225 914 c 2,59,-1
 1363 1430 l 2,60,61
 1384 1510 1384 1510 1465 1510 c 2,62,-1
 1625 1510 l 2,63,64
 1688 1510 1688 1510 1688 1460 c 0,65,66
 1688 1449 1688 1449 1683 1430 c 2,67,-1
 1448 554 l 2,68,69
 1372 271 1372 271 1180 130 c 0,70,71
 975 -20 975 -20 726 -20 c 0,0,1
EndSplineSet
Validated: 1
EndChar

StartChar: Z
Encoding: 90 90 58
Width: 1520
GlyphClass: 2
Flags: W
HStem: -20 113<731.722 1194.04> 1354 120<1087.7 1241> 1417 113<737.377 1119.02>
VStem: 473 364<1132.42 1367.43> 1094 364<141.566 376.584>
DStem2: 98 -8 606 156 0.642836 0.766004<452.185 1778.06>
LayerCount: 2
Fore
SplineSet
104 -20 m 1,0,-1
 98 -8 l 1,1,-1
 1241 1354 l 1,2,3
 1153 1356 1153 1356 1076 1388 c 0,4,5
 1006 1417 1006 1417 916 1417 c 0,6,7
 824 1417 824 1417 735 1399 c 1,8,9
 762 1393 762 1393 783 1376 c 0,10,11
 837 1332 837 1332 837 1252 c 0,12,13
 837 1177 837 1177 785 1124 c 0,14,15
 731 1069 731 1069 655 1069 c 128,-1,16
 579 1069 579 1069 526 1123 c 128,-1,17
 473 1177 473 1177 473 1254 c 0,18,19
 473 1288 473 1288 486 1326 c 0,20,21
 511 1399 511 1399 595 1451 c 0,22,23
 723 1530 723 1530 951 1530 c 0,24,25
 1046 1530 1046 1530 1177.5 1502 c 128,-1,26
 1309 1474 1309 1474 1404 1474 c 0,27,28
 1564 1474 1564 1474 1740 1530 c 1,29,-1
 1747 1518 l 1,30,-1
 606 156 l 1,31,32
 696 149 696 149 798 122 c 0,33,34
 908 93 908 93 1022 93 c 0,35,36
 1112 93 1112 93 1196 110 c 1,37,38
 1169 116 1169 116 1148 133 c 0,39,40
 1094 177 1094 177 1094 257 c 0,41,42
 1094 332 1094 332 1146 385 c 0,43,44
 1200 440 1200 440 1276 440 c 128,-1,45
 1352 440 1352 440 1405 386 c 128,-1,46
 1458 332 1458 332 1458 255 c 0,47,48
 1458 221 1458 221 1445 183 c 0,49,50
 1420 110 1420 110 1336 58 c 0,51,52
 1210 -20 1210 -20 1002 -20 c 0,53,54
 839 -20 839 -20 700.5 8 c 128,-1,55
 562 36 562 36 419 36 c 128,-1,56
 276 36 276 36 104 -20 c 1,0,-1
EndSplineSet
Validated: 1
EndChar

StartChar: bracketleft
Encoding: 91 91 59
Width: 885
GlyphClass: 2
Flags: W
HStem: -205 131<530 791.587> 1579 131<973 1269.59>
DStem2: 195.244 -205 494.899 -205 0.258819 0.965926<213.178 1924.51>
LayerCount: 2
Fore
SplineSet
778 1710 m 2,0,1
 1258 1710 l 2,2,3
 1286 1710 1286 1710 1286 1689 c 0,4,5
 1286 1682 1286 1682 1284 1675 c 2,6,-1
 1267 1614 l 2,7,8
 1257 1579 1257 1579 1223 1579 c 2,9,-1
 973 1579 l 1,10,-1
 530 -74 l 1,11,-1
 780 -74 l 2,12,13
 808 -74 808 -74 808 -95 c 0,14,15
 808 -102 808 -102 806 -109 c 2,16,-1
 789 -170 l 2,17,18
 779 -205 779 -205 745 -205 c 2,19,-1
 265 -205 l 2,20,21
 210 -205 210 -205 210 -162 c 0,22,23
 210 -150 210 -150 214 -135 c 2,24,-1
 689 1640 l 2,25,26
 708 1710 708 1710 778 1710 c 2,0,1
EndSplineSet
Validated: 1
EndChar

StartChar: backslash
Encoding: 92 92 60
Width: 1171
GlyphClass: 2
Flags: W
DStem2: 1143 -7 936 -110 0.295569 -0.955321<-1699 34.7309>
LayerCount: 2
Fore
SplineSet
593 1662 m 0,0,1
 628 1662 628 1662 640 1622 c 2,2,-1
 1143 -7 l 2,3,4
 1149 -26 1149 -26 1149 -42 c 0,5,6
 1149 -78 1149 -78 1090 -107 c 2,7,-1
 1028 -137 l 2,8,9
 1001 -150 1001 -150 980 -150 c 0,10,11
 948 -150 948 -150 936 -110 c 2,12,-1
 432 1519 l 2,13,14
 426 1538 426 1538 426 1550 c 0,15,16
 426 1590 426 1590 486 1619 c 2,17,-1
 548 1649 l 2,18,19
 575 1662 575 1662 593 1662 c 0,0,1
EndSplineSet
Validated: 1
EndChar

StartChar: bracketright
Encoding: 93 93 61
Width: 885
GlyphClass: 2
Flags: W
HStem: -205 131<18.4131 315> 1579 131<496.413 758>
DStem2: 279.899 -205 580.244 -205 0.258819 0.965926<135.621 1846.95>
LayerCount: 2
Fore
SplineSet
1023 1710 m 2,0,1
 1078 1710 1078 1710 1078 1667 c 0,2,3
 1078 1655 1078 1655 1074 1640 c 2,4,-1
 599 -135 l 2,5,6
 580 -205 580 -205 510 -205 c 2,7,-1
 30 -205 l 2,8,9
 2 -205 2 -205 2 -184 c 0,10,11
 2 -177 2 -177 4 -170 c 2,12,-1
 21 -109 l 2,13,14
 31 -74 31 -74 65 -74 c 2,15,-1
 315 -74 l 1,16,-1
 758 1579 l 1,17,-1
 508 1579 l 2,18,19
 480 1579 480 1579 480 1600 c 0,20,21
 480 1607 480 1607 482 1614 c 2,22,-1
 499 1675 l 2,23,24
 509 1710 509 1710 543 1710 c 2,25,-1
 1023 1710 l 2,0,1
EndSplineSet
Validated: 1
EndChar

StartChar: asciicircum
Encoding: 94 94 62
Width: 789
GlyphClass: 2
Flags: W
HStem: 1043 487<831.562 944.5>
DStem2: 354 1114 508 1059 0.643878 0.765128<24.6134 458.976> 947 1480 765 1368 0.270831 -0.962627<58.523 362.647>
LayerCount: 2
Fore
SplineSet
745 1530 m 2,0,-1
 890 1530 l 2,1,2
 933 1530 933 1530 947 1480 c 2,3,-1
 1039 1153 l 2,4,5
 1043 1139 1043 1139 1043 1130 c 0,6,7
 1043 1098 1043 1098 1003 1085 c 2,8,-1
 899 1050 l 2,9,10
 884 1045 884 1045 871 1045 c 0,11,12
 841 1045 841 1045 836 1068 c 2,13,-1
 765 1368 l 1,14,-1
 508 1059 l 2,15,16
 495 1043 495 1043 476 1043 c 0,17,18
 472 1043 472 1043 457 1046 c 2,19,-1
 355 1067 l 2,20,21
 341 1070 341 1070 341 1086 c 0,22,23
 341 1099 341 1099 354 1114 c 2,24,-1
 662 1480 l 2,25,26
 704 1530 704 1530 745 1530 c 2,0,-1
EndSplineSet
Validated: 1
EndChar

StartChar: underscore
Encoding: 95 95 63
Width: 1353
GlyphClass: 2
Flags: W
HStem: -216 144<119.172 1156.83>
LayerCount: 2
Fore
SplineSet
171 -72 m 2,0,-1
 1144 -72 l 2,1,2
 1175 -72 1175 -72 1175 -97 c 0,3,4
 1175 -104 1175 -104 1173 -112 c 2,5,-1
 1156 -176 l 2,6,7
 1145 -216 1145 -216 1105 -216 c 2,8,-1
 132 -216 l 2,9,10
 101 -216 101 -216 101 -193 c 0,11,12
 101 -184 101 -184 103 -176 c 2,13,-1
 120 -112 l 2,14,15
 131 -72 131 -72 171 -72 c 2,0,-1
EndSplineSet
Validated: 1
EndChar

StartChar: grave
Encoding: 96 96 64
Width: 466
GlyphClass: 2
Flags: W
HStem: 1160 348
VStem: 422 311
LayerCount: 2
Fore
SplineSet
548 1508 m 0,0,1
 616 1508 616 1508 644 1430 c 2,2,-1
 733 1184 l 1,3,-1
 707 1160 l 1,4,-1
 478 1290 l 2,5,6
 422 1322 422 1322 422 1388 c 0,7,8
 422 1436 422 1436 453 1471 c 0,9,10
 486 1508 486 1508 548 1508 c 0,0,1
EndSplineSet
Validated: 1
EndChar

StartChar: a
Encoding: 97 97 65
Width: 1319
GlyphClass: 2
Flags: W
HStem: -20 144<975 1221.18> -20 105<591.669 783.464> 1015 105<818.774 1009.92> 1080 20G<1134.5 1345.5>
VStem: 228 313<164.527 577.658> 1027 350<885.628 1075.5>
DStem2: 793.516 -20 1094.01 -20 0.258819 0.965926<291.89 948.501 1097.77 1167.49>
LayerCount: 2
Fore
SplineSet
599 -20 m 0,0,1
 388 -20 388 -20 280 151 c 0,2,3
 228 235 228 235 228 353 c 0,4,5
 228 442 228 442 257 550 c 0,6,7
 321 788 321 788 488 942 c 0,8,9
 681 1120 681 1120 910 1120 c 0,10,11
 1023 1120 1023 1120 1079 1040 c 1,12,13
 1095 1100 1095 1100 1174 1100 c 2,14,-1
 1314 1100 l 2,15,16
 1377 1100 1377 1100 1377 1051 c 0,17,18
 1377 1037 1377 1037 1372 1020 c 2,19,-1
 1161 230 l 2,20,21
 1154 204 1154 204 1154 185 c 0,22,23
 1154 124 1154 124 1220 124 c 0,24,25
 1290 124 1290 124 1356 230 c 1,26,-1
 1371 230 l 1,27,28
 1344 135 1344 135 1292 80 c 0,29,30
 1198 -20 1198 -20 1043 -20 c 0,31,32
 907 -20 907 -20 862 83 c 1,33,34
 757 -20 757 -20 599 -20 c 0,0,1
684 85 m 0,35,36
 748 85 748 85 805 148 c 0,37,38
 853 201 853 201 887 327 c 2,39,-1
 1006 773 l 2,40,41
 1027 850 1027 850 1027 901 c 0,42,43
 1027 932 1027 932 1019 952 c 0,44,45
 997 1015 997 1015 933 1015 c 0,46,47
 834 1015 834 1015 727 879 c 0,48,49
 634 760 634 760 577 550 c 0,50,51
 541 415 541 415 541 314 c 0,52,53
 541 263 541 263 550 221 c 0,54,55
 581 85 581 85 684 85 c 0,35,36
EndSplineSet
Validated: 1
EndChar

StartChar: c
Encoding: 99 99 66
Width: 1197
GlyphClass: 2
Flags: W
HStem: -20 106<610.51 915.563> 607 358<1013.72 1134> 1015 105<830.774 1126.13>
VStem: 230 314<173.441 575.186> 953 366<678.399 907.25>
LayerCount: 2
Fore
SplineSet
658 -20 m 0,0,1
 410 -20 410 -20 304 124 c 0,2,3
 230 225 230 225 230 366 c 0,4,5
 230 451 230 451 257 550 c 0,6,7
 326 808 326 808 533 972 c 0,8,9
 720 1120 720 1120 976 1120 c 0,10,11
 1155 1120 1155 1120 1253 997 c 0,12,13
 1319 914 1319 914 1319 804 c 0,14,15
 1319 727 1319 727 1265.5 667 c 128,-1,16
 1212 607 1212 607 1135 607 c 0,17,18
 1054 607 1054 607 1002 662 c 0,19,20
 953 714 953 714 953 793 c 0,21,22
 953 870 953 870 1010 922 c 0,23,24
 1054 962 1054 962 1134 965 c 1,25,26
 1073 1015 1073 1015 980 1015 c 0,27,28
 842 1015 842 1015 737 886 c 0,29,30
 638 764 638 764 581 550 c 0,31,32
 544 411 544 411 544 316 c 0,33,34
 544 271 544 271 552 235 c 0,35,36
 586 86 586 86 744 86 c 0,37,38
 851 86 851 86 941 140 c 0,39,40
 1043 201 1043 201 1128 284 c 1,41,-1
 1141 284 l 1,42,-1
 1099 128 l 1,43,44
 912 -20 912 -20 658 -20 c 0,0,1
EndSplineSet
Validated: 1
EndChar

StartChar: d
Encoding: 100 100 67
Width: 1319
GlyphClass: 2
Flags: W
HStem: -20 144<975 1221.18> -20 105<591.669 783.464> 1015 105<818.774 1009.92> 1386 144<1080.91 1332>
VStem: 228 313<164.527 577.658> 1149 300<1145.15 1383.72>
DStem2: 793.516 -20 1094.01 -20 0.258819 0.965926<291.89 948.501 1097.77 1390.6>
LayerCount: 2
Fore
SplineSet
599 -20 m 0,0,1
 388 -20 388 -20 280 151 c 0,2,3
 228 235 228 235 228 353 c 0,4,5
 228 442 228 442 257 550 c 0,6,7
 321 788 321 788 488 942 c 0,8,9
 681 1120 681 1120 910 1120 c 0,10,11
 1023 1120 1023 1120 1079 1040 c 1,12,-1
 1142 1280 l 2,13,14
 1149 1306 1149 1306 1149 1325 c 0,15,16
 1149 1386 1149 1386 1082 1386 c 0,17,18
 1012 1386 1012 1386 947 1280 c 1,19,-1
 932 1280 l 1,20,21
 959 1375 959 1375 1011 1430 c 0,22,23
 1105 1530 1105 1530 1260 1530 c 0,24,25
 1404 1530 1404 1530 1440 1427 c 0,26,27
 1449 1400 1449 1400 1449 1362 c 0,28,29
 1449 1307 1449 1307 1429 1231 c 2,30,-1
 1161 230 l 2,31,32
 1154 204 1154 204 1154 185 c 0,33,34
 1154 124 1154 124 1220 124 c 0,35,36
 1290 124 1290 124 1356 230 c 1,37,-1
 1371 230 l 1,38,39
 1344 135 1344 135 1292 80 c 0,40,41
 1198 -20 1198 -20 1043 -20 c 0,42,43
 907 -20 907 -20 862 83 c 1,44,45
 757 -20 757 -20 599 -20 c 0,0,1
684 85 m 0,46,47
 748 85 748 85 805 148 c 0,48,49
 853 201 853 201 887 327 c 2,50,-1
 1006 773 l 2,51,52
 1027 850 1027 850 1027 901 c 0,53,54
 1027 932 1027 932 1019 952 c 0,55,56
 997 1015 997 1015 933 1015 c 0,57,58
 834 1015 834 1015 727 879 c 0,59,60
 634 760 634 760 577 550 c 0,61,62
 541 415 541 415 541 314 c 0,63,64
 541 263 541 263 550 221 c 0,65,66
 581 85 581 85 684 85 c 0,46,47
EndSplineSet
Validated: 1
EndChar

StartChar: e
Encoding: 101 101 68
Width: 1259
GlyphClass: 2
Flags: W
HStem: -20 106<610.015 915.563> 1025 95<813.752 1013.33>
VStem: 230 314<173.541 329> 1046 307<642.464 970.203>
DStem2: 556 446 544 329 0.959715 0.280975<0 461.164>
LayerCount: 2
Fore
SplineSet
658 -20 m 0,0,1
 410 -20 410 -20 304 124 c 0,2,3
 230 225 230 225 230 366 c 0,4,5
 230 451 230 451 257 550 c 0,6,7
 326 808 326 808 533 972 c 0,8,9
 720 1120 720 1120 962 1120 c 128,-1,10
 1204 1120 1204 1120 1295 991 c 0,11,12
 1353 909 1353 909 1353 810 c 0,13,14
 1353 760 1353 760 1338 706 c 0,15,16
 1296 549 1296 549 1111 495 c 2,17,-1
 544 329 l 1,18,19
 544 272 544 272 552 235 c 0,20,21
 584 86 584 86 744 86 c 0,22,23
 851 86 851 86 941 140 c 0,24,25
 1043 201 1043 201 1128 284 c 1,26,-1
 1141 284 l 1,27,-1
 1099 128 l 1,28,29
 912 -20 912 -20 658 -20 c 0,0,1
556 446 m 1,30,-1
 871 539 l 2,31,32
 989 574 989 574 1024 700 c 0,33,34
 1046 784 1046 784 1046 851 c 0,35,36
 1046 882 1046 882 1041 909 c 0,37,38
 1020 1025 1020 1025 926.5 1025 c 128,-1,39
 833 1025 833 1025 744 910 c 0,40,41
 643 778 643 778 581 550 c 0,42,43
 564 485 564 485 556 446 c 1,30,-1
EndSplineSet
Validated: 1
EndChar

StartChar: f
Encoding: 102 102 69
Width: 1098
GlyphClass: 2
Flags: W
HStem: -430 144<17.6514 248> 583 120<235.562 376 708 1007.11> 1430 100<975.578 1203.82>
VStem: -38 15<-216.023 -180> 1036 368<1117.84 1343.25>
DStem2: 105.013 -430 404.883 -430 0.258819 0.965926<148.541 1048.62 1250.46 1822.03>
LayerCount: 2
Fore
SplineSet
1205 1394 m 1,0,1
 1166 1430 1166 1430 1104 1430 c 0,2,3
 1016 1430 1016 1430 946 1360 c 0,4,5
 863 1277 863 1277 821 1122 c 2,6,-1
 708 703 l 1,7,-1
 987 703 l 2,8,9
 1020 703 1020 703 1020 682 c 0,10,11
 1020 676 1020 676 1018 668 c 2,12,-1
 1005 618 l 2,13,14
 996 583 996 583 955 583 c 2,15,-1
 676 583 l 1,16,-1
 485 -131 l 2,17,18
 450 -261 450 -261 405 -322 c 0,19,20
 326 -430 326 -430 170 -430 c 0,21,22
 20 -430 20 -430 -28 -326 c 0,23,24
 -46 -287 -46 -287 -46 -242 c 0,25,26
 -46 -212 -46 -212 -38 -180 c 1,27,-1
 -23 -180 l 1,28,29
 -10 -286 -10 -286 67 -286 c 128,-1,30
 144 -286 144 -286 172 -180 c 2,31,-1
 376 583 l 1,32,-1
 255 583 l 2,33,34
 223 583 223 583 223 604 c 0,35,36
 223 610 223 610 225 618 c 2,37,-1
 238 668 l 2,38,39
 247 703 247 703 287 703 c 2,40,-1
 408 703 l 1,41,-1
 521 1123 l 2,42,43
 568 1299 568 1299 719 1416 c 0,44,45
 865 1530 865 1530 1068 1530 c 0,46,47
 1248 1530 1248 1530 1338 1425 c 0,48,49
 1404 1349 1404 1349 1404 1250 c 0,50,51
 1404 1162 1404 1162 1348 1105 c 0,52,53
 1295 1051 1295 1051 1217 1051 c 0,54,55
 1133 1051 1133 1051 1084 1104 c 0,56,57
 1036 1156 1036 1156 1036 1229 c 0,58,59
 1036 1310 1036 1310 1094 1357 c 0,60,61
 1140 1394 1140 1394 1205 1394 c 1,0,1
EndSplineSet
Validated: 1
EndChar

StartChar: h
Encoding: 104 104 70
Width: 1390
GlyphClass: 2
Flags: W
HStem: -20 144<1042 1292.18> 0 21G<268.5 480> 978 142<908.4 1182> 1386 144<501.907 754>
VStem: 570 300<1144.23 1383.44> 924 301<126.363 364.5> 1079 301<616.812 951.818>
DStem2: 214.205 -20 514.205 -20 0.258819 0.965926<91.0851 1050.85 1109.98 1390.68> 864.883 -20 1165.01 -20 0.258819 0.965926<291.795 882.485>
LayerCount: 2
Fore
SplineSet
300 0 m 2,0,1
 237 0 237 0 237 50 c 0,2,3
 237 65 237 65 241 80 c 2,4,-1
 563 1280 l 2,5,6
 570 1306 570 1306 570 1325 c 0,7,8
 570 1386 570 1386 503 1386 c 0,9,10
 433 1386 433 1386 368 1280 c 1,11,-1
 353 1280 l 1,12,13
 380 1375 380 1375 432 1430 c 0,14,15
 526 1530 526 1530 681 1530 c 0,16,17
 827 1530 827 1530 861 1427 c 0,18,19
 870 1400 870 1400 870 1363 c 0,20,21
 870 1306 870 1306 850 1231 c 2,22,-1
 782 977 l 1,23,24
 909 1120 909 1120 1100 1120 c 0,25,26
 1264 1120 1264 1120 1334 1017 c 0,27,28
 1380 948 1380 948 1380 851 c 0,29,30
 1380 785 1380 785 1359 706 c 2,31,-1
 1232 230 l 2,32,33
 1225 204 1225 204 1225 185 c 0,34,35
 1225 124 1225 124 1291 124 c 0,36,37
 1361 124 1361 124 1427 230 c 1,38,-1
 1442 230 l 1,39,40
 1415 135 1415 135 1363 80 c 0,41,42
 1269 -20 1269 -20 1114 -20 c 0,43,44
 970 -20 970 -20 933 83 c 0,45,46
 924 109 924 109 924 145 c 0,47,48
 924 200 924 200 945 279 c 2,49,-1
 1058 703 l 2,50,51
 1079 782 1079 782 1079 838 c 0,52,53
 1079 873 1079 873 1071 897 c 0,54,55
 1044 978 1044 978 953 978 c 0,56,57
 864 978 864 978 787 884 c 0,58,59
 742 829 742 829 708 703 c 2,60,-1
 541 80 l 2,61,62
 520 -0 520 -0 440 0 c 2,63,-1
 300 0 l 2,0,1
EndSplineSet
Validated: 1
EndChar

StartChar: i
Encoding: 105 105 71
Width: 740
GlyphClass: 2
Flags: W
HStem: -20 144<392 642.177> 976 144<392.823 643> 1160 370<575.14 812.86>
VStem: 274 301<126.363 365.312> 460 301<734.688 973.637> 512 364<1222.58 1467.42>
DStem2: 214.883 -20 515.013 -20 0.258819 0.965926<291.795 966.006>
LayerCount: 2
Fore
SplineSet
694 1160 m 128,-1,1
 618 1160 618 1160 565 1214 c 128,-1,2
 512 1268 512 1268 512 1345 c 128,-1,3
 512 1422 512 1422 565 1476 c 128,-1,4
 618 1530 618 1530 694 1530 c 128,-1,5
 770 1530 770 1530 823 1476 c 128,-1,6
 876 1422 876 1422 876 1345 c 128,-1,7
 876 1268 876 1268 823 1214 c 128,-1,0
 770 1160 770 1160 694 1160 c 128,-1,1
464 -20 m 0,8,9
 320 -20 320 -20 283 83 c 0,10,11
 274 109 274 109 274 145 c 0,12,13
 274 200 274 200 295 279 c 2,14,-1
 453 870 l 2,15,16
 460 896 460 896 460 915 c 0,17,18
 460 976 460 976 394 976 c 0,19,20
 324 976 324 976 258 870 c 1,21,-1
 243 870 l 1,22,23
 270 965 270 965 322 1020 c 0,24,25
 416 1120 416 1120 571 1120 c 0,26,27
 715 1120 715 1120 752 1017 c 0,28,29
 761 991 761 991 761 955 c 0,30,31
 761 900 761 900 740 821 c 2,32,-1
 582 230 l 2,33,34
 575 204 575 204 575 185 c 0,35,36
 575 124 575 124 641 124 c 0,37,38
 711 124 711 124 777 230 c 1,39,-1
 792 230 l 1,40,41
 765 135 765 135 713 80 c 0,42,43
 619 -20 619 -20 464 -20 c 0,8,9
EndSplineSet
Validated: 1
EndChar

StartChar: j
Encoding: 106 106 72
Width: 740
GlyphClass: 2
Flags: W
HStem: -430 21G<-101 150> 976 144<392.823 643> 1160 370<575.14 812.86>
VStem: 460 301<739.047 973.637> 512 364<1222.58 1467.42>
DStem2: 104.782 -430 404.782 -430 0.258819 0.965926<286.198 1390.53>
LayerCount: 2
Fore
SplineSet
694 1160 m 128,-1,1
 618 1160 618 1160 565 1214 c 128,-1,2
 512 1268 512 1268 512 1345 c 128,-1,3
 512 1422 512 1422 565 1476 c 128,-1,4
 618 1530 618 1530 694 1530 c 128,-1,5
 770 1530 770 1530 823 1476 c 128,-1,6
 876 1422 876 1422 876 1345 c 128,-1,7
 876 1268 876 1268 823 1214 c 128,-1,0
 770 1160 770 1160 694 1160 c 128,-1,1
-105 -430 m 1,8,-1
 -101 -415 l 1,9,10
 137 -309 137 -309 220 0 c 2,11,-1
 453 870 l 2,12,13
 460 896 460 896 460 915 c 0,14,15
 460 976 460 976 394 976 c 0,16,17
 324 976 324 976 258 870 c 1,18,-1
 243 870 l 1,19,20
 270 965 270 965 322 1020 c 0,21,22
 416 1120 416 1120 571 1120 c 0,23,24
 715 1120 715 1120 752 1017 c 0,25,26
 761 991 761 991 761 955 c 0,27,28
 761 900 761 900 740 821 c 2,29,-1
 520 0 l 2,30,31
 405 -430 405 -430 -105 -430 c 1,8,-1
EndSplineSet
Validated: 1
EndChar

StartChar: l
Encoding: 108 108 73
Width: 740
GlyphClass: 2
Flags: W
HStem: -20 144<391 676> 1386 144<501.907 753>
VStem: 274 301<126.363 356.164> 570 300<1146.02 1383.72>
DStem2: 214.883 -20 515.013 -20 0.258819 0.965926<291.795 1390.51>
LayerCount: 2
Fore
SplineSet
462 -20 m 0,0,1
 320 -20 320 -20 283 83 c 0,2,3
 274 109 274 109 274 145 c 0,4,5
 274 200 274 200 295 279 c 2,6,-1
 563 1280 l 2,7,8
 570 1306 570 1306 570 1325 c 0,9,10
 570 1386 570 1386 503 1386 c 0,11,12
 433 1386 433 1386 368 1280 c 1,13,-1
 353 1280 l 1,14,15
 380 1375 380 1375 432 1430 c 0,16,17
 526 1530 526 1530 681 1530 c 0,18,19
 825 1530 825 1530 861 1427 c 0,20,21
 870 1400 870 1400 870 1362 c 0,22,23
 870 1307 870 1307 850 1231 c 2,24,-1
 582 230 l 2,25,26
 575 204 575 204 575 185 c 0,27,28
 575 124 575 124 641 124 c 0,29,30
 711 124 711 124 777 230 c 1,31,-1
 790 230 l 1,32,33
 763 135 763 135 711 80 c 0,34,35
 617 -20 617 -20 462 -20 c 0,0,1
EndSplineSet
Validated: 1
EndChar

StartChar: m
Encoding: 109 109 74
Width: 2040
GlyphClass: 2
Flags: W
HStem: -20 144<1691 1976> 0 21G<268.5 480 918.5 1130> 978 142<360.417 588.525 917.207 1163.07 1555.47 1808.07>
VStem: 1574 301<126.363 364.5> 1729 301<616.812 951.818>
DStem2: 214.205 -20 514.205 -20 0.258819 0.965926<91.1245 966.181> 864.205 -20 1164.21 -20 0.258819 0.965926<91.1245 882.69> 1514.88 -20 1815.01 -20 0.258819 0.965926<291.795 882.514>
LayerCount: 2
Fore
SplineSet
300 0 m 2,0,1
 237 0 237 0 237 50 c 0,2,3
 237 63 237 63 241 80 c 2,4,-1
 453 870 l 2,5,6
 460 896 460 896 460 915 c 0,7,8
 460 976 460 976 394 976 c 0,9,10
 324 976 324 976 258 870 c 1,11,-1
 246 870 l 1,12,13
 273 965 273 965 325 1020 c 0,14,15
 419 1120 419 1120 574 1120 c 0,16,17
 719 1120 719 1120 752 1017 c 0,18,19
 761 988 761 988 761 952 c 1,20,21
 910 1120 910 1120 1109 1120 c 0,22,23
 1274 1120 1274 1120 1334 1002 c 0,24,25
 1355 963 1355 963 1363 912 c 1,26,27
 1521 1120 1521 1120 1750 1120 c 0,28,29
 1914 1120 1914 1120 1984 1017 c 0,30,31
 2030 948 2030 948 2030 851 c 0,32,33
 2030 785 2030 785 2009 706 c 2,34,-1
 1882 230 l 2,35,36
 1875 204 1875 204 1875 185 c 0,37,38
 1875 124 1875 124 1941 124 c 0,39,40
 2011 124 2011 124 2077 230 c 1,41,-1
 2090 230 l 1,42,43
 2063 135 2063 135 2011 80 c 0,44,45
 1917 -20 1917 -20 1762 -20 c 0,46,47
 1620 -20 1620 -20 1583 83 c 0,48,49
 1574 109 1574 109 1574 145 c 0,50,51
 1574 200 1574 200 1595 279 c 2,52,-1
 1708 703 l 2,53,54
 1729 783 1729 783 1729 838 c 0,55,56
 1729 873 1729 873 1721 897 c 0,57,58
 1694 978 1694 978 1603 978 c 0,59,60
 1514 978 1514 978 1437 884 c 0,61,62
 1392 829 1392 829 1358 703 c 2,63,-1
 1191 80 l 2,64,65
 1170 0 1170 0 1090 0 c 2,66,-1
 950 0 l 2,67,68
 887 0 887 0 887 50 c 0,69,70
 887 63 887 63 891 80 c 2,71,-1
 1058 703 l 2,72,73
 1079 783 1079 783 1079 838 c 0,74,75
 1079 873 1079 873 1071 897 c 0,76,77
 1044 978 1044 978 953 978 c 0,78,79
 864 978 864 978 787 884 c 0,80,81
 742 829 742 829 708 703 c 2,82,-1
 541 80 l 2,83,84
 520 0 520 0 440 0 c 2,85,-1
 300 0 l 2,0,1
EndSplineSet
Validated: 1
EndChar

StartChar: n
Encoding: 110 110 75
Width: 1390
GlyphClass: 2
Flags: W
HStem: -20 144<1041.5 1292.18> 0 21G<268.5 480> 976 144<392.823 588.847 906.518 1159.25>
VStem: 924 301<126.363 364.5> 1079 301<616.812 951.818>
DStem2: 214.205 -20 514.205 -20 0.258819 0.965926<91.0851 966.181> 864.883 -20 1165.01 -20 0.258819 0.965926<291.795 882.485>
LayerCount: 2
Fore
SplineSet
300 0 m 2,0,1
 237 0 237 0 237 50 c 0,2,3
 237 65 237 65 241 80 c 2,4,-1
 453 870 l 2,5,6
 460 896 460 896 460 915 c 0,7,8
 460 976 460 976 394 976 c 0,9,10
 324 976 324 976 258 870 c 1,11,-1
 243 870 l 1,12,13
 270 965 270 965 322 1020 c 0,14,15
 416 1120 416 1120 571 1120 c 0,16,17
 719 1120 719 1120 752 1017 c 0,18,19
 761 988 761 988 761 952 c 1,20,21
 893 1120 893 1120 1100 1120 c 0,22,23
 1265 1120 1265 1120 1334 1017 c 0,24,25
 1380 948 1380 948 1380 851 c 0,26,27
 1380 785 1380 785 1359 706 c 2,28,-1
 1232 230 l 2,29,30
 1225 204 1225 204 1225 185 c 0,31,32
 1225 124 1225 124 1291 124 c 0,33,34
 1361 124 1361 124 1427 230 c 1,35,-1
 1442 230 l 1,36,37
 1415 135 1415 135 1363 80 c 0,38,39
 1269 -20 1269 -20 1114 -20 c 0,40,41
 969 -20 969 -20 933 83 c 0,42,43
 924 109 924 109 924 145 c 0,44,45
 924 200 924 200 945 279 c 2,46,-1
 1058 703 l 2,47,48
 1079 782 1079 782 1079 838 c 0,49,50
 1079 873 1079 873 1071 897 c 0,51,52
 1044 978 1044 978 953 978 c 0,53,54
 864 978 864 978 787 884 c 0,55,56
 742 829 742 829 708 703 c 2,57,-1
 541 80 l 2,58,59
 520 0 520 0 440 0 c 2,60,-1
 300 0 l 2,0,1
EndSplineSet
Validated: 1
EndChar

StartChar: o
Encoding: 111 111 76
Width: 1286
GlyphClass: 2
Flags: W
HStem: -20 95<569.339 778.393> 1025 95<802.94 1008.52>
VStem: 231 302<172.518 553.432> 1048 302<550.026 927.482>
LayerCount: 2
Fore
SplineSet
663 75 m 128,-1,1
 768 75 768 75 857 204 c 128,-1,2
 946 333 946 333 1004 550 c 0,3,4
 1048 712 1048 712 1048 825 c 0,5,6
 1048 864 1048 864 1043 896 c 0,7,8
 1023 1025 1023 1025 918 1025 c 128,-1,9
 813 1025 813 1025 724 896 c 0,10,11
 637 771 637 771 576 550 c 0,12,13
 533 394 533 394 533 275 c 0,14,15
 533 236 533 236 538 204 c 0,16,0
 558 75 558 75 663 75 c 128,-1,1
638 -20 m 128,-1,18
 406 -20 406 -20 304 124 c 0,19,20
 231 228 231 228 231 369 c 0,21,22
 231 453 231 453 257 550 c 0,23,24
 327 810 327 810 533 976 c 0,25,26
 712 1120 712 1120 943.5 1120 c 128,-1,27
 1175 1120 1175 1120 1277 976 c 0,28,29
 1350 872 1350 872 1350 731 c 0,30,31
 1350 647 1350 647 1324 550 c 0,32,33
 1254 290 1254 290 1048 124 c 0,34,17
 870 -20 870 -20 638 -20 c 128,-1,18
EndSplineSet
Validated: 1
EndChar

StartChar: p
Encoding: 112 112 77
Width: 1319
GlyphClass: 2
Flags: W
HStem: -410 21G<158.5 370.5> -20 105<604.075 795.205> 976 144<392.823 639> 1015 105<830.761 1022.55>
VStem: 1072 311<519.161 937.768>
DStem2: 110.564 -410 410.564 -410 0.258819 0.965926<71.1354 563.837 713.106 1369.72>
LayerCount: 2
Fore
SplineSet
704 -20 m 0,0,1
 591 -20 591 -20 535 60 c 1,2,-1
 432 -330 l 2,3,4
 411 -410 411 -410 330 -410 c 2,5,-1
 190 -410 l 2,6,7
 127 -410 127 -410 127 -361 c 0,8,9
 127 -347 127 -347 132 -330 c 2,10,-1
 453 870 l 2,11,12
 460 896 460 896 460 915 c 0,13,14
 460 976 460 976 394 976 c 0,15,16
 324 976 324 976 258 870 c 1,17,-1
 243 870 l 1,18,19
 270 965 270 965 322 1020 c 0,20,21
 416 1120 416 1120 571 1120 c 0,22,23
 707 1120 707 1120 752 1017 c 1,24,25
 858 1120 858 1120 1015 1120 c 0,26,27
 1240 1120 1240 1120 1333 949 c 0,28,29
 1383 854 1383 854 1383 736 c 0,30,31
 1383 649 1383 649 1356 550 c 0,32,33
 1292 312 1292 312 1125 158 c 0,34,35
 933 -20 933 -20 704 -20 c 0,0,1
930 1015 m 0,36,37
 866 1015 866 1015 809 952 c 0,38,39
 761 899 761 899 727 773 c 2,40,-1
 608 327 l 2,41,42
 587 250 587 250 587 199 c 0,43,44
 587 168 587 168 595 148 c 0,45,46
 617 85 617 85 681 85 c 0,47,48
 780 85 780 85 887 221 c 0,49,50
 980 340 980 340 1036 550 c 0,51,52
 1072 687 1072 687 1072 789 c 0,53,54
 1072 838 1072 838 1064 879 c 0,55,56
 1033 1015 1033 1015 930 1015 c 0,36,37
EndSplineSet
Validated: 1
EndChar

StartChar: q
Encoding: 113 113 78
Width: 1319
GlyphClass: 2
Flags: W
HStem: -430 144<860.5 1111.18> -20 105<591.669 785.12> 1015 105<816.805 1009.92> 1080 20G<1134.5 1345.5>
VStem: 228 313<164.527 580.191> 743 301<-283.697 -45.7891>
DStem2: 683.883 -430 984.013 -430 0.258819 0.965926<291.795 486.627 569.556 1372.91 1522.17 1591.89>
LayerCount: 2
Fore
SplineSet
599 -20 m 0,0,1
 388 -20 388 -20 280 151 c 0,2,3
 228 235 228 235 228 353 c 0,4,5
 228 442 228 442 257 550 c 0,6,7
 321 788 321 788 488 942 c 0,8,9
 681 1120 681 1120 910 1120 c 0,10,11
 1023 1120 1023 1120 1079 1040 c 1,12,13
 1095 1100 1095 1100 1174 1100 c 2,14,-1
 1314 1100 l 2,15,16
 1377 1100 1377 1100 1377 1051 c 0,17,18
 1377 1037 1377 1037 1372 1020 c 2,19,-1
 1051 -180 l 2,20,21
 1044 -206 1044 -206 1044 -225 c 0,22,23
 1044 -286 1044 -286 1110 -286 c 0,24,25
 1180 -286 1180 -286 1246 -180 c 1,26,-1
 1261 -180 l 1,27,28
 1234 -275 1234 -275 1182 -330 c 0,29,30
 1088 -430 1088 -430 933 -430 c 0,31,32
 788 -430 788 -430 752 -327 c 0,33,34
 743 -300 743 -300 743 -264 c 0,35,36
 743 -209 743 -209 764 -131 c 2,37,-1
 810 40 l 1,38,39
 724 -20 724 -20 599 -20 c 0,0,1
684 85 m 0,40,41
 748 85 748 85 805 148 c 0,42,43
 853 201 853 201 887 327 c 2,44,-1
 1006 773 l 2,45,46
 1027 850 1027 850 1027 901 c 0,47,48
 1027 932 1027 932 1019 952 c 0,49,50
 997 1015 997 1015 933 1015 c 0,51,52
 826 1015 826 1015 727 879 c 0,53,54
 632 751 632 751 577 550 c 0,55,56
 541 415 541 415 541 314 c 0,57,58
 541 263 541 263 550 221 c 0,59,60
 581 85 581 85 684 85 c 0,40,41
EndSplineSet
Validated: 1
EndChar

StartChar: r
Encoding: 114 114 79
Width: 1099
GlyphClass: 2
Flags: W
HStem: 0 21G<268.5 480> 1019 101<868.032 1094.82>
VStem: 927 368<706.84 931.75>
DStem2: 219.564 0 519.564 0 0.258819 0.965926<70.3796 945.476>
LayerCount: 2
Fore
SplineSet
300 0 m 2,0,1
 237 0 237 0 237 50 c 0,2,3
 237 65 237 65 241 80 c 2,4,-1
 453 870 l 2,5,6
 460 896 460 896 460 915 c 0,7,8
 460 976 460 976 394 976 c 0,9,10
 324 976 324 976 258 870 c 1,11,-1
 243 870 l 1,12,13
 270 965 270 965 322 1020 c 0,14,15
 416 1120 416 1120 571 1120 c 0,16,17
 699 1120 699 1120 740 1043 c 1,18,19
 839 1120 839 1120 959 1120 c 0,20,21
 1139 1119 1139 1119 1229 1014 c 0,22,23
 1295 937 1295 937 1295 839 c 0,24,25
 1295 751 1295 751 1239 694 c 0,26,27
 1186 640 1186 640 1108 640 c 0,28,29
 1024 640 1024 640 975 693 c 0,30,31
 927 745 927 745 927 818 c 0,32,33
 927 899 927 899 985 946 c 0,34,35
 1031 983 1031 983 1096 983 c 1,36,37
 1057 1019 1057 1019 995 1019 c 0,38,39
 938 1019 938 1019 882 985 c 0,40,41
 765 914 765 914 708 703 c 2,42,-1
 541 80 l 2,43,44
 520 0 520 0 440 0 c 2,45,-1
 300 0 l 2,0,1
EndSplineSet
Validated: 1
EndChar

StartChar: s
Encoding: 115 115 80
Width: 1140
GlyphClass: 2
Flags: W
HStem: -20 113<396.139 700.748> 1017 103<792.587 956.399>
VStem: 187 364<171.686 410.551> 423 290<746.732 923.992> 825 299<225.368 434.674> 874 310<775.443 991.713>
LayerCount: 2
Fore
SplineSet
573 -20 m 0,0,1
 345 -20 345 -20 242 114 c 0,2,3
 187 187 187 187 187 274 c 0,4,5
 187 366 187 366 232 412 c 0,6,7
 293 473 293 473 369 473 c 128,-1,8
 445 473 445 473 498 419.5 c 128,-1,9
 551 366 551 366 551 290 c 0,10,11
 551 212 551 212 496 160 c 0,12,13
 457 124 457 124 393 116 c 1,14,15
 452 93 452 93 543 93 c 128,-1,16
 634 93 634 93 703 139 c 0,17,18
 793 199 793 199 819 294 c 0,19,20
 825 317 825 317 825 338 c 0,21,22
 825 420 825 420 728 471 c 2,23,-1
 579 549 l 2,24,25
 423 630 423 630 423 773 c 0,26,27
 423 799 423 799 428 826 c 0,28,29
 453 961 453 961 603 1047 c 0,30,31
 731 1120 731 1120 881 1120 c 0,32,33
 1059 1120 1059 1120 1142 1014 c 0,34,35
 1184 961 1184 961 1184 890 c 0,36,37
 1184 820 1184 820 1139 774 c 128,-1,38
 1094 728 1094 728 1029 728 c 128,-1,39
 964 728 964 728 919 774 c 128,-1,40
 874 820 874 820 874 887 c 0,41,42
 874 952 874 952 920 993 c 0,43,44
 937 1008 937 1008 959 1014 c 1,45,46
 942 1017 942 1017 923 1017 c 0,47,48
 858 1017 858 1017 806 983 c 0,49,50
 736 937 736 937 717 864 c 0,51,52
 713 848 713 848 713 832 c 0,53,54
 713 759 713 759 811 709 c 2,55,-1
 947 639 l 2,56,57
 1124 549 1124 549 1124 386 c 0,58,59
 1124 360 1124 360 1119 332 c 0,60,61
 1094 175 1094 175 909 68 c 0,62,63
 756 -20 756 -20 573 -20 c 0,0,1
EndSplineSet
Validated: 1
EndChar

StartChar: t
Encoding: 116 116 81
Width: 820
GlyphClass: 2
Flags: W
HStem: -20 144<430.5 716> 980 120<302.891 523 855 1074.44> 1386 144<541.907 794>
VStem: 314 301<126.363 362.766> 610 300<1139.13 1383.72>
DStem2: 254.883 -20 555.013 -20 0.258819 0.965926<291.795 1035.32 1237.16 1390.51>
LayerCount: 2
Fore
SplineSet
502 -20 m 0,0,1
 359 -20 359 -20 323 83 c 0,2,3
 314 109 314 109 314 145 c 0,4,5
 314 201 314 201 335 279 c 2,6,-1
 523 980 l 1,7,-1
 323 980 l 2,8,9
 290 980 290 980 290 1001 c 0,10,11
 290 1007 290 1007 292 1015 c 2,12,-1
 305 1065 l 2,13,14
 314 1100 314 1100 355 1100 c 2,15,-1
 555 1100 l 1,16,-1
 603 1280 l 2,17,18
 610 1306 610 1306 610 1325 c 0,19,20
 610 1386 610 1386 543 1386 c 0,21,22
 473 1386 473 1386 408 1280 c 1,23,-1
 393 1280 l 1,24,25
 420 1375 420 1375 472 1430 c 0,26,27
 566 1530 566 1530 721 1530 c 0,28,29
 867 1530 867 1530 901 1427 c 0,30,31
 910 1400 910 1400 910 1362 c 0,32,33
 910 1306 910 1306 890 1231 c 2,34,-1
 855 1100 l 1,35,-1
 1055 1100 l 2,36,37
 1087 1100 1087 1100 1087 1079 c 0,38,39
 1087 1073 1087 1073 1085 1065 c 2,40,-1
 1072 1015 l 2,41,42
 1063 980 1063 980 1023 980 c 2,43,-1
 823 980 l 1,44,-1
 622 230 l 2,45,46
 615 204 615 204 615 185 c 0,47,48
 615 124 615 124 681 124 c 0,49,50
 751 124 751 124 817 230 c 1,51,-1
 830 230 l 1,52,53
 803 135 803 135 751 80 c 0,54,55
 657 -20 657 -20 502 -20 c 0,0,1
EndSplineSet
Validated: 1
EndChar

StartChar: u
Encoding: 117 117 82
Width: 1390
GlyphClass: 2
Flags: W
HStem: -20 142<526.465 778.482 1096.47 1292.18> 976 144<392.823 643> 1080 20G<1204.5 1416.5>
VStem: 305 300<148.182 483.188> 460 301<735.5 973.637>
DStem2: 215.069 -20 514.265 -20 0.258819 0.965926<374.98 965.958> 864.265 -20 1165.01 -20 0.258819 0.965926<291.955 1166.04>
LayerCount: 2
Fore
SplineSet
585 -20 m 0,0,1
 421 -20 421 -20 351 83 c 0,2,3
 305 152 305 152 305 249 c 0,4,5
 305 315 305 315 326 394 c 2,6,-1
 453 870 l 2,7,8
 460 896 460 896 460 915 c 0,9,10
 460 976 460 976 394 976 c 0,11,12
 324 976 324 976 258 870 c 1,13,-1
 243 870 l 1,14,15
 270 965 270 965 322 1020 c 0,16,17
 416 1120 416 1120 571 1120 c 0,18,19
 715 1120 715 1120 752 1017 c 0,20,21
 761 991 761 991 761 955 c 0,22,23
 761 900 761 900 740 821 c 2,24,-1
 626 397 l 2,25,26
 605 317 605 317 605 262 c 0,27,28
 605 227 605 227 613 203 c 0,29,30
 640 122 640 122 732 122 c 0,31,32
 821 122 821 122 898 216 c 0,33,34
 943 271 943 271 976 397 c 2,35,-1
 1143 1020 l 2,36,37
 1164 1100 1164 1100 1245 1100 c 2,38,-1
 1385 1100 l 2,39,40
 1448 1100 1448 1100 1448 1051 c 0,41,42
 1448 1037 1448 1037 1443 1020 c 2,43,-1
 1232 230 l 2,44,45
 1225 204 1225 204 1225 185 c 0,46,47
 1225 124 1225 124 1291 124 c 0,48,49
 1361 124 1361 124 1427 230 c 1,50,-1
 1442 230 l 1,51,52
 1415 135 1415 135 1363 80 c 0,53,54
 1269 -20 1269 -20 1114 -20 c 0,55,56
 966 -20 966 -20 933 83 c 0,57,58
 924 112 924 112 924 148 c 1,59,60
 792 -20 792 -20 585 -20 c 0,0,1
EndSplineSet
Validated: 1
EndChar

StartChar: braceleft
Encoding: 123 123 83
Width: 853
GlyphClass: 2
Flags: W
HStem: -200 82<626.652 760.355> 1628 82<1067.45 1249.95>
VStem: 286 292<-70.8905 270.781> 392 298<363.938 680.168>
DStem2: 196.069 -200 496.409 -200 0.258819 0.965926<329.838 796.131 1174.87 1786.02>
LayerCount: 2
Fore
SplineSet
1236 1710 m 0,0,1
 1255 1710 1255 1710 1255 1693 c 0,2,3
 1255 1689 1255 1689 1254 1685 c 2,4,-1
 1246 1653 l 2,5,6
 1240 1628 1240 1628 1214 1628 c 16,7,8
 1121 1628 1121 1628 1046 1574 c 0,9,10
 956 1510 956 1510 899 1301 c 2,11,-1
 825 1027 l 2,12,13
 763 796 763 796 489 755 c 1,14,15
 690 715 690 715 690 562 c 0,16,17
 690 526 690 526 679 483 c 2,18,-1
 606 209 l 2,19,20
 578 105 578 105 578 37 c 0,21,22
 578 -32 578 -32 607 -64 c 0,23,24
 654 -118 654 -118 746 -118 c 0,25,26
 766 -118 766 -118 766 -136 c 0,27,28
 766 -139 766 -139 765 -143 c 2,29,-1
 756 -175 l 2,30,31
 749 -200 749 -200 724 -200 c 16,32,33
 448 -200 448 -200 347 -99 c 0,34,35
 286 -38 286 -38 286 70 c 0,36,37
 286 134 286 134 307 214 c 2,38,-1
 379 482 l 2,39,40
 392 532 392 532 392 573 c 0,41,42
 392 707 392 707 252 755 c 1,43,44
 468 815 468 815 525 1028 c 2,45,-1
 597 1296 l 2,46,47
 654 1509 654 1509 805 1609 c 0,48,49
 957 1710 957 1710 1236 1710 c 0,0,1
EndSplineSet
Validated: 1
EndChar

StartChar: bar
Encoding: 124 124 84
Width: 775
GlyphClass: 2
Flags: W
DStem2: 210.244 -150 485.244 -150 0.258819 0.965926<61.8193 1883.2>
LayerCount: 2
Fore
SplineSet
765 1660 m 2,0,-1
 900 1660 l 2,1,2
 955 1660 955 1660 955 1617 c 0,3,4
 955 1605 955 1605 951 1590 c 2,5,-1
 504 -80 l 2,6,7
 485 -150 485 -150 415 -150 c 2,8,-1
 280 -150 l 2,9,10
 225 -150 225 -150 225 -107 c 0,11,12
 225 -95 225 -95 229 -80 c 2,13,-1
 676 1590 l 2,14,15
 695 1660 695 1660 765 1660 c 2,0,-1
EndSplineSet
Validated: 1
EndChar

StartChar: braceright
Encoding: 125 125 85
Width: 853
GlyphClass: 2
Flags: W
HStem: -200 82<7.68237 189.097> 1628 82<497.052 631.262>
VStem: 566 299<825.297 1146.06> 680 291<1241.31 1580.6>
DStem2: 249.409 -200 549.069 -200 0.258819 0.965926<269.246 880.471 1257.95 1725.38>
LayerCount: 2
Fore
SplineSet
533 1710 m 16,0,1
 812 1710 812 1710 910 1609 c 0,2,3
 971 1546 971 1546 971 1438 c 0,4,5
 971 1374 971 1374 950 1296 c 2,6,-1
 878 1028 l 2,7,8
 865 980 865 980 865 936 c 0,9,10
 865 801 865 801 1005 755 c 1,11,12
 789 693 789 693 732 482 c 2,13,-1
 660 214 l 2,14,15
 602 -1 602 -1 452 -99 c 0,16,17
 297 -200 297 -200 21 -200 c 0,18,19
 2 -200 2 -200 2 -183 c 0,20,21
 2 -179 2 -179 3 -175 c 2,22,-1
 12 -143 l 2,23,24
 19 -118 19 -118 43 -118 c 16,25,26
 136 -118 136 -118 212 -64 c 0,27,28
 303 0 303 0 359 209 c 2,29,-1
 432 483 l 2,30,31
 491 705 491 705 768 755 c 1,32,33
 566 788 566 788 566 943 c 0,34,35
 566 983 566 983 578 1027 c 2,36,-1
 652 1301 l 2,37,38
 680 1405 680 1405 680 1473 c 0,39,40
 680 1542 680 1542 651 1574 c 0,41,42
 604 1628 604 1628 511 1628 c 0,43,44
 492 1628 492 1628 492 1646 c 0,45,46
 492 1649 492 1649 493 1653 c 2,47,-1
 501 1685 l 2,48,49
 507 1710 507 1710 533 1710 c 16,0,1
EndSplineSet
Validated: 1
EndChar

StartChar: asciitilde
Encoding: 126 126 86
Width: 1313
GlyphClass: 2
Flags: W
HStem: 583 181<994.008 1196.55> 745 181<516.513 725.164>
DStem2: 1037 787 681 722 0.89608 -0.443892<-370.762 80.6102>
LayerCount: 2
Fore
SplineSet
690 926 m 0,0,1
 757 926 757 926 822 894 c 2,2,-1
 1037 787 l 2,3,4
 1083 764 1083 764 1136 764 c 0,5,6
 1291 764 1291 764 1385 900 c 1,7,-1
 1404 900 l 1,8,9
 1275 583 1275 583 1028 583 c 0,10,11
 961 583 961 583 897 615 c 2,12,-1
 681 722 l 2,13,14
 635 745 635 745 582 745 c 0,15,16
 428 745 428 745 333 609 c 1,17,-1
 313 609 l 1,18,19
 431 926 431 926 690 926 c 0,0,1
EndSplineSet
Validated: 1
EndChar

StartChar: exclamdown
Encoding: 161 161 88
Width: 764
VWidth: 1638
GlyphClass: 2
Flags: W
HStem: -430 21G<278.5 356> 750 370<514.14 751.86>
VStem: 142 358<-368.36 -137.354> 451 364<812.578 1057.42>
LayerCount: 2
Fore
SplineSet
317 -430 m 0,0,1
 240 -430 240 -430 188 -376 c 0,2,3
 142 -328 142 -328 142 -257 c 0,4,5
 142 -218 142 -218 162 -169 c 2,6,-1
 503 671 l 2,7,8
 515 700 515 700 548 700 c 2,9,-1
 592 700 l 2,10,11
 622 700 622 700 622 684 c 0,12,13
 622 679 622 679 621 671 c 2,14,-1
 500 -246 l 2,15,16
 488 -337 488 -337 443 -382 c 0,17,18
 395 -430 395 -430 317 -430 c 0,0,1
633 1120 m 128,-1,20
 709 1120 709 1120 762 1066 c 128,-1,21
 815 1012 815 1012 815 935 c 128,-1,22
 815 858 815 858 762 804 c 128,-1,23
 709 750 709 750 633 750 c 128,-1,24
 557 750 557 750 504 804 c 128,-1,25
 451 858 451 858 451 935 c 128,-1,26
 451 1012 451 1012 504 1066 c 128,-1,19
 557 1120 557 1120 633 1120 c 128,-1,20
EndSplineSet
Validated: 1
EndChar

StartChar: cent
Encoding: 162 162 89
Width: 1197
GlyphClass: 2
Flags: W
HStem: -19 105<729 919.97> 607 358<1013.72 1134>
VStem: 230 314<172.13 575.186> 953 366<678.399 907.25>
DStem2: 535.282 -150 665.282 -150 0.258819 0.965926<23.4604 139.644 288.832 1164.5 1347.33 1459.39>
LayerCount: 2
Fore
SplineSet
571 -15 m 1,0,1
 390 7 390 7 304 124 c 0,2,3
 230 225 230 225 230 366 c 0,4,5
 230 451 230 451 257 550 c 0,6,7
 326 808 326 808 533 972 c 0,8,9
 681 1089 681 1089 873 1114 c 1,10,-1
 899 1210 l 2,11,12
 910 1250 910 1250 950 1250 c 2,13,-1
 1000 1250 l 2,14,15
 1032 1250 1032 1250 1032 1228 c 0,16,17
 1032 1221 1032 1221 1029 1210 c 2,18,-1
 1005 1119 l 1,19,20
 1163 1110 1163 1110 1253 997 c 0,21,22
 1319 914 1319 914 1319 804 c 0,23,24
 1319 727 1319 727 1265.5 667 c 128,-1,25
 1212 607 1212 607 1135 607 c 0,26,27
 1054 607 1054 607 1002 662 c 0,28,29
 953 714 953 714 953 793 c 0,30,31
 953 870 953 870 1010 922 c 0,32,33
 1054 962 1054 962 1134 965 c 1,34,35
 1073 1015 1073 1015 977 1015 c 1,36,-1
 729 86 l 1,37,38
 851 86 851 86 941 140 c 0,39,40
 1043 201 1043 201 1128 284 c 1,41,-1
 1141 284 l 1,42,-1
 1099 128 l 1,43,44
 928 -8 928 -8 700 -19 c 1,45,-1
 676 -110 l 2,46,47
 665 -150 665 -150 625 -150 c 2,48,-1
 575 -150 l 2,49,50
 543 -150 543 -150 543 -128 c 0,51,52
 543 -121 543 -121 546 -110 c 2,53,-1
 571 -15 l 1,0,1
610 129 m 1,54,-1
 836 975 l 1,55,56
 783 943 783 943 737 886 c 0,57,58
 638 764 638 764 581 550 c 0,59,60
 544 411 544 411 544 316 c 0,61,62
 544 271 544 271 552 235 c 0,63,64
 568 166 568 166 610 129 c 1,54,-1
EndSplineSet
Validated: 1
EndChar

StartChar: sterling
Encoding: 163 163 90
Width: 1338
GlyphClass: 2
Flags: W
HStem: -20 144<147.651 348> -20 105<766.746 1104.23> 35 112<580.571 831.222> 586 120<236.543 397 749 1007.46> 1425 105<1081.45 1340.16>
VStem: 92 15<193.977 230> 1004 364<129.566 364.584> 1185 366<1113.69 1349.51>
DStem2: 235.013 -20 554.883 -20 0.258819 0.965926<252.054 627.276 834.292 1293.9>
LayerCount: 2
Fore
SplineSet
300 -20 m 0,0,1
 150 -20 150 -20 102 84 c 0,2,3
 84 123 84 123 84 168 c 0,4,5
 84 198 84 198 92 230 c 1,6,-1
 107 230 l 1,7,8
 120 124 120 124 197 124 c 128,-1,9
 274 124 274 124 302 230 c 2,10,-1
 397 586 l 1,11,-1
 256 586 l 2,12,13
 223 586 223 586 223 609 c 0,14,15
 223 614 223 614 225 621 c 2,16,-1
 239 671 l 2,17,18
 249 706 249 706 288 706 c 2,19,-1
 429 706 l 1,20,-1
 496 956 l 2,21,22
 572 1239 572 1239 765 1380 c 0,23,24
 970 1530 970 1530 1193 1530 c 0,25,26
 1400 1530 1400 1530 1504 1386 c 0,27,28
 1551 1321 1551 1321 1551 1247 c 0,29,30
 1551 1157 1551 1157 1495 1100 c 0,31,32
 1443 1047 1443 1047 1366.5 1047 c 128,-1,33
 1290 1047 1290 1047 1236 1102 c 0,34,35
 1185 1154 1185 1154 1185 1232 c 0,36,37
 1185 1314 1185 1314 1240 1360 c 0,38,39
 1284 1397 1284 1397 1343 1403 c 1,40,41
 1289 1425 1289 1425 1223 1425 c 0,42,43
 1141 1425 1141 1425 1060 1368 c 0,44,45
 896 1253 896 1253 816 955 c 2,46,-1
 749 706 l 1,47,-1
 988 706 l 2,48,49
 1021 706 1021 706 1021 683 c 0,50,51
 1021 678 1021 678 1019 671 c 2,52,-1
 1005 621 l 2,53,54
 995 586 995 586 956 586 c 2,55,-1
 717 586 l 1,56,-1
 635 279 l 2,57,58
 616 208 616 208 580 146 c 1,59,60
 608 147 608 147 638 147 c 0,61,62
 719 147 719 147 812 116 c 128,-1,63
 905 85 905 85 988 85 c 0,64,65
 1042 85 1042 85 1106 98 c 1,66,67
 1079 104 1079 104 1058 121 c 0,68,69
 1004 165 1004 165 1004 245 c 0,70,71
 1004 320 1004 320 1056 373 c 0,72,73
 1110 428 1110 428 1186 428 c 128,-1,74
 1262 428 1262 428 1315 374 c 128,-1,75
 1368 320 1368 320 1368 243 c 0,76,77
 1368 209 1368 209 1355 171 c 0,78,79
 1330 98 1330 98 1246 46 c 0,80,81
 1141 -20 1141 -20 962 -20 c 0,82,83
 855 -20 855 -20 747 8 c 0,84,85
 643 35 643 35 596 35 c 0,86,87
 541 35 541 35 488 15 c 0,88,89
 396 -20 396 -20 300 -20 c 0,0,1
EndSplineSet
Validated: 1
EndChar

StartChar: currency
Encoding: 164 164 91
Width: 1646
GlyphClass: 2
Flags: W
HStem: 190 121<799.011 1044.91> 1209 121<1017.51 1262.87>
VStem: 425 320<396.277 793.149> 1317 320<727.916 1098.87>
DStem2: 276 282 399 114 0.784942 0.61957<0 243.937 1534.32 1733.99>
LayerCount: 2
Fore
SplineSet
1183 1330 m 0,0,1
 1374 1330 1374 1330 1492 1241 c 1,2,-1
 1643 1361 l 1,3,-1
 1766 1193 l 1,4,-1
 1615 1074 l 1,5,6
 1637 1011 1637 1011 1637 935 c 0,7,8
 1637 854 1637 854 1612 760 c 0,9,10
 1558 558 1558 558 1422 420 c 1,11,-1
 1522 283 l 1,12,-1
 1310 114 l 1,13,-1
 1201 262 l 1,14,15
 1050 190 1050 190 878 190 c 0,16,17
 703 190 703 190 589 265 c 1,18,-1
 399 114 l 1,19,-1
 276 282 l 1,20,-1
 455 424 l 1,21,22
 425 496 425 496 425 584 c 0,23,24
 425 665 425 665 450 760 c 0,25,26
 498 940 498 940 610 1069 c 1,27,-1
 520 1193 l 1,28,-1
 733 1361 l 1,29,-1
 823 1238 l 1,30,31
 989 1330 989 1330 1183 1330 c 0,0,1
910 311 m 128,-1,33
 1026 311 1026 311 1125 428 c 128,-1,34
 1224 545 1224 545 1282 760 c 0,35,36
 1317 892 1317 892 1317 987 c 0,37,38
 1317 1047 1317 1047 1303 1092 c 0,39,40
 1267 1209 1267 1209 1151 1209 c 0,41,42
 1036 1209 1036 1209 936 1092 c 0,43,44
 838 975 838 975 780 760 c 0,45,46
 745 630 745 630 745 535 c 0,47,48
 745 474 745 474 759 428 c 0,49,32
 794 311 794 311 910 311 c 128,-1,33
EndSplineSet
Validated: 1
EndChar

StartChar: brokenbar
Encoding: 166 166 92
Width: 775
GlyphClass: 2
Flags: W
DStem2: 210.244 -150 485.244 -150 0.258819 0.965926<61.8193 847.911 1097.11 1883.2>
LayerCount: 2
Fore
SplineSet
497 660 m 2,0,-1
 632 660 l 2,1,2
 687 660 687 660 687 617 c 0,3,4
 687 605 687 605 683 590 c 2,5,-1
 504 -80 l 2,6,7
 485 -150 485 -150 415 -150 c 2,8,-1
 280 -150 l 2,9,10
 225 -150 225 -150 225 -107 c 0,11,12
 225 -95 225 -95 229 -80 c 2,13,-1
 408 590 l 2,14,15
 427 660 427 660 497 660 c 2,0,-1
765 1660 m 2,16,-1
 900 1660 l 2,17,18
 955 1660 955 1660 955 1617 c 0,19,20
 955 1605 955 1605 951 1590 c 2,21,-1
 772 920 l 2,22,23
 753 850 753 850 683 850 c 2,24,-1
 548 850 l 2,25,26
 493 850 493 850 493 893 c 0,27,28
 493 905 493 905 497 920 c 2,29,-1
 676 1590 l 2,30,31
 695 1660 695 1660 765 1660 c 2,16,-1
EndSplineSet
Validated: 1
EndChar

StartChar: section
Encoding: 167 167 93
Width: 1262
GlyphClass: 2
Flags: W
HStem: -20 103<541.901 758.115> 1427 103<907.885 1124.1>
VStem: 306 311<127.775 321.589> 349 264<680.643 861.797> 602 253<1188.14 1347.08> 811 253<162.917 321.856> 1049 311<1188.41 1382.23> 1053 264<648.203 829.357>
DStem2: 760 611 545 447 0.888385 -0.459098<-180.816 199.457> 984 1132 757 976 0.888385 -0.459098<-161.781 218.492>
LayerCount: 2
Fore
SplineSet
622 -20 m 0,0,1
 479 -20 479 -20 389 57 c 0,2,3
 306 129 306 129 306 214 c 0,4,5
 306 278 306 278 345 323 c 0,6,7
 391 375 391 375 462 375 c 0,8,9
 536 375 536 375 578 330 c 0,10,11
 617 286 617 286 617 228 c 0,12,13
 617 148 617 148 541 106 c 1,14,15
 574 83 574 83 634 83 c 0,16,17
 697 83 697 83 741 114 c 0,18,19
 790 149 790 149 807 210 c 0,20,21
 811 223 811 223 811 236 c 0,22,23
 811 313 811 313 682 378 c 2,24,-1
 545 447 l 2,25,26
 349 546 349 546 349 711 c 0,27,28
 349 735 349 735 353 759 c 0,29,30
 377 900 377 900 553 1020 c 1,31,-1
 727 919 l 1,32,33
 640 874 640 874 616 785 c 0,34,35
 613 774 613 774 613 764 c 0,36,37
 613 687 613 687 760 611 c 2,38,-1
 909 534 l 2,39,40
 1064 454 1064 454 1064 314 c 0,41,42
 1064 289 1064 289 1059 262 c 0,43,44
 1035 135 1035 135 903 52 c 0,45,46
 789 -20 789 -20 622 -20 c 0,0,1
1044 1530 m 0,47,48
 1187 1530 1187 1530 1277 1453 c 0,49,50
 1360 1381 1360 1381 1360 1296 c 0,51,52
 1360 1232 1360 1232 1321 1187 c 0,53,54
 1275 1135 1275 1135 1204 1135 c 0,55,56
 1129 1135 1129 1135 1088 1180 c 0,57,58
 1049 1224 1049 1224 1049 1282 c 0,59,60
 1049 1362 1049 1362 1125 1404 c 1,61,62
 1092 1427 1092 1427 1032 1427 c 0,63,64
 969 1427 969 1427 925 1396 c 0,65,66
 876 1361 876 1361 859 1300 c 0,67,68
 855 1287 855 1287 855 1274 c 0,69,70
 855 1197 855 1197 984 1132 c 2,71,-1
 1121 1063 l 2,72,73
 1317 964 1317 964 1317 799 c 0,74,75
 1317 775 1317 775 1313 751 c 0,76,77
 1289 610 1289 610 1113 490 c 1,78,-1
 939 591 l 1,79,80
 1026 636 1026 636 1050 725 c 0,81,82
 1053 736 1053 736 1053 746 c 0,83,84
 1053 823 1053 823 906 899 c 2,85,-1
 757 976 l 2,86,87
 602 1056 602 1056 602 1196 c 0,88,89
 602 1221 602 1221 607 1248 c 0,90,91
 631 1375 631 1375 763 1458 c 0,92,93
 877 1530 877 1530 1044 1530 c 0,47,48
EndSplineSet
Validated: 1
EndChar

StartChar: dieresis
Encoding: 168 168 94
Width: 758
GlyphClass: 2
Flags: W
HStem: 1170 314<451.411 668.589 799.411 1016.59>
VStem: 405 310<1217.44 1436.56> 753 310<1217.44 1436.56>
LayerCount: 2
Fore
SplineSet
908 1484 m 128,-1,1
 973 1484 973 1484 1018 1438 c 128,-1,2
 1063 1392 1063 1392 1063 1327 c 128,-1,3
 1063 1262 1063 1262 1018 1216 c 128,-1,4
 973 1170 973 1170 908 1170 c 128,-1,5
 843 1170 843 1170 798 1216 c 128,-1,6
 753 1262 753 1262 753 1327 c 128,-1,7
 753 1392 753 1392 798 1438 c 128,-1,0
 843 1484 843 1484 908 1484 c 128,-1,1
560 1484 m 128,-1,9
 625 1484 625 1484 670 1438 c 128,-1,10
 715 1392 715 1392 715 1327 c 128,-1,11
 715 1262 715 1262 670 1216 c 128,-1,12
 625 1170 625 1170 560 1170 c 128,-1,13
 495 1170 495 1170 450 1216 c 128,-1,14
 405 1262 405 1262 405 1327 c 128,-1,15
 405 1392 405 1392 450 1438 c 128,-1,8
 495 1484 495 1484 560 1484 c 128,-1,9
EndSplineSet
Validated: 1
EndChar

StartChar: guillemotleft
Encoding: 171 171 95
Width: 1338
GlyphClass: 2
Flags: W
DStem2: 557 778 346 730 0.402618 -0.915368<0 508.127> 346 730 557 778 0.681741 0.731594<178.964 840.414> 996 778 785 730 0.402618 -0.915368<0 508.127> 785 730 996 778 0.681741 0.731594<178.964 840.414>
LayerCount: 2
Fore
SplineSet
1368 1336 m 0,0,1
 1381 1336 1381 1336 1391 1328 c 2,2,-1
 1430 1298 l 2,3,4
 1442 1289 1442 1289 1442 1275 c 0,5,6
 1442 1258 1442 1258 1427 1242 c 2,7,-1
 996 778 l 1,8,-1
 1195 344 l 2,9,10
 1202 329 1202 329 1202 313 c 0,11,12
 1202 286 1202 286 1160 258 c 2,13,-1
 1090 212 l 2,14,15
 1066 196 1066 196 1046 196 c 0,16,17
 1020 196 1020 196 1008 223 c 2,18,-1
 785 730 l 1,19,-1
 1332 1317 l 2,20,21
 1350 1336 1350 1336 1368 1336 c 0,0,1
929 1336 m 0,22,23
 942 1336 942 1336 952 1328 c 2,24,-1
 991 1298 l 2,25,26
 1003 1289 1003 1289 1003 1275 c 0,27,28
 1003 1258 1003 1258 988 1242 c 2,29,-1
 557 778 l 1,30,-1
 756 344 l 2,31,32
 763 329 763 329 763 313 c 0,33,34
 763 286 763 286 721 258 c 2,35,-1
 651 212 l 2,36,37
 627 196 627 196 607 196 c 0,38,39
 581 196 581 196 569 223 c 2,40,-1
 346 730 l 1,41,-1
 893 1317 l 2,42,43
 911 1336 911 1336 929 1336 c 0,22,23
EndSplineSet
Validated: 1
EndChar

StartChar: logicalnot
Encoding: 172 172 96
Width: 1373
GlyphClass: 2
Flags: W
HStem: 649 211<371.661 1131>
DStem2: 915 393 1098 390 0.643099 0.765783<24.707 334.95>
LayerCount: 2
Fore
SplineSet
445 860 m 2,0,-1
 1394 860 l 2,1,2
 1439 860 1439 860 1439 817 c 0,3,4
 1439 796 1439 796 1423 777 c 2,5,-1
 1098 390 l 2,6,7
 1064 349 1064 349 1023 349 c 2,8,-1
 923 349 l 2,9,10
 903 349 903 349 903 366 c 0,11,12
 903 379 903 379 915 393 c 2,13,-1
 1131 649 l 1,14,-1
 388 649 l 2,15,16
 336 649 336 649 336 689 c 0,17,18
 336 701 336 701 340 714 c 2,19,-1
 363 795 l 2,20,21
 382 860 382 860 445 860 c 2,0,-1
EndSplineSet
Validated: 1
EndChar

StartChar: uni00AD
Encoding: 173 173 97
Width: 1373
GlyphClass: 2
Flags: W
HStem: 649 211<371.328 1405.67>
LayerCount: 2
Fore
SplineSet
445 860 m 2,0,-1
 1388 860 l 2,1,2
 1440 860 1440 860 1440 819 c 0,3,4
 1440 808 1440 808 1436 795 c 2,5,-1
 1414 714 l 2,6,7
 1397 649 1397 649 1332 649 c 2,8,-1
 389 649 l 2,9,10
 337 649 337 649 337 690 c 0,11,12
 337 701 337 701 341 714 c 2,13,-1
 363 795 l 2,14,15
 380 860 380 860 445 860 c 2,0,-1
EndSplineSet
Validated: 1
EndChar

StartChar: registered
Encoding: 174 174 98
Width: 1405
GlyphClass: 2
Flags: W
HStem: 386 64<655.04 990.47> 591 97<1026.5 1250.57> 591 81<562.152 712.5> 1116 21G<608 705.5> 1304 71<869.229 1100.4> 1466 64<928.558 1261.96>
VStem: 382 77<624.327 999.014> 533 14<707.895 724> 965 192<688.299 812.805> 1134 211<1006.04 1279.92> 1461 75<916.456 1285.76>
DStem2: 547.773 386 747.074 386 0.258819 0.965926<313.689 517.547 580.711 866.274>
LayerCount: 2
Fore
SplineSet
1113 1530 m 0,0,1
 1340 1530 1340 1530 1459 1369 c 0,2,3
 1536 1266 1536 1266 1536 1126 c 0,4,5
 1536 1050 1536 1050 1513 963 c 0,6,7
 1445 706 1445 706 1239 549 c 0,8,9
 1024 386 1024 386 804 386 c 0,10,11
 577 386 577 386 458 547 c 0,12,13
 382 649 382 649 382 787 c 0,14,15
 382 865 382 865 406 954 c 0,16,17
 473 1200 473 1200 678 1367 c 0,18,19
 879 1530 879 1530 1113 1530 c 0,0,1
1091 1466 m 0,20,21
 917 1466 917 1466 721 1312 c 0,22,23
 533 1165 533 1165 481 953 c 0,24,25
 459 864 459 864 459 790 c 0,26,27
 459 671 459 671 516 593 c 0,28,29
 620 450 620 450 826 450 c 0,30,31
 1006 450 1006 450 1201 605 c 0,32,33
 1383 750 1383 750 1439 963 c 0,34,35
 1461 1049 1461 1049 1461 1121 c 0,36,37
 1461 1240 1461 1240 1401 1323 c 0,38,39
 1297 1466 1297 1466 1091 1466 c 0,20,21
1068 1375 m 0,40,41
 1238 1375 1238 1375 1303 1292 c 0,42,43
 1345 1238 1345 1238 1345 1165 c 0,44,45
 1345 1136 1345 1136 1338 1104 c 0,46,47
 1315 992 1315 992 1237 925.5 c 128,-1,48
 1159 859 1159 859 1064 835 c 1,49,50
 1157 823 1157 823 1157 754 c 2,51,-1
 1157 737 l 2,52,53
 1157 688 1157 688 1210 688 c 0,54,55
 1247 688 1247 688 1288 747 c 1,56,-1
 1302 747 l 1,57,58
 1276 675 1276 675 1235 643 c 0,59,60
 1169 591 1169 591 1088 591 c 0,61,62
 965 591 965 591 965 705 c 2,63,-1
 965 739 l 2,64,65
 965 801 965 801 884 831 c 0,66,67
 876 834 876 834 868 836 c 1,68,-1
 843 744 l 2,69,70
 824 675 824 675 796 643 c 0,71,72
 750 591 750 591 675 591 c 0,73,74
 533 591 533 591 533 724 c 1,75,-1
 547 724 l 1,76,77
 562 672 562 672 591 672 c 0,78,79
 624 672 624 672 637 719 c 2,80,-1
 757 1167 l 2,81,82
 769 1212 769 1212 829 1212 c 2,83,-1
 909 1212 l 2,84,85
 959 1212 959 1212 959 1181 c 0,86,87
 959 1175 959 1175 957 1167 c 2,88,-1
 894 934 l 1,89,90
 894 884 894 884 943 884 c 0,91,92
 976 884 976 884 1006 906 c 0,93,94
 1088 967 1088 967 1119 1081 c 0,95,96
 1134 1136 1134 1136 1134 1178 c 0,97,98
 1134 1304 1134 1304 997 1304 c 0,99,100
 785 1304 785 1304 626 1116 c 1,101,-1
 608 1124 l 1,102,103
 781 1375 781 1375 1068 1375 c 0,40,41
EndSplineSet
Validated: 1
EndChar

StartChar: macron
Encoding: 175 175 99
Width: 770
GlyphClass: 2
Flags: W
HStem: 1230 161<410.969 1061.03>
LayerCount: 2
Fore
SplineSet
463 1391 m 2,0,-1
 1053 1391 l 2,1,2
 1084 1391 1084 1391 1084 1367 c 0,3,4
 1084 1358 1084 1358 1082 1351 c 2,5,-1
 1060 1270 l 2,6,7
 1049 1230 1049 1230 1010 1230 c 2,8,-1
 420 1230 l 2,9,10
 388 1230 388 1230 388 1255 c 0,11,12
 388 1263 388 1263 390 1270 c 2,13,-1
 412 1351 l 2,14,15
 423 1391 423 1391 463 1391 c 2,0,-1
EndSplineSet
Validated: 1
EndChar

StartChar: degree
Encoding: 176 176 100
Width: 680
GlyphClass: 2
Flags: W
HStem: 1019 52<568.107 699.95> 1542 52<682.765 812.051>
VStem: 388 164<1096.48 1371.32> 827 165<1242.42 1501.33>
LayerCount: 2
Fore
SplineSet
767 1594 m 0,0,1
 875 1594 875 1594 940 1524 c 0,2,3
 992 1468 992 1468 992 1388 c 0,4,5
 992 1350 992 1350 980 1306 c 0,6,7
 942 1166 942 1166 824 1088 c 0,8,9
 721 1019 721 1019 614 1019 c 0,10,11
 504 1019 504 1019 440 1088 c 0,12,13
 388 1144 388 1144 388 1225 c 0,14,15
 388 1263 388 1263 400 1307 c 0,16,17
 436 1442 436 1442 556 1524 c 0,18,19
 658 1594 658 1594 767 1594 c 0,0,1
753 1542 m 0,20,21
 697 1542 697 1542 655 1488 c 0,22,23
 610 1431 610 1431 576 1307 c 0,24,25
 552 1218 552 1218 552 1162 c 0,26,27
 552 1140 552 1140 556 1124 c 0,28,29
 568 1071 568 1071 627.5 1071 c 128,-1,30
 687 1071 687 1071 726 1124 c 0,31,32
 768 1181 768 1181 802 1306 c 0,33,34
 827 1401 827 1401 827 1455 c 0,35,36
 827 1474 827 1474 824 1488 c 0,37,38
 812 1542 812 1542 753 1542 c 0,20,21
EndSplineSet
Validated: 1
EndChar

StartChar: plusminus
Encoding: 177 177 101
Width: 1473
GlyphClass: 2
Flags: W
HStem: 130 211<282.328 1316.67> 801 211<461.328 845 1112 1495.67>
DStem2: 665.275 130 876.275 130 0.258819 0.965926<292.947 694.652 967.567 1369.6>
LayerCount: 2
Fore
SplineSet
1082 1443 m 2,0,-1
 1163 1443 l 2,1,2
 1215 1443 1215 1443 1215 1402 c 0,3,4
 1215 1391 1215 1391 1211 1378 c 2,5,-1
 1112 1012 l 1,6,-1
 1478 1012 l 2,7,8
 1530 1012 1530 1012 1530 971 c 0,9,10
 1530 960 1530 960 1526 947 c 2,11,-1
 1504 866 l 2,12,13
 1487 801 1487 801 1422 801 c 2,14,-1
 1056 801 l 1,15,-1
 958 435 l 2,16,17
 941 370 941 370 875 370 c 2,18,-1
 794 370 l 2,19,20
 743 370 743 370 743 410 c 0,21,22
 743 421 743 421 747 435 c 2,23,-1
 845 801 l 1,24,-1
 479 801 l 2,25,26
 427 801 427 801 427 842 c 0,27,28
 427 853 427 853 431 866 c 2,29,-1
 453 947 l 2,30,31
 470 1012 470 1012 535 1012 c 2,32,-1
 901 1012 l 1,33,-1
 1000 1378 l 2,34,35
 1017 1443 1017 1443 1082 1443 c 2,0,-1
356 341 m 2,36,-1
 1299 341 l 2,37,38
 1351 341 1351 341 1351 300 c 0,39,40
 1351 289 1351 289 1347 276 c 2,41,-1
 1325 195 l 2,42,43
 1308 130 1308 130 1243 130 c 2,44,-1
 300 130 l 2,45,46
 248 130 248 130 248 171 c 0,47,48
 248 182 248 182 252 195 c 2,49,-1
 274 276 l 2,50,51
 291 341 291 341 356 341 c 2,36,-1
EndSplineSet
Validated: 1
EndChar

StartChar: acute
Encoding: 180 180 102
Width: 464
GlyphClass: 2
Flags: W
HStem: 1160 348
VStem: 367 422
LayerCount: 2
Fore
SplineSet
682 1508 m 0,0,1
 747 1508 747 1508 775 1458 c 0,2,3
 789 1433 789 1433 789 1398 c 0,4,5
 789 1306 789 1306 680 1267 c 2,6,-1
 381 1160 l 1,7,-1
 367 1184 l 1,8,-1
 578 1450 l 2,9,10
 624 1508 624 1508 682 1508 c 0,0,1
EndSplineSet
Validated: 1
EndChar

StartChar: uni00B5
Encoding: 181 181 103
Width: 1390
GlyphClass: 2
Flags: W
HStem: -430 21G<407 619> -20 142<591.965 778.482 1096.47 1292.18> 976 144<392.823 643> 1080 20G<1204.5 1416.5>
VStem: 199 293<-299.792 -15.7333> 460 301<734.469 973.637>
DStem2: 104.782 -430 404.533 -430 0.258819 0.965926<348.709 514.829 799.613 1390.53> 754.474 -430 1055.15 -430 0.258819 0.965926<716.401 1590.48>
LayerCount: 2
Fore
SplineSet
1114 -20 m 0,0,1
 966 -20 966 -20 933 83 c 0,2,3
 924 112 924 112 924 148 c 1,4,5
 792 -20 792 -20 585 -20 c 0,6,7
 552 -20 552 -20 516 -14 c 1,8,9
 492 -103 492 -103 492 -175 c 0,10,11
 492 -341 492 -341 619 -415 c 1,12,-1
 615 -430 l 1,13,14
 199 -430 199 -430 199 -144 c 0,15,16
 199 -79 199 -79 220 0 c 2,17,-1
 453 870 l 2,18,19
 460 896 460 896 460 915 c 0,20,21
 460 976 460 976 394 976 c 0,22,23
 324 976 324 976 258 870 c 1,24,-1
 243 870 l 1,25,26
 270 965 270 965 322 1020 c 0,27,28
 416 1120 416 1120 571 1120 c 0,29,30
 715 1120 715 1120 752 1017 c 0,31,32
 761 991 761 991 761 955 c 0,33,34
 761 899 761 899 740 821 c 2,35,-1
 626 397 l 2,36,37
 605 319 605 319 605 262 c 0,38,39
 605 227 605 227 613 203 c 0,40,41
 640 122 640 122 732 122 c 0,42,43
 821 122 821 122 898 216 c 0,44,45
 942 270 942 270 976 397 c 2,46,-1
 1143 1020 l 2,47,48
 1164 1100 1164 1100 1245 1100 c 2,49,-1
 1385 1100 l 2,50,51
 1448 1100 1448 1100 1448 1051 c 0,52,53
 1448 1039 1448 1039 1443 1020 c 2,54,-1
 1232 230 l 2,55,56
 1225 204 1225 204 1225 185 c 0,57,58
 1225 124 1225 124 1291 124 c 0,59,60
 1361 124 1361 124 1427 230 c 1,61,-1
 1442 230 l 1,62,63
 1415 135 1415 135 1363 80 c 0,64,65
 1269 -20 1269 -20 1114 -20 c 0,0,1
EndSplineSet
Validated: 1
EndChar

StartChar: paragraph
Encoding: 182 182 104
Width: 1222
GlyphClass: 2
Flags: W
HStem: 0 85<786 886> 1510 20G<946 1180>
DStem2: 651.564 0 763.224 0 0.258819 0.965926<116.898 755.967> 863.224 0 971.564 0 0.258819 0.965926<87.9985 1287.74>
LayerCount: 2
Fore
SplineSet
732 0 m 2,0,1
 669 0 669 0 669 50 c 0,2,3
 669 63 669 63 673 80 c 2,4,-1
 848 730 l 1,5,6
 616 730 616 730 522 818 c 0,7,8
 437 898 437 898 437 1020 c 0,9,10
 437 1074 437 1074 454 1136 c 0,11,12
 509 1342 509 1342 704 1449 c 0,13,14
 851 1530 851 1530 1041 1530 c 0,15,16
 1319 1530 1319 1530 1319 1340 c 0,17,18
 1319 1297 1319 1297 1305 1244 c 2,19,-1
 993 80 l 2,20,21
 972 0 972 0 892 0 c 2,22,-1
 732 0 l 2,0,1
886 85 m 1,23,-1
 1196 1244 l 1,24,-1
 1096 1244 l 1,25,-1
 786 85 l 1,26,-1
 886 85 l 1,23,-1
EndSplineSet
Validated: 1
EndChar

StartChar: periodcentered
Encoding: 183 183 105
Width: 464
GlyphClass: 2
Flags: W
HStem: 569 370<315.14 552.86>
VStem: 252 364<631.578 876.422>
LayerCount: 2
Fore
SplineSet
434 569 m 128,-1,1
 358 569 358 569 305 623 c 128,-1,2
 252 677 252 677 252 754 c 128,-1,3
 252 831 252 831 305 885 c 128,-1,4
 358 939 358 939 434 939 c 128,-1,5
 510 939 510 939 563 885 c 128,-1,6
 616 831 616 831 616 754 c 128,-1,7
 616 677 616 677 563 623 c 128,-1,0
 510 569 510 569 434 569 c 128,-1,1
EndSplineSet
Validated: 1
EndChar

StartChar: cedilla
Encoding: 184 184 106
Width: 435
GlyphClass: 2
Flags: W
HStem: -430 138<-40.2197 105.86> -107 107<59 114.21>
VStem: 137 195<-260.566 -129.627>
LayerCount: 2
Fore
SplineSet
59 0 m 1,0,-1
 209 0 l 1,1,-1
 199 -39 l 1,2,3
 253 -49 253 -49 289 -82 c 0,4,5
 332 -121 332 -121 332 -176 c 0,6,7
 332 -197 332 -197 326 -221 c 0,8,9
 305 -298 305 -298 231 -356 c 0,10,11
 136 -430 136 -430 -30 -430 c 0,12,13
 -58 -430 -58 -430 -58 -408 c 0,14,15
 -58 -403 -58 -403 -56 -395 c 2,16,-1
 -38 -327 l 2,17,18
 -29 -292 -29 -292 10 -292 c 0,19,20
 55 -292 55 -292 89 -265 c 0,21,22
 124 -237 124 -237 134 -197 c 0,23,24
 137 -186 137 -186 137 -176 c 0,25,26
 137 -149 137 -149 115 -129 c 0,27,28
 90 -107 90 -107 30 -107 c 1,29,-1
 59 0 l 1,0,-1
EndSplineSet
Validated: 1
EndChar

StartChar: guillemotright
Encoding: 187 187 107
Width: 1338
GlyphClass: 2
Flags: W
DStem2: 322 290 417 215 0.681741 0.731594<-28.1602 633.29> 964 802 753 754 0.402618 -0.915368<-549.142 -41.0146> 761 290 856 215 0.681741 0.731594<-28.1602 633.29> 1403 802 1192 754 0.402618 -0.915368<-549.142 -41.0146>
LayerCount: 2
Fore
SplineSet
703 1336 m 0,0,1
 729 1336 729 1336 741 1309 c 2,2,-1
 964 802 l 1,3,-1
 417 215 l 2,4,5
 399 196 399 196 381 196 c 0,6,7
 368 196 368 196 358 204 c 2,8,-1
 319 234 l 2,9,10
 307 243 307 243 307 257 c 0,11,12
 307 274 307 274 322 290 c 2,13,-1
 753 754 l 1,14,-1
 554 1188 l 2,15,16
 547 1203 547 1203 547 1219 c 0,17,18
 547 1246 547 1246 589 1274 c 2,19,-1
 659 1320 l 2,20,21
 683 1336 683 1336 703 1336 c 0,0,1
1142 1336 m 0,22,23
 1168 1336 1168 1336 1180 1309 c 2,24,-1
 1403 802 l 1,25,-1
 856 215 l 2,26,27
 838 196 838 196 820 196 c 0,28,29
 807 196 807 196 797 204 c 2,30,-1
 758 234 l 2,31,32
 746 243 746 243 746 257 c 0,33,34
 746 274 746 274 761 290 c 2,35,-1
 1192 754 l 1,36,-1
 993 1188 l 2,37,38
 986 1203 986 1203 986 1219 c 0,39,40
 986 1246 986 1246 1028 1274 c 2,41,-1
 1098 1320 l 2,42,43
 1122 1336 1122 1336 1142 1336 c 0,22,23
EndSplineSet
Validated: 1
EndChar

StartChar: questiondown
Encoding: 191 191 108
Width: 1376
VWidth: 1638
GlyphClass: 2
Flags: W
HStem: -428 126<530.723 808.922> 752 370<885.14 1122.86>
VStem: 135 341<-247.863 60.8115> 822 364<814.578 1059.42> 864 364<-88.6094 156.41>
LayerCount: 2
Fore
SplineSet
1004 1122 m 128,-1,1
 1080 1122 1080 1122 1133 1068 c 128,-1,2
 1186 1014 1186 1014 1186 937 c 128,-1,3
 1186 860 1186 860 1133 806 c 128,-1,4
 1080 752 1080 752 1004 752 c 128,-1,5
 928 752 928 752 875 806 c 128,-1,6
 822 860 822 860 822 937 c 128,-1,7
 822 1014 822 1014 875 1068 c 128,-1,0
 928 1122 928 1122 1004 1122 c 128,-1,1
549 -428 m 0,8,9
 299 -428 299 -428 201 -303 c 0,10,11
 135 -219 135 -219 135 -108 c 0,12,13
 135 -63 135 -63 146 -13 c 0,14,15
 198 221 198 221 451 372 c 2,16,-1
 772 564 l 2,17,18
 848 610 848 610 864 668 c 0,19,20
 873 702 873 702 912 702 c 2,21,-1
 976 702 l 2,22,23
 1008 702 1008 702 1008 680 c 0,24,25
 1008 676 1008 676 1006 668 c 0,26,27
 970 525 970 525 860 433 c 2,28,-1
 736 329 l 2,29,30
 539 164 539 164 490 -18 c 0,31,32
 476 -70 476 -70 476 -113 c 0,33,34
 476 -166 476 -166 496 -211 c 0,35,36
 537 -302 537 -302 664 -302 c 0,37,38
 770 -302 770 -302 864 -252 c 0,39,40
 956 -203 956 -203 1020 -142 c 1,41,42
 960 -138 960 -138 917 -97 c 0,43,44
 864 -46 864 -46 864 32 c 0,45,46
 864 111 864 111 917 165 c 128,-1,47
 970 219 970 219 1046 219 c 128,-1,48
 1122 219 1122 219 1175 165 c 128,-1,49
 1228 111 1228 111 1228 34 c 0,50,51
 1228 -40 1228 -40 1182 -105 c 0,52,53
 1116 -198 1116 -198 1012 -275 c 0,54,55
 806 -428 806 -428 549 -428 c 0,8,9
EndSplineSet
Validated: 1
EndChar

StartChar: endash
Encoding: 8211 8211 109
Width: 1373
GlyphClass: 2
Flags: W
HStem: 649 211<371.328 1405.67>
LayerCount: 2
Fore
SplineSet
445 860 m 2,0,-1
 1388 860 l 2,1,2
 1440 860 1440 860 1440 819 c 0,3,4
 1440 808 1440 808 1436 795 c 2,5,-1
 1414 714 l 2,6,7
 1397 649 1397 649 1332 649 c 2,8,-1
 389 649 l 2,9,10
 337 649 337 649 337 690 c 0,11,12
 337 701 337 701 341 714 c 2,13,-1
 363 795 l 2,14,15
 380 860 380 860 445 860 c 2,0,-1
EndSplineSet
Validated: 1
EndChar

StartChar: emdash
Encoding: 8212 8212 110
Width: 1653
GlyphClass: 2
Flags: W
HStem: 649 211<371.328 1685.67>
LayerCount: 2
Fore
SplineSet
445 860 m 2,0,-1
 1668 860 l 2,1,2
 1720 860 1720 860 1720 819 c 0,3,4
 1720 810 1720 810 1716 795 c 2,5,-1
 1694 714 l 2,6,7
 1676 649 1676 649 1612 649 c 2,8,-1
 389 649 l 2,9,10
 337 649 337 649 337 690 c 0,11,12
 337 699 337 699 341 714 c 2,13,-1
 363 795 l 2,14,15
 381 860 381 860 445 860 c 2,0,-1
EndSplineSet
Validated: 1
EndChar

StartChar: afii00208
Encoding: 8213 8213 111
Width: 1653
GlyphClass: 2
Flags: W
HStem: 649 211<371.328 1685.67>
LayerCount: 2
Fore
SplineSet
445 860 m 2,0,-1
 1668 860 l 2,1,2
 1720 860 1720 860 1720 819 c 0,3,4
 1720 810 1720 810 1716 795 c 2,5,-1
 1694 714 l 2,6,7
 1676 649 1676 649 1612 649 c 2,8,-1
 389 649 l 2,9,10
 337 649 337 649 337 690 c 0,11,12
 337 699 337 699 341 714 c 2,13,-1
 363 795 l 2,14,15
 381 860 381 860 445 860 c 2,0,-1
EndSplineSet
Validated: 1
EndChar

StartChar: quoteleft
Encoding: 8216 8216 112
Width: 513
GlyphClass: 2
Flags: W
HStem: 1486 30<832.73 891>
VStem: 383 386<1074.06 1306.74>
LayerCount: 2
Fore
SplineSet
529 1008 m 0,0,1
 450 1029 450 1029 411 1098 c 0,2,3
 383 1148 383 1148 383 1208 c 0,4,5
 383 1245 383 1245 394 1285 c 0,6,7
 426 1403 426 1403 532 1477 c 0,8,9
 622 1539 622 1539 743 1539 c 0,10,11
 815 1539 815 1539 899 1516 c 1,12,-1
 891 1486 l 1,13,14
 798 1474 798 1474 726 1440 c 0,15,16
 670 1412 670 1412 633 1363 c 1,17,18
 709 1343 709 1343 746 1279 c 0,19,20
 769 1239 769 1239 769 1194 c 0,21,22
 769 1168 769 1168 761 1139 c 0,23,24
 741 1063 741 1063 677 1024 c 0,25,26
 636 1000 636 1000 588 1000 c 0,27,28
 560 1000 560 1000 529 1008 c 0,0,1
EndSplineSet
Validated: 1
EndChar

StartChar: quoteright
Encoding: 8217 8217 113
Width: 513
GlyphClass: 2
Flags: W
HStem: 1057 30<311 369.27>
VStem: 433 386<1266.26 1498.94>
LayerCount: 2
Fore
SplineSet
673 1565 m 0,0,1
 752 1544 752 1544 791 1475 c 0,2,3
 819 1425 819 1425 819 1365 c 0,4,5
 819 1328 819 1328 808 1288 c 0,6,7
 776 1170 776 1170 670 1096 c 0,8,9
 580 1034 580 1034 459 1034 c 0,10,11
 387 1034 387 1034 303 1057 c 1,12,-1
 311 1087 l 1,13,14
 404 1099 404 1099 476 1133 c 0,15,16
 532 1161 532 1161 569 1210 c 1,17,18
 493 1230 493 1230 456 1294 c 0,19,20
 433 1334 433 1334 433 1379 c 0,21,22
 433 1405 433 1405 441 1434 c 0,23,24
 461 1510 461 1510 525 1549 c 0,25,26
 566 1573 566 1573 614 1573 c 0,27,28
 642 1573 642 1573 673 1565 c 0,0,1
EndSplineSet
Validated: 1
EndChar

StartChar: quotesinglbase
Encoding: 8218 8218 114
Width: 513
GlyphClass: 2
Flags: W
HStem: -172 30<-18 40.2695>
VStem: 104 386<37.2617 269.944>
LayerCount: 2
Fore
SplineSet
344 336 m 0,0,1
 423 315 423 315 462 246 c 0,2,3
 490 196 490 196 490 136 c 0,4,5
 490 99 490 99 479 59 c 0,6,7
 447 -59 447 -59 341 -133 c 0,8,9
 251 -195 251 -195 130 -195 c 0,10,11
 58 -195 58 -195 -26 -172 c 1,12,-1
 -18 -142 l 1,13,14
 75 -130 75 -130 147 -96 c 0,15,16
 203 -68 203 -68 240 -19 c 1,17,18
 164 1 164 1 127 65 c 0,19,20
 104 105 104 105 104 150 c 0,21,22
 104 176 104 176 112 205 c 0,23,24
 132 281 132 281 196 320 c 0,25,26
 237 344 237 344 285 344 c 0,27,28
 313 344 313 344 344 336 c 0,0,1
EndSplineSet
Validated: 1
EndChar

StartChar: quotereversed
Encoding: 8219 8219 115
Width: 543
GlyphClass: 2
Flags: W
HStem: 941 30<739.098 749.823> 1199 374<593.216 756.819>
VStem: 413 410<1263.47 1473.09>
LayerCount: 2
Fore
SplineSet
679 1566 m 0,0,1
 763 1543 763 1543 800 1478 c 0,2,3
 823 1436 823 1436 823 1390 c 0,4,5
 823 1364 823 1364 815 1336 c 0,6,7
 794 1259 794 1259 732 1223 c 0,8,9
 691 1199 691 1199 645 1199 c 0,10,11
 619 1199 619 1199 592 1206 c 1,12,13
 600 1146 600 1146 635 1094 c 0,14,15
 679 1028 679 1028 754 971 c 1,16,-1
 746 941 l 1,17,18
 524 1001 524 1001 448 1158 c 0,19,20
 413 1233 413 1233 413 1308 c 0,21,22
 413 1351 413 1351 424 1393 c 0,23,24
 453 1501 453 1501 532 1547 c 0,25,26
 577 1573 577 1573 627 1573 c 0,27,28
 652 1573 652 1573 679 1566 c 0,0,1
EndSplineSet
Validated: 1
EndChar

StartChar: quotedblleft
Encoding: 8220 8220 116
Width: 971
GlyphClass: 2
Flags: W
HStem: 1486 30<832.73 891 1290.73 1349>
VStem: 383 386<1074.06 1306.74> 841 386<1074.06 1306.74>
LayerCount: 2
Fore
SplineSet
987 1008 m 0,0,1
 908 1029 908 1029 869 1098 c 0,2,3
 841 1148 841 1148 841 1208 c 0,4,5
 841 1245 841 1245 852 1285 c 0,6,7
 884 1403 884 1403 990 1477 c 0,8,9
 1080 1539 1080 1539 1201 1539 c 0,10,11
 1273 1539 1273 1539 1357 1516 c 1,12,-1
 1349 1486 l 1,13,14
 1256 1474 1256 1474 1184 1440 c 0,15,16
 1128 1412 1128 1412 1091 1363 c 1,17,18
 1167 1343 1167 1343 1204 1279 c 0,19,20
 1227 1239 1227 1239 1227 1194 c 0,21,22
 1227 1168 1227 1168 1219 1139 c 0,23,24
 1199 1063 1199 1063 1135 1024 c 0,25,26
 1094 1000 1094 1000 1046 1000 c 0,27,28
 1018 1000 1018 1000 987 1008 c 0,0,1
529 1008 m 0,29,30
 450 1029 450 1029 411 1098 c 0,31,32
 383 1148 383 1148 383 1208 c 0,33,34
 383 1245 383 1245 394 1285 c 0,35,36
 426 1403 426 1403 532 1477 c 0,37,38
 622 1539 622 1539 743 1539 c 0,39,40
 815 1539 815 1539 899 1516 c 1,41,-1
 891 1486 l 1,42,43
 798 1474 798 1474 726 1440 c 0,44,45
 670 1412 670 1412 633 1363 c 1,46,47
 709 1343 709 1343 746 1279 c 0,48,49
 769 1239 769 1239 769 1194 c 0,50,51
 769 1168 769 1168 761 1139 c 0,52,53
 741 1063 741 1063 677 1024 c 0,54,55
 636 1000 636 1000 588 1000 c 0,56,57
 560 1000 560 1000 529 1008 c 0,29,30
EndSplineSet
Validated: 1
EndChar

StartChar: quotedblright
Encoding: 8221 8221 117
Width: 956
GlyphClass: 2
Flags: W
HStem: 1057 30<311 369.27 754 812.27>
VStem: 433 386<1266.26 1498.94> 876 386<1266.26 1498.94>
LayerCount: 2
Fore
SplineSet
1116 1565 m 0,0,1
 1195 1544 1195 1544 1234 1475 c 0,2,3
 1262 1425 1262 1425 1262 1365 c 0,4,5
 1262 1328 1262 1328 1251 1288 c 0,6,7
 1219 1170 1219 1170 1113 1096 c 0,8,9
 1023 1034 1023 1034 902 1034 c 0,10,11
 830 1034 830 1034 746 1057 c 1,12,-1
 754 1087 l 1,13,14
 847 1099 847 1099 919 1133 c 0,15,16
 975 1161 975 1161 1012 1210 c 1,17,18
 936 1230 936 1230 899 1294 c 0,19,20
 876 1334 876 1334 876 1379 c 0,21,22
 876 1405 876 1405 884 1434 c 0,23,24
 904 1510 904 1510 968 1549 c 0,25,26
 1009 1573 1009 1573 1057 1573 c 0,27,28
 1085 1573 1085 1573 1116 1565 c 0,0,1
673 1565 m 0,29,30
 752 1544 752 1544 791 1475 c 0,31,32
 819 1425 819 1425 819 1365 c 0,33,34
 819 1328 819 1328 808 1288 c 0,35,36
 776 1170 776 1170 670 1096 c 0,37,38
 580 1034 580 1034 459 1034 c 0,39,40
 387 1034 387 1034 303 1057 c 1,41,-1
 311 1087 l 1,42,43
 404 1099 404 1099 476 1133 c 0,44,45
 532 1161 532 1161 569 1210 c 1,46,47
 493 1230 493 1230 456 1294 c 0,48,49
 433 1334 433 1334 433 1379 c 0,50,51
 433 1405 433 1405 441 1434 c 0,52,53
 461 1510 461 1510 525 1549 c 0,54,55
 566 1573 566 1573 614 1573 c 0,56,57
 642 1573 642 1573 673 1565 c 0,29,30
EndSplineSet
Validated: 1
EndChar

StartChar: quotedblbase
Encoding: 8222 8222 118
Width: 956
GlyphClass: 2
Flags: W
HStem: -172 30<-18 40.2695 425 483.27>
VStem: 104 386<37.2617 269.944> 547 386<37.2617 269.944>
LayerCount: 2
Fore
SplineSet
787 336 m 0,0,1
 866 315 866 315 905 246 c 0,2,3
 933 196 933 196 933 136 c 0,4,5
 933 99 933 99 922 59 c 0,6,7
 890 -59 890 -59 784 -133 c 0,8,9
 694 -195 694 -195 573 -195 c 0,10,11
 501 -195 501 -195 417 -172 c 1,12,-1
 425 -142 l 1,13,14
 518 -130 518 -130 590 -96 c 0,15,16
 646 -68 646 -68 683 -19 c 1,17,18
 607 1 607 1 570 65 c 0,19,20
 547 105 547 105 547 150 c 0,21,22
 547 176 547 176 555 205 c 0,23,24
 575 281 575 281 639 320 c 0,25,26
 680 344 680 344 728 344 c 0,27,28
 756 344 756 344 787 336 c 0,0,1
344 336 m 0,29,30
 423 315 423 315 462 246 c 0,31,32
 490 196 490 196 490 136 c 0,33,34
 490 99 490 99 479 59 c 0,35,36
 447 -59 447 -59 341 -133 c 0,37,38
 251 -195 251 -195 130 -195 c 0,39,40
 58 -195 58 -195 -26 -172 c 1,41,-1
 -18 -142 l 1,42,43
 75 -130 75 -130 147 -96 c 0,44,45
 203 -68 203 -68 240 -19 c 1,46,47
 164 1 164 1 127 65 c 0,48,49
 104 105 104 105 104 150 c 0,50,51
 104 176 104 176 112 205 c 0,52,53
 132 281 132 281 196 320 c 0,54,55
 237 344 237 344 285 344 c 0,56,57
 313 344 313 344 344 336 c 0,29,30
EndSplineSet
Validated: 1
EndChar

StartChar: dagger
Encoding: 8224 8224 119
Width: 1390
VWidth: 0
GlyphClass: 2
Flags: W
HStem: 885 200<709.668 832 1086 1208.76>
DStem2: 584.147 -40 784.147 -40 0.258819 0.965926<394.037 957.63 1216.56 1303.02>
LayerCount: 2
Fore
SplineSet
679 -40 m 1,0,1
 665 105 665 105 534 159 c 1,2,-1
 536 169 l 1,3,4
 654 221 654 221 694 368 c 2,5,-1
 832 885 l 1,6,-1
 795 885 l 2,7,8
 648 885 648 885 568 781 c 1,9,-1
 558 781 l 1,10,11
 543 927 543 927 413 980 c 1,12,-1
 415 990 l 1,13,14
 574 1043 574 1043 668 1189 c 1,15,-1
 678 1189 l 1,16,17
 701 1085 701 1085 849 1085 c 2,18,-1
 886 1085 l 1,19,-1
 901 1142 l 2,20,21
 913 1186 913 1186 913 1222 c 0,22,23
 913 1305 913 1305 850 1341 c 1,24,-1
 853 1351 l 1,25,26
 1013 1405 1013 1405 1105 1550 c 1,27,-1
 1115 1550 l 1,28,29
 1129 1405 1129 1405 1261 1351 c 1,30,-1
 1258 1341 l 1,31,32
 1140 1287 1140 1287 1101 1142 c 2,33,-1
 1086 1085 l 1,34,-1
 1123 1085 l 2,35,36
 1271 1085 1271 1085 1350 1189 c 1,37,-1
 1360 1189 l 1,38,39
 1375 1043 1375 1043 1505 990 c 1,40,-1
 1503 980 l 1,41,42
 1344 927 1344 927 1250 781 c 1,43,-1
 1240 781 l 1,44,45
 1216 885 1216 885 1069 885 c 2,46,-1
 1032 885 l 1,47,-1
 894 368 l 2,48,49
 882 323 882 323 882 287 c 0,50,51
 882 205 882 205 944 169 c 1,52,-1
 942 159 l 1,53,54
 782 105 782 105 689 -40 c 1,55,-1
 679 -40 l 1,0,1
EndSplineSet
Validated: 1
EndChar

StartChar: daggerdbl
Encoding: 8225 8225 120
Width: 1390
VWidth: 0
GlyphClass: 2
Flags: W
HStem: 425 200<586.238 709 962 1084.33> 885 200<709.668 832 1086 1208.76>
DStem2: 584.404 -40 784.404 -40 0.258819 0.965926<393.971 481.403 740.07 957.564 1216.49 1302.96>
LayerCount: 2
Fore
SplineSet
679 -40 m 1,0,1
 665 105 665 105 534 159 c 1,2,-1
 536 169 l 1,3,4
 654 223 654 223 694 368 c 2,5,-1
 709 425 l 1,6,-1
 672 425 l 2,7,8
 524 425 524 425 445 321 c 1,9,-1
 435 321 l 1,10,11
 420 467 420 467 289 520 c 1,12,-1
 292 530 l 1,13,14
 451 583 451 583 544 729 c 1,15,-1
 554 729 l 1,16,17
 578 625 578 625 725 625 c 2,18,-1
 762 625 l 1,19,-1
 832 885 l 1,20,-1
 795 885 l 2,21,22
 648 885 648 885 568 781 c 1,23,-1
 558 781 l 1,24,25
 543 927 543 927 413 980 c 1,26,-1
 415 990 l 1,27,28
 574 1043 574 1043 668 1189 c 1,29,-1
 678 1189 l 1,30,31
 701 1085 701 1085 849 1085 c 2,32,-1
 886 1085 l 1,33,-1
 901 1142 l 2,34,35
 913 1186 913 1186 913 1222 c 0,36,37
 913 1305 913 1305 850 1341 c 1,38,-1
 853 1351 l 1,39,40
 1013 1405 1013 1405 1105 1550 c 1,41,-1
 1115 1550 l 1,42,43
 1129 1405 1129 1405 1261 1351 c 1,44,-1
 1258 1341 l 1,45,46
 1140 1287 1140 1287 1101 1142 c 2,47,-1
 1086 1085 l 1,48,-1
 1123 1085 l 2,49,50
 1271 1085 1271 1085 1350 1189 c 1,51,-1
 1360 1189 l 1,52,53
 1375 1043 1375 1043 1505 990 c 1,54,-1
 1503 980 l 1,55,56
 1344 927 1344 927 1250 781 c 1,57,-1
 1240 781 l 1,58,59
 1216 885 1216 885 1069 885 c 2,60,-1
 1032 885 l 1,61,-1
 962 625 l 1,62,-1
 999 625 l 2,63,64
 1146 625 1146 625 1226 729 c 1,65,-1
 1236 729 l 1,66,67
 1251 583 1251 583 1382 530 c 1,68,-1
 1379 520 l 1,69,70
 1220 467 1220 467 1127 321 c 1,71,-1
 1117 321 l 1,72,73
 1094 425 1094 425 946 425 c 2,74,-1
 909 425 l 1,75,-1
 894 368 l 2,76,77
 882 323 882 323 882 287 c 0,78,79
 882 205 882 205 944 169 c 1,80,-1
 942 159 l 1,81,82
 782 105 782 105 689 -40 c 1,83,-1
 679 -40 l 1,0,1
EndSplineSet
Validated: 1
EndChar

StartChar: bullet
Encoding: 8226 8226 121
Width: 1028
GlyphClass: 2
Flags: W
HStem: 384 740<540.128 891.872>
VStem: 352 728<575.566 932.434>
LayerCount: 2
Fore
SplineSet
716 1124 m 128,-1,1
 868 1124 868 1124 974 1016 c 128,-1,2
 1080 908 1080 908 1080 754 c 128,-1,3
 1080 600 1080 600 974 492 c 128,-1,4
 868 384 868 384 716 384 c 128,-1,5
 564 384 564 384 458 492 c 128,-1,6
 352 600 352 600 352 754 c 128,-1,7
 352 908 352 908 458 1016 c 128,-1,0
 564 1124 564 1124 716 1124 c 128,-1,1
EndSplineSet
Validated: 1
EndChar

StartChar: ellipsis
Encoding: 8230 8230 122
Width: 1294
GlyphClass: 2
Flags: W
HStem: -20 370<158.14 395.86 574.14 811.86 988.14 1225.86>
VStem: 95 364<42.5779 287.422> 511 364<42.5779 287.422> 925 364<42.5779 287.422>
LayerCount: 2
Fore
SplineSet
1107 -20 m 128,-1,1
 1031 -20 1031 -20 978 34 c 128,-1,2
 925 88 925 88 925 165 c 128,-1,3
 925 242 925 242 978 296 c 128,-1,4
 1031 350 1031 350 1107 350 c 128,-1,5
 1183 350 1183 350 1236 296 c 128,-1,6
 1289 242 1289 242 1289 165 c 128,-1,7
 1289 88 1289 88 1236 34 c 128,-1,0
 1183 -20 1183 -20 1107 -20 c 128,-1,1
693 -20 m 128,-1,9
 617 -20 617 -20 564 34 c 128,-1,10
 511 88 511 88 511 165 c 128,-1,11
 511 242 511 242 564 296 c 128,-1,12
 617 350 617 350 693 350 c 128,-1,13
 769 350 769 350 822 296 c 128,-1,14
 875 242 875 242 875 165 c 128,-1,15
 875 88 875 88 822 34 c 128,-1,8
 769 -20 769 -20 693 -20 c 128,-1,9
277 -20 m 128,-1,17
 201 -20 201 -20 148 34 c 128,-1,18
 95 88 95 88 95 165 c 128,-1,19
 95 242 95 242 148 296 c 128,-1,20
 201 350 201 350 277 350 c 128,-1,21
 353 350 353 350 406 296 c 128,-1,22
 459 242 459 242 459 165 c 128,-1,23
 459 88 459 88 406 34 c 128,-1,16
 353 -20 353 -20 277 -20 c 128,-1,17
EndSplineSet
Validated: 1
EndChar

StartChar: perthousand
Encoding: 8240 8240 123
Width: 2593
GlyphClass: 2
Flags: W
HStem: -20 75<1260.53 1423.91 2025.53 2188.91> 623 75<1392.66 1553.16 2157.66 2318.16> 812 75<677.731 843.237> 1455 75<811.99 972.328>
VStem: 449 210<921.966 1229.83> 993 210<1111.86 1420.18> 1030 210<89.824 398.313> 1574 210<280.343 588.034> 1795 210<89.824 398.313> 2339 210<280.343 588.034>
DStem2: 424 129 613 0 0.654033 0.756466<-46.755 1899.01>
LayerCount: 2
Fore
SplineSet
2248 623 m 128,-1,1
 2182 623 2182 623 2127 556 c 0,2,3
 2071 486 2071 486 2032 339 c 0,4,5
 2005 239 2005 239 2005 175 c 0,6,7
 2005 145 2005 145 2011 122 c 0,8,9
 2029 55 2029 55 2097.5 55 c 128,-1,10
 2166 55 2166 55 2217 122 c 0,11,12
 2273 193 2273 193 2312 339 c 0,13,14
 2339 441 2339 441 2339 504 c 0,15,16
 2339 534 2339 534 2333 556 c 0,17,0
 2314 623 2314 623 2248 623 c 128,-1,1
2076 -20 m 128,-1,19
 1940 -20 1940 -20 1859 66 c 0,20,21
 1795 133 1795 133 1795 234 c 0,22,23
 1795 283 1795 283 1810 340 c 0,24,25
 1856 512 1856 512 2005 612 c 0,26,27
 2131 698 2131 698 2267.5 698 c 128,-1,28
 2404 698 2404 698 2485 612 c 0,29,30
 2549 544 2549 544 2549 444 c 0,31,32
 2549 395 2549 395 2534 339 c 0,33,34
 2488 167 2488 167 2339 66 c 0,35,18
 2212 -20 2212 -20 2076 -20 c 128,-1,19
1685 1550 m 0,36,37
 1705 1550 1705 1550 1724 1537 c 2,38,-1
 1807 1481 l 2,39,40
 1830 1465 1830 1465 1830 1438 c 0,41,42
 1830 1408 1830 1408 1807 1381 c 2,43,-1
 613 0 l 2,44,45
 578 -40 578 -40 547 -40 c 0,46,47
 525 -40 525 -40 506 -27 c 2,48,-1
 423 29 l 2,49,50
 397 47 397 47 397 73 c 0,51,52
 397 98 397 98 424 129 c 2,53,-1
 1618 1510 l 2,54,55
 1653 1550 1653 1550 1685 1550 c 0,36,37
1483 623 m 128,-1,57
 1417 623 1417 623 1362 556 c 0,58,59
 1306 486 1306 486 1267 339 c 0,60,61
 1240 239 1240 239 1240 175 c 0,62,63
 1240 145 1240 145 1246 122 c 0,64,65
 1264 55 1264 55 1332.5 55 c 128,-1,66
 1401 55 1401 55 1452 122 c 0,67,68
 1508 193 1508 193 1547 339 c 0,69,70
 1574 441 1574 441 1574 504 c 0,71,72
 1574 534 1574 534 1568 556 c 0,73,56
 1549 623 1549 623 1483 623 c 128,-1,57
1311 -20 m 128,-1,75
 1175 -20 1175 -20 1094 66 c 0,76,77
 1030 133 1030 133 1030 234 c 0,78,79
 1030 283 1030 283 1045 340 c 0,80,81
 1091 512 1091 512 1240 612 c 0,82,83
 1366 698 1366 698 1502.5 698 c 128,-1,84
 1639 698 1639 698 1720 612 c 0,85,86
 1784 544 1784 544 1784 444 c 0,87,88
 1784 395 1784 395 1769 339 c 0,89,90
 1723 167 1723 167 1574 66 c 0,91,74
 1447 -20 1447 -20 1311 -20 c 128,-1,75
922 1530 m 128,-1,93
 1058 1530 1058 1530 1139 1444 c 0,94,95
 1203 1377 1203 1377 1203 1276 c 0,96,97
 1203 1227 1203 1227 1188 1170 c 0,98,99
 1142 998 1142 998 993 898 c 0,100,101
 867 812 867 812 730.5 812 c 128,-1,102
 594 812 594 812 513 898 c 0,103,104
 449 966 449 966 449 1066 c 0,105,106
 449 1115 449 1115 464 1171 c 0,107,108
 510 1343 510 1343 659 1444 c 0,109,92
 786 1530 786 1530 922 1530 c 128,-1,93
902 1455 m 128,-1,111
 836 1455 836 1455 781 1388 c 0,112,113
 725 1318 725 1318 686 1171 c 0,114,115
 659 1071 659 1071 659 1007 c 0,116,117
 659 977 659 977 665 954 c 0,118,119
 683 887 683 887 751.5 887 c 128,-1,120
 820 887 820 887 871 954 c 0,121,122
 927 1025 927 1025 966 1171 c 0,123,124
 993 1273 993 1273 993 1336 c 0,125,126
 993 1366 993 1366 987 1388 c 0,127,110
 968 1455 968 1455 902 1455 c 128,-1,111
EndSplineSet
Validated: 1
EndChar

StartChar: minute
Encoding: 8242 8242 124
Width: 416
GlyphClass: 2
Flags: W
HStem: 1150 420
VStem: 378 385
LayerCount: 2
Fore
SplineSet
600 1570 m 0,0,1
 607 1570 607 1570 617 1566 c 2,2,-1
 743 1516 l 2,3,4
 763 1508 763 1508 763 1486 c 0,5,6
 763 1475 763 1475 751 1459 c 2,7,-1
 546 1178 l 2,8,9
 526 1150 526 1150 502 1150 c 0,10,11
 495 1150 495 1150 485 1154 c 2,12,-1
 398 1190 l 2,13,14
 378 1198 378 1198 378 1219 c 0,15,16
 378 1228 378 1228 385 1240 c 2,17,-1
 560 1540 l 2,18,19
 578 1570 578 1570 600 1570 c 0,0,1
EndSplineSet
Validated: 1
EndChar

StartChar: second
Encoding: 8243 8243 125
Width: 736
GlyphClass: 2
Flags: W
HStem: 1150 420
LayerCount: 2
Fore
SplineSet
920 1570 m 0,0,1
 927 1570 927 1570 937 1566 c 2,2,-1
 1063 1516 l 2,3,4
 1083 1508 1083 1508 1083 1486 c 0,5,6
 1083 1475 1083 1475 1071 1459 c 2,7,-1
 866 1178 l 2,8,9
 846 1150 846 1150 822 1150 c 0,10,11
 815 1150 815 1150 805 1154 c 2,12,-1
 718 1190 l 2,13,14
 698 1198 698 1198 698 1219 c 0,15,16
 698 1228 698 1228 705 1240 c 2,17,-1
 880 1540 l 2,18,19
 898 1570 898 1570 920 1570 c 0,0,1
600 1570 m 0,20,21
 607 1570 607 1570 617 1566 c 2,22,-1
 743 1516 l 2,23,24
 763 1508 763 1508 763 1486 c 0,25,26
 763 1475 763 1475 751 1459 c 2,27,-1
 546 1178 l 2,28,29
 526 1150 526 1150 502 1150 c 0,30,31
 495 1150 495 1150 485 1154 c 2,32,-1
 398 1190 l 2,33,34
 378 1198 378 1198 378 1219 c 0,35,36
 378 1228 378 1228 385 1240 c 2,37,-1
 560 1540 l 2,38,39
 578 1570 578 1570 600 1570 c 0,20,21
EndSplineSet
Validated: 1
EndChar

StartChar: guilsinglleft
Encoding: 8249 8249 126
Width: 899
GlyphClass: 2
Flags: W
VStem: 346 657
DStem2: 557 778 346 730 0.402618 -0.915368<0 508.127> 346 730 557 778 0.681741 0.731594<178.964 840.414>
LayerCount: 2
Fore
SplineSet
929 1336 m 0,0,1
 942 1336 942 1336 952 1328 c 2,2,-1
 991 1298 l 2,3,4
 1003 1289 1003 1289 1003 1275 c 0,5,6
 1003 1258 1003 1258 988 1242 c 2,7,-1
 557 778 l 1,8,-1
 756 344 l 2,9,10
 763 329 763 329 763 313 c 0,11,12
 763 286 763 286 721 258 c 2,13,-1
 651 212 l 2,14,15
 627 196 627 196 607 196 c 0,16,17
 581 196 581 196 569 223 c 2,18,-1
 346 730 l 1,19,-1
 893 1317 l 2,20,21
 911 1336 911 1336 929 1336 c 0,0,1
EndSplineSet
Validated: 1
EndChar

StartChar: guilsinglright
Encoding: 8250 8250 127
Width: 899
GlyphClass: 2
Flags: W
VStem: 307 657
DStem2: 322 290 417 215 0.681741 0.731594<-28.1602 633.29> 964 802 753 754 0.402618 -0.915368<-549.142 -41.0146>
LayerCount: 2
Fore
SplineSet
703 1336 m 0,0,1
 729 1336 729 1336 741 1309 c 2,2,-1
 964 802 l 1,3,-1
 417 215 l 2,4,5
 399 196 399 196 381 196 c 0,6,7
 368 196 368 196 358 204 c 2,8,-1
 319 234 l 2,9,10
 307 243 307 243 307 257 c 0,11,12
 307 274 307 274 322 290 c 2,13,-1
 753 754 l 1,14,-1
 554 1188 l 2,15,16
 547 1203 547 1203 547 1219 c 0,17,18
 547 1246 547 1246 589 1274 c 2,19,-1
 659 1320 l 2,20,21
 683 1336 683 1336 703 1336 c 0,0,1
EndSplineSet
Validated: 1
EndChar

StartChar: fraction
Encoding: 8260 8260 128
Width: 1088
GlyphClass: 2
Flags: W
DStem2: 57 129 246 0 0.654033 0.756466<-46.755 1899.01>
LayerCount: 2
Fore
SplineSet
1318 1550 m 0,0,1
 1338 1550 1338 1550 1357 1537 c 2,2,-1
 1440 1481 l 2,3,4
 1463 1465 1463 1465 1463 1438 c 0,5,6
 1463 1408 1463 1408 1440 1381 c 2,7,-1
 246 0 l 2,8,9
 211 -40 211 -40 180 -40 c 0,10,11
 158 -40 158 -40 139 -27 c 2,12,-1
 56 29 l 2,13,14
 30 47 30 47 30 73 c 0,15,16
 30 98 30 98 57 129 c 2,17,-1
 1251 1510 l 2,18,19
 1286 1550 1286 1550 1318 1550 c 0,0,1
EndSplineSet
Validated: 1
EndChar

StartChar: Euro
Encoding: 8364 8364 129
Width: 1649
GlyphClass: 2
Flags: W
HStem: -20 105<882.024 1229.04> 586 120<327.543 448 818 1236.46> 801 120<384.891 496 883 1294.44> 959 368<1435.16 1577.1> 1425 105<1201.04 1527.69>
VStem: 440 330<231.845 583.208> 1371 387<1045.38 1265.27>
LayerCount: 2
Fore
SplineSet
966.5 -20 m 128,-1,1
 661 -20 661 -20 537 142 c 0,2,3
 440 270 440 270 440 465 c 0,4,5
 440 522 440 522 448 586 c 1,6,-1
 347 586 l 2,7,8
 314 586 314 586 314 607 c 0,9,10
 314 614 314 614 316 621 c 2,11,-1
 330 671 l 2,12,13
 340 706 340 706 379 706 c 2,14,-1
 470 706 l 1,15,16
 475 730 475 730 482 755 c 0,17,18
 488 778 488 778 496 801 c 1,19,-1
 405 801 l 2,20,21
 372 801 372 801 372 823 c 0,22,23
 372 828 372 828 374 836 c 2,24,-1
 387 886 l 2,25,26
 396 921 396 921 437 921 c 2,27,-1
 537 921 l 1,28,29
 649 1202 649 1202 866 1368 c 0,30,31
 1076 1529 1076 1529 1366 1530 c 0,32,33
 1579 1530 1579 1530 1687 1395 c 0,34,35
 1758 1306 1758 1306 1758 1187 c 0,36,37
 1758 1087 1758 1087 1694 1022 c 0,38,39
 1632 959 1632 959 1556 959 c 0,40,41
 1478 959 1478 959 1425 1013 c 0,42,43
 1371 1067 1371 1067 1371 1144 c 128,-1,44
 1371 1221 1371 1221 1425 1276 c 0,45,46
 1475 1327 1475 1327 1542 1327 c 0,47,48
 1562 1327 1562 1327 1579 1319 c 1,49,50
 1564 1348 1564 1348 1549 1363 c 0,51,52
 1487 1425 1487 1425 1373 1425 c 0,53,54
 1222 1425 1222 1425 1104 1305 c 0,55,56
 972 1172 972 1172 883 921 c 1,57,-1
 1275 921 l 2,58,59
 1307 921 1307 921 1307 898 c 0,60,61
 1307 894 1307 894 1305 886 c 2,62,-1
 1292 836 l 2,63,64
 1283 801 1283 801 1243 801 c 2,65,-1
 844 801 l 1,66,67
 838 778 838 778 831 755 c 0,68,69
 824 730 824 730 818 706 c 1,70,-1
 1217 706 l 2,71,72
 1250 706 1250 706 1250 681 c 0,73,74
 1250 678 1250 678 1248 671 c 2,75,-1
 1234 621 l 2,76,77
 1224 586 1224 586 1185 586 c 2,78,-1
 792 586 l 1,79,80
 770 471 770 471 770 385 c 0,81,82
 770 271 770 271 808 207 c 0,83,84
 879 85 879 85 1036 85 c 0,85,86
 1190 85 1190 85 1319 181 c 0,87,88
 1432 265 1432 265 1536 390 c 1,89,-1
 1550 390 l 1,90,-1
 1497 189 l 1,91,-1
 1495 188 l 1,92,0
 1272 -20 1272 -20 966.5 -20 c 128,-1,1
EndSplineSet
Validated: 1
EndChar

StartChar: afii61248
Encoding: 8453 8453 130
Width: 1805
GlyphClass: 2
Flags: W
HStem: -20 63<1276.01 1391.52> 697 67<1431.67 1552.23> 745 63<674.549 871.216> 1465 65<830.682 1001.05>
VStem: 433 208<835.126 1186.59> 910 225<1258.88 1398.18> 1052 201<70.5031 423.802> 1574 200<320.627 675.102>
DStem2: 420 129 609 0 0.654033 0.756466<-46.755 1899.01>
LayerCount: 2
Fore
SplineSet
1681 1550 m 0,0,1
 1701 1550 1701 1550 1720 1537 c 2,2,-1
 1803 1481 l 2,3,4
 1826 1465 1826 1465 1826 1438 c 0,5,6
 1826 1408 1826 1408 1803 1381 c 2,7,-1
 609 0 l 2,8,9
 574 -40 574 -40 543 -40 c 0,10,11
 521 -40 521 -40 502 -27 c 2,12,-1
 419 29 l 2,13,14
 393 47 393 47 393 73 c 0,15,16
 393 98 393 98 420 129 c 2,17,-1
 1614 1510 l 2,18,19
 1649 1550 1649 1550 1681 1550 c 0,0,1
899 1530 m 0,20,21
 1023 1530 1023 1530 1094 1447 c 0,22,23
 1135 1399 1135 1399 1135 1344 c 0,24,25
 1134 1289 1134 1289 1100 1253 c 0,26,27
 1070 1222 1070 1222 1020.5 1222 c 128,-1,28
 971 1222 971 1222 937 1258 c 0,29,30
 910 1286 910 1286 910 1331 c 0,31,32
 910 1373 910 1373 943 1399 c 0,33,34
 970 1418 970 1418 1015 1418 c 1,35,36
 978 1465 978 1465 918.5 1465 c 128,-1,37
 859 1465 859 1465 805 1410 c 0,38,39
 719 1322 719 1322 668 1129 c 0,40,41
 641 1030 641 1030 641 959 c 0,42,43
 641 910 641 910 654 874 c 0,44,45
 677 808 677 808 757 808 c 0,46,47
 825 808 825 808 896 852.5 c 128,-1,48
 967 897 967 897 1018 959 c 1,49,-1
 1031 959 l 1,50,-1
 1003 854 l 1,51,52
 882 745 882 745 716 745 c 0,53,54
 546 745 546 745 482 829 c 0,55,56
 433 894 433 894 433 992 c 0,57,58
 433 1057 433 1057 455 1137 c 0,59,60
 510 1341 510 1341 647 1445 c 0,61,62
 759 1530 759 1530 899 1530 c 0,20,21
1501 697 m 128,-1,64
 1460 697 1460 697 1413 647 c 0,65,66
 1332 559 1332 559 1282 371 c 0,67,68
 1253 261 1253 261 1253 184 c 0,69,70
 1253 132 1253 132 1266 96 c 0,71,72
 1285 43 1285 43 1326 43 c 128,-1,73
 1367 43 1367 43 1413 94 c 0,74,75
 1494 182 1494 182 1544 369 c 0,76,77
 1574 480 1574 480 1574 558 c 0,78,79
 1574 609 1574 609 1561 645 c 0,80,63
 1542 697 1542 697 1501 697 c 128,-1,64
1521 764 m 128,-1,82
 1668 764 1668 764 1726 680 c 0,83,84
 1774 610 1774 610 1774 512 c 0,85,86
 1774 448 1774 448 1754 371 c 0,87,88
 1701 173 1701 173 1561 64 c 0,89,90
 1452 -20 1452 -20 1307 -20 c 0,91,92
 1160 -20 1160 -20 1101 64 c 0,93,94
 1052 134 1052 134 1052 233 c 0,95,96
 1052 297 1052 297 1072 372 c 0,97,98
 1125 569 1125 569 1266 680 c 0,99,81
 1374 764 1374 764 1521 764 c 128,-1,82
EndSplineSet
Validated: 1
EndChar

StartChar: afii61289
Encoding: 8467 8467 131
Width: 1327
GlyphClass: 2
Flags: W
HStem: -20 236<671 855.358> 0 21G<150 531.727> 1510 20G<1254.5 1352>
LayerCount: 2
Fore
SplineSet
725 -20 m 0,0,1
 617 -20 617 -20 553 44 c 1,2,-1
 514 0 l 1,3,-1
 150 0 l 1,4,5
 355 162 355 162 502 325 c 1,6,7
 516 420 516 420 544 524 c 0,8,9
 585 680 585 680 683 865 c 0,10,11
 882 1241 882 1241 1082 1423 c 0,12,13
 1199 1530 1199 1530 1310 1530 c 0,14,15
 1394 1530 1394 1530 1431 1480 c 0,16,17
 1457 1444 1457 1444 1457 1386 c 0,18,19
 1457 1340 1457 1340 1441 1281 c 0,20,21
 1416 1186 1416 1186 1348 1041 c 0,22,23
 1183 688 1183 688 789 272 c 1,24,25
 784 250 784 250 784 237 c 0,26,27
 784 216 784 216 797 216 c 0,28,29
 818 216 818 216 855 260 c 0,30,31
 877 286 877 286 896 319 c 1,32,-1
 1212 319 l 1,33,34
 1072 144 1072 144 953.5 62 c 128,-1,35
 835 -20 835 -20 725 -20 c 0,0,1
EndSplineSet
Validated: 1
EndChar

StartChar: trademark
Encoding: 8482 8482 132
Width: 2059
VWidth: 1396
GlyphClass: 2
Flags: W
HStem: 754 83<530.632 699.64 1917.5 2036.73> 758 68<1040.71 1125.32> 1459 71<677.641 1023.36 1282.18 1423.86> 1476 67<2001.13 2126.77>
VStem: 512 18<850.825 889> 982 222<1314.97 1457.37> 1017 20<842.75 893> 1227 11<1392 1399.42> 1798 194<846.371 1198.03> 2083 15<884.571 893> 2134 16<1407 1430.66>
DStem2: 581.518 747 781.518 747 0.258819 0.965926<83.6181 663.286> 1136 881 1242 880 0.385663 0.92264<-73.8017 393.188> 1533 1431 1338 1418 0.201447 -0.979499<-63.1266 11.1029 189.163 388.701> 1610 1050 1495 747 0.595185 0.803588<0 254.277> 1799 898 1993 881 0.105601 0.994409<-12.2165 305.785>
LayerCount: 2
Fore
SplineSet
2150 1407 m 1,0,-1
 2134 1407 l 1,1,2
 2129 1476 2129 1476 2088 1476 c 0,3,4
 2061 1476 2061 1476 2053 1446 c 9,5,-1
 1993 881 l 2,6,7
 1992 872 1992 872 1992 865 c 0,8,9
 1992 846 1992 846 2023 846 c 0,10,11
 2056 846 2056 846 2083 893 c 1,12,-1
 2098 893 l 1,13,14
 2054 756 2054 756 1917 756 c 0,15,16
 1843 756 1843 756 1817 800 c 0,17,18
 1798 832 1798 832 1798 875 c 0,19,20
 1798 889 1798 889 1799 898 c 2,21,-1
 1832 1202 l 1,22,-1
 1495 747 l 1,23,-1
 1476 747 l 1,24,-1
 1378 1206 l 1,25,-1
 1242 880 l 2,26,27
 1223 834 1223 834 1197 803 c 0,28,29
 1159 758 1159 758 1101 758 c 0,30,31
 1039 758 1039 758 1022 805 c 0,32,33
 1017 819 1017 819 1017 838 c 0,34,35
 1017 861 1017 861 1024 893 c 1,36,-1
 1037 893 l 1,37,38
 1037 826 1037 826 1075 826 c 128,-1,39
 1113 826 1113 826 1136 881 c 2,40,-1
 1345 1381 l 1,41,-1
 1338 1418 l 2,42,43
 1332 1450 1332 1450 1308 1450 c 0,44,45
 1272 1450 1272 1450 1238 1392 c 1,46,-1
 1227 1392 l 1,47,48
 1239 1452 1239 1452 1279 1492 c 0,49,50
 1326 1540 1326 1540 1413 1540 c 0,51,52
 1511 1540 1511 1540 1533 1431 c 2,53,-1
 1610 1050 l 1,54,-1
 1891 1459 l 2,55,56
 1949 1543 1949 1543 2038 1543 c 0,57,58
 2151 1543 2151 1543 2151 1431 c 0,59,60
 2151 1420 2151 1420 2150 1407 c 1,0,-1
514 889 m 1,61,-1
 530 889 l 1,62,63
 530 837 530 837 567.5 837 c 128,-1,64
 605 837 605 837 618 884 c 2,65,-1
 738 1331 l 2,66,67
 750 1377 750 1377 810 1377 c 2,68,-1
 890 1377 l 2,69,70
 940 1377 940 1377 940 1345 c 0,71,72
 940 1339 940 1339 938 1331 c 2,73,-1
 825 909 l 2,74,75
 783 754 783 754 626 754 c 0,76,77
 512 754 512 754 512 857 c 0,78,79
 512 872 512 872 514 889 c 1,61,-1
876 1530 m 2,80,-1
 990 1530 l 2,81,82
 1129 1530 1129 1530 1179 1464 c 0,83,84
 1204 1431 1204 1431 1204 1388 c 128,-1,85
 1204 1345 1204 1345 1176 1314 c 0,86,87
 1144 1277 1144 1277 1091 1277 c 0,88,89
 1042 1277 1042 1277 1009 1315 c 0,90,91
 982 1345 982 1345 982 1384 c 0,92,93
 982 1438 982 1438 1027 1458 c 1,94,95
 1008 1459 1008 1459 991 1459 c 2,96,-1
 853 1459 l 2,97,98
 598 1459 598 1459 456 1272 c 1,99,-1
 443 1280 l 1,100,101
 578 1530 578 1530 876 1530 c 2,80,-1
EndSplineSet
Validated: 1
EndChar

StartChar: uni2126
Encoding: 8486 8486 133
Width: 1542
GlyphClass: 2
Flags: W
HStem: 0 175<268.696 557 1079 1331.12> 1425 105<1014.62 1266.9>
VStem: 191 15<304.294 338> 310 310<416.549 729.741> 1335 320<816.755 1277.87>
LayerCount: 2
Fore
SplineSet
566 0 m 2,0,1
 373 0 l 2,2,3
 182 0 182 0 182 229 c 0,4,5
 182 278 182 278 191 338 c 1,6,-1
 206 338 l 1,7,8
 231 175 231 175 420 175 c 2,9,-1
 557 175 l 1,10,-1
 565 206 l 1,11,12
 423 287 423 287 354 417 c 0,13,14
 310 500 310 500 310 601 c 0,15,16
 310 673 310 673 332 755 c 0,17,18
 435 1141 435 1141 716 1368 c 0,19,20
 916 1530 916 1530 1181 1530 c 0,21,22
 1445 1530 1445 1530 1560 1368 c 0,23,24
 1655 1234 1655 1234 1655 1038 c 0,25,26
 1655 910 1655 910 1614 755 c 0,27,28
 1565 571 1565 571 1412 417 c 0,29,30
 1278 282 1278 282 1087 206 c 1,31,-1
 1079 175 l 1,32,-1
 1216 175 l 2,33,34
 1393 175 1393 175 1518 338 c 1,35,-1
 1533 338 l 1,36,37
 1419 0 1419 0 1169 0 c 2,38,-1
 976 0 l 2,39,40
 921 0 921 0 921 42 c 0,41,42
 921 55 921 55 925 70 c 2,43,-1
 968 232 l 1,44,45
 1077 303 1077 303 1158 440 c 0,46,47
 1218 542 1218 542 1275 755 c 0,48,49
 1335 979 1335 979 1335 1135 c 0,50,51
 1335 1236 1335 1236 1310 1308 c 0,52,53
 1269 1425 1269 1425 1152.5 1425 c 128,-1,54
 1036 1425 1036 1425 932 1308 c 0,55,56
 761 1113 761 1113 671 755 c 0,57,58
 620 551 620 551 620 440 c 0,59,60
 620 310 620 310 698 232 c 1,61,-1
 655 70 l 2,62,63
 636 0 636 0 566 0 c 2,0,1
EndSplineSet
Validated: 1
EndChar

StartChar: estimated
Encoding: 8494 8494 134
Width: 1321
GlyphClass: 2
Flags: W
HStem: -20 183<536.272 891.518> 491 189<615 1067> 935 185<717.468 1077.51>
LayerCount: 2
Fore
SplineSet
654 -20 m 0,0,1
 403 -20 403 -20 293 145 c 0,2,3
 224 249 224 249 224 383 c 0,4,5
 224 462 224 462 248 553 c 0,6,7
 315 802 315 802 513 960 c 0,8,9
 714 1120 714 1120 956 1120 c 0,10,11
 1199 1120 1199 1120 1308 974 c 0,12,13
 1386 870 1386 870 1386 714 c 0,14,15
 1386 613 1386 613 1353 491 c 1,16,-1
 565 491 l 1,17,-1
 497 239 l 1,18,19
 572 163 572 163 703 163 c 0,20,21
 911 163 911 163 1079 351 c 1,22,-1
 1217 255 l 1,23,24
 1047 85 1047 85 914.5 32.5 c 128,-1,25
 782 -20 782 -20 654 -20 c 0,0,1
1067 680 m 1,26,-1
 1116 862 l 1,27,28
 1038 935 1038 935 908 935 c 0,29,30
 776 935 776 935 664 861 c 1,31,-1
 615 680 l 1,32,-1
 1067 680 l 1,26,-1
EndSplineSet
Validated: 1
EndChar

StartChar: partialdiff
Encoding: 8706 8706 135
Width: 1405
GlyphClass: 2
Flags: W
HStem: -20 273<432 787.911> 823 260<825.765 1069.25> 1257 273<905.041 1192.73>
VStem: 238 321<236.5 482.906> 1230 315<1024.79 1220.63>
LayerCount: 2
Fore
SplineSet
567 -20 m 0,0,1
 297 -20 297 -20 249 171 c 0,2,3
 238 212 238 212 238 261 c 0,4,5
 238 331 238 331 261 416 c 0,6,7
 330 673 330 673 539 878 c 128,-1,8
 748 1083 748 1083 1020 1083 c 0,9,10
 1139 1083 1139 1083 1220 1024 c 1,11,12
 1230 1068 1230 1068 1230 1105 c 0,13,14
 1230 1143 1230 1143 1219 1173 c 0,15,16
 1185 1257 1185 1257 1063 1257 c 0,17,18
 908 1257 908 1257 723 1132 c 1,19,-1
 807 1443 l 1,20,21
 976 1530 976 1530 1173 1530 c 0,22,23
 1490 1530 1490 1530 1537 1271 c 0,24,25
 1545 1229 1545 1229 1545 1181 c 0,26,27
 1545 1079 1545 1079 1510 950 c 0,28,29
 1406 563 1406 563 1145 272 c 0,30,31
 886 -20 886 -20 567 -20 c 0,0,1
1106 699 m 1,32,33
 1100 756 1100 756 1066 788 c 0,34,35
 1028 823 1028 823 961 823 c 0,36,37
 852 823 852 823 739 706 c 0,38,39
 607 567 607 567 570 431 c 0,40,41
 559 389 559 389 559 356 c 0,42,43
 559 320 559 320 572 295 c 0,44,45
 593 253 593 253 653 253 c 0,46,47
 760 253 760 253 887.5 376 c 128,-1,48
 1015 499 1015 499 1106 699 c 1,32,33
EndSplineSet
Validated: 1
EndChar

StartChar: uni2206
Encoding: 8710 8710 136
Width: 1552
GlyphClass: 2
Flags: W
HStem: 0 120<246 1187>
DStem2: 5 0 246 120 0.61209 0.790788<242.408 1438.72> 1207 1540 977 1067 0.215587 -0.976485<412.292 1382.3>
LayerCount: 2
Fore
SplineSet
246 120 m 1,0,-1
 1187 120 l 1,1,-1
 977 1067 l 1,2,-1
 246 120 l 1,0,-1
1547 0 m 1,3,-1
 5 0 l 1,4,-1
 1197 1540 l 1,5,-1
 1207 1540 l 1,6,-1
 1547 0 l 1,3,-1
EndSplineSet
Validated: 1
EndChar

StartChar: product
Encoding: 8719 8719 137
Width: 1647
GlyphClass: 2
Flags: W
HStem: -430 144<37.6514 270.5 1177.5 1429.13> 1380 130<930 1457>
VStem: -18 15<-216.023 -180> 1035 317<-283.366 -56.8047>
DStem2: 125.013 -430 444.883 -430 0.258819 0.965926<160.252 1956.67> 971.883 -430 1292.01 -430 0.258819 0.965926<296.972 1873.88>
LayerCount: 2
Fore
SplineSet
190 -430 m 0,0,1
 40 -430 40 -430 -8 -326 c 0,2,3
 -26 -287 -26 -287 -26 -242 c 0,4,5
 -26 -212 -26 -212 -18 -180 c 1,6,-1
 -3 -180 l 1,7,8
 10 -286 10 -286 87 -286 c 128,-1,9
 164 -286 164 -286 192 -180 c 2,10,-1
 626 1440 l 2,11,12
 645 1510 645 1510 715 1510 c 2,13,-1
 1742 1510 l 2,14,15
 1797 1510 1797 1510 1797 1466 c 0,16,17
 1797 1455 1797 1455 1793 1440 c 2,18,-1
 1359 -180 l 2,19,20
 1352 -206 1352 -206 1352 -225 c 0,21,22
 1352 -286 1352 -286 1418 -286 c 0,23,24
 1488 -286 1488 -286 1554 -180 c 1,25,-1
 1569 -180 l 1,26,27
 1543 -275 1543 -275 1493 -331 c 0,28,29
 1406 -430 1406 -430 1258 -430 c 0,30,31
 1097 -430 1097 -430 1050 -327 c 0,32,33
 1035 -294 1035 -294 1035 -247 c 0,34,35
 1035 -194 1035 -194 1052 -131 c 2,36,-1
 1457 1380 l 1,37,-1
 930 1380 l 1,38,-1
 525 -131 l 2,39,40
 489 -266 489 -266 442 -322 c 0,41,42
 351 -430 351 -430 190 -430 c 0,0,1
EndSplineSet
Validated: 1
EndChar

StartChar: summation
Encoding: 8721 8721 138
Width: 1587
GlyphClass: 2
Flags: W
HStem: -410 121<401 1232.52> 1389 121<807 1485.52>
VStem: 1099 369<-227.948 -20.0625> 1352 369<1120.06 1327.95>
DStem2: -27 -400 401 -289 0.636112 0.771597<357.903 1224.73> 807 1389 482 1500 0.267748 -0.963489<0 792.034>
LayerCount: 2
Fore
SplineSet
-30 -410 m 1,0,-1
 -27 -400 l 1,1,-1
 746 550 l 1,2,-1
 482 1500 l 1,3,-1
 485 1510 l 1,4,-1
 1374 1510 l 2,5,6
 1578 1510 1578 1510 1673 1391 c 0,7,8
 1721 1331 1721 1331 1721 1250 c 0,9,10
 1721 1167 1721 1167 1663 1104 c 0,11,12
 1609 1045 1609 1045 1530 1045 c 0,13,14
 1449 1045 1449 1045 1400 1097 c 0,15,16
 1352 1147 1352 1147 1352 1212 c 0,17,18
 1352 1287 1352 1287 1405 1337 c 0,19,20
 1439 1370 1439 1370 1489 1381 c 1,21,22
 1466 1389 1466 1389 1374 1389 c 2,23,-1
 807 1389 l 1,24,-1
 1051 511 l 1,25,-1
 401 -289 l 1,26,-1
 1119 -289 l 2,27,28
 1198 -289 1198 -289 1236 -281 c 1,29,30
 1186 -270 1186 -270 1152 -237 c 0,31,32
 1099 -187 1099 -187 1099 -112 c 0,33,34
 1099 -47 1099 -47 1147 3 c 0,35,36
 1196 55 1196 55 1277 55 c 0,37,38
 1356 55 1356 55 1410 -4 c 0,39,40
 1468 -67 1468 -67 1468 -150 c 0,41,42
 1468 -231 1468 -231 1420 -291 c 0,43,44
 1325 -410 1325 -410 1121 -410 c 2,45,-1
 -30 -410 l 1,0,-1
EndSplineSet
Validated: 1
EndChar

StartChar: minus
Encoding: 8722 8722 139
Width: 1373
GlyphClass: 2
Flags: W
HStem: 649 211<371.328 1405.67>
LayerCount: 2
Fore
SplineSet
445 860 m 2,0,-1
 1388 860 l 2,1,2
 1440 860 1440 860 1440 819 c 0,3,4
 1440 808 1440 808 1436 795 c 2,5,-1
 1414 714 l 2,6,7
 1397 649 1397 649 1332 649 c 2,8,-1
 389 649 l 2,9,10
 337 649 337 649 337 690 c 0,11,12
 337 701 337 701 341 714 c 2,13,-1
 363 795 l 2,14,15
 380 860 380 860 445 860 c 2,0,-1
EndSplineSet
Validated: 1
EndChar

StartChar: uni2215
Encoding: 8725 8725 140
Width: 1088
GlyphClass: 2
Flags: W
DStem2: 57 129 246 0 0.654033 0.756466<-46.755 1899.01>
LayerCount: 2
Fore
SplineSet
1318 1550 m 0,0,1
 1338 1550 1338 1550 1357 1537 c 2,2,-1
 1440 1481 l 2,3,4
 1463 1465 1463 1465 1463 1438 c 0,5,6
 1463 1408 1463 1408 1440 1381 c 2,7,-1
 246 0 l 2,8,9
 211 -40 211 -40 180 -40 c 0,10,11
 158 -40 158 -40 139 -27 c 2,12,-1
 56 29 l 2,13,14
 30 47 30 47 30 73 c 0,15,16
 30 98 30 98 57 129 c 2,17,-1
 1251 1510 l 2,18,19
 1286 1550 1286 1550 1318 1550 c 0,0,1
EndSplineSet
Validated: 1
EndChar

StartChar: uni2219
Encoding: 8729 8729 141
Width: 464
GlyphClass: 2
Flags: W
HStem: 569 370<315.14 552.86>
VStem: 252 364<631.578 876.422>
LayerCount: 2
Fore
SplineSet
434 569 m 128,-1,1
 358 569 358 569 305 623 c 128,-1,2
 252 677 252 677 252 754 c 128,-1,3
 252 831 252 831 305 885 c 128,-1,4
 358 939 358 939 434 939 c 128,-1,5
 510 939 510 939 563 885 c 128,-1,6
 616 831 616 831 616 754 c 128,-1,7
 616 677 616 677 563 623 c 128,-1,0
 510 569 510 569 434 569 c 128,-1,1
EndSplineSet
Validated: 1
EndChar

StartChar: radical
Encoding: 8730 8730 142
Width: 1505
GlyphClass: 2
Flags: W
HStem: 725 121<265.109 432> 1550 121<1705 1881.89>
DStem2: 751 474 541 -40 0.590703 0.806889<0 1431.74>
LayerCount: 2
Fore
SplineSet
531 -40 m 1,0,-1
 432 725 l 1,1,-1
 284 725 l 2,2,3
 253 725 253 725 253 750 c 0,4,5
 253 758 253 758 255 765 c 2,6,-1
 266 806 l 2,7,8
 277 846 277 846 317 846 c 2,9,-1
 640 846 l 2,10,11
 699 846 699 846 706 796 c 2,12,-1
 751 474 l 1,13,-1
 1610 1631 l 2,14,15
 1640 1671 1640 1671 1681 1671 c 2,16,-1
 1863 1671 l 2,17,18
 1894 1671 1894 1671 1894 1644 c 0,19,20
 1894 1638 1894 1638 1892 1631 c 2,21,-1
 1881 1590 l 2,22,23
 1870 1550 1870 1550 1830 1550 c 2,24,-1
 1705 1550 l 1,25,-1
 541 -40 l 1,26,-1
 531 -40 l 1,0,-1
EndSplineSet
Validated: 1
EndChar

StartChar: infinity
Encoding: 8734 8734 143
Width: 1778
GlyphClass: 2
Flags: W
HStem: 346 205<547.244 776.47> 346 116<1190.89 1483.46> 960 203<1406.49 1634.39> 1047 116<698.701 992.106>
VStem: 336 177<582.457 834.933> 1669 177<674.287 927.07>
DStem2: 891 711 1178 643 0.59249 0.805578<-167.884 483.455>
LayerCount: 2
Fore
SplineSet
877 1163 m 0,0,1
 1023 1163 1023 1163 1078 1102 c 0,2,3
 1087 1092 1087 1092 1087 1079 c 0,4,5
 1087 1064 1087 1064 1072 1049 c 2,6,-1
 1040 1016 l 2,7,8
 1024 999 1024 999 1008 999 c 0,9,10
 994 999 994 999 983 1009 c 0,11,12
 941 1047 941 1047 858 1047 c 0,13,14
 741 1047 741 1047 652 968 c 0,15,16
 557 885 557 885 523 758 c 0,17,18
 513 721 513 721 513 690 c 0,19,20
 513 649 513 649 530 618 c 0,21,22
 566 551 566 551 649 551 c 0,23,24
 774 551 774 551 891 711 c 2,25,-1
 1004 866 l 2,26,27
 1221 1163 1221 1163 1499 1163 c 0,28,29
 1708 1163 1708 1163 1792 1045 c 0,30,31
 1845 969 1845 969 1846 870 c 0,32,33
 1846 814 1846 814 1829 751 c 0,34,35
 1784 584 1784 584 1650 472 c 0,36,37
 1499 346 1499 346 1306 346 c 0,38,39
 1160 346 1160 346 1105 407 c 0,40,41
 1096 417 1096 417 1096 430 c 0,42,43
 1096 445 1096 445 1111 460 c 2,44,-1
 1143 493 l 2,45,46
 1159 510 1159 510 1175 510 c 0,47,48
 1189 510 1189 510 1200 500 c 0,49,50
 1242 462 1242 462 1325 462 c 0,51,52
 1441 462 1441 462 1530 541 c 0,53,54
 1626 625 1626 625 1659 751 c 0,55,56
 1669 789 1669 789 1669 821 c 0,57,58
 1669 861 1669 861 1653 891 c 0,59,60
 1615 960 1615 960 1532 960 c 0,61,62
 1411 960 1411 960 1292 798 c 2,63,-1
 1178 643 l 2,64,65
 960 346 960 346 684 346 c 0,66,67
 474 346 474 346 390 464 c 0,68,69
 336 540 336 540 336 639 c 0,70,71
 336 695 336 695 353 758 c 0,72,73
 398 925 398 925 532 1037 c 0,74,75
 683 1163 683 1163 877 1163 c 0,0,1
EndSplineSet
Validated: 1
EndChar

StartChar: approxequal
Encoding: 8776 8776 144
Width: 1315
GlyphClass: 2
Flags: W
HStem: 376 181<939.438 1143.07> 538 181<463.037 670.992> 774 181<1045.01 1247.55> 936 181<567.513 776.562>
DStem2: 983 580 628 515 0.895258 -0.445547<-369.813 81.8521> 1088 978 733 913 0.895258 -0.445547<-370.708 80.957>
LayerCount: 2
Fore
SplineSet
637 719 m 0,0,1
 704 719 704 719 768 687 c 2,2,-1
 983 580 l 2,3,4
 1029 557 1029 557 1082 557 c 0,5,6
 1237 557 1237 557 1332 693 c 1,7,-1
 1351 693 l 1,8,9
 1222 376 1222 376 975 376 c 0,10,11
 908 376 908 376 843 408 c 2,12,-1
 628 515 l 2,13,14
 582 538 582 538 528 538 c 0,15,16
 374 538 374 538 280 402 c 1,17,-1
 260 402 l 1,18,19
 378 719 378 719 637 719 c 0,0,1
741 1117 m 0,20,21
 808 1117 808 1117 873 1085 c 2,22,-1
 1088 978 l 2,23,24
 1134 955 1134 955 1187 955 c 0,25,26
 1342 955 1342 955 1436 1091 c 1,27,-1
 1455 1091 l 1,28,29
 1326 774 1326 774 1079 774 c 0,30,31
 1012 774 1012 774 948 806 c 2,32,-1
 733 913 l 2,33,34
 687 936 687 936 633 936 c 0,35,36
 479 936 479 936 384 800 c 1,37,-1
 364 800 l 1,38,39
 482 1117 482 1117 741 1117 c 0,20,21
EndSplineSet
Validated: 1
EndChar

StartChar: notequal
Encoding: 8800 8800 145
Width: 1373
GlyphClass: 2
Flags: W
HStem: 444 211<316.328 549 706 728 885 1351.33> 854 211<426.328 896 1053 1074 1231 1460.67>
DStem2: 394 260 492 192 0.645877 0.763441<-28.3178 240.584 618.685 777.714 1155.17 1416.55>
LayerCount: 2
Fore
SplineSet
500 1065 m 2,0,-1
 1074 1065 l 1,1,-1
 1284 1312 l 2,2,3
 1303 1334 1303 1334 1320 1334 c 0,4,5
 1333 1334 1333 1334 1343 1327 c 2,6,-1
 1383 1298 l 2,7,8
 1396 1289 1396 1289 1396 1268 c 0,9,10
 1396 1261 1396 1261 1382 1244 c 2,11,-1
 1231 1065 l 1,12,-1
 1443 1065 l 2,13,14
 1495 1065 1495 1065 1495 1024 c 0,15,16
 1495 1015 1495 1015 1491 1000 c 2,17,-1
 1469 919 l 2,18,19
 1451 854 1451 854 1387 854 c 2,20,-1
 1053 854 l 1,21,-1
 885 655 l 1,22,-1
 1334 655 l 2,23,24
 1385 655 1385 655 1385 615 c 0,25,26
 1385 605 1385 605 1381 590 c 2,27,-1
 1359 509 l 2,28,29
 1341 444 1341 444 1277 444 c 2,30,-1
 706 444 l 1,31,-1
 492 192 l 2,32,33
 473 170 473 170 456 170 c 0,34,35
 443 170 443 170 433 177 c 2,36,-1
 393 206 l 2,37,38
 380 215 380 215 380 230 c 0,39,40
 380 243 380 243 394 260 c 2,41,-1
 549 444 l 1,42,-1
 334 444 l 2,43,44
 282 444 282 444 282 485 c 0,45,46
 282 494 282 494 286 509 c 2,47,-1
 308 590 l 2,48,49
 326 655 326 655 391 655 c 2,50,-1
 728 655 l 1,51,-1
 896 854 l 1,52,-1
 444 854 l 2,53,54
 392 854 392 854 392 895 c 0,55,56
 392 904 392 904 396 919 c 2,57,-1
 418 1000 l 2,58,59
 436 1065 436 1065 500 1065 c 2,0,-1
EndSplineSet
Validated: 1
EndChar

StartChar: lessequal
Encoding: 8804 8804 146
Width: 1292
GlyphClass: 2
Flags: W
HStem: 144 211<286.328 1139.67>
DStem2: 725 891 461 788 0.841225 -0.540685<0 564.752> 510 969 725 891 0.895917 0.444221<157.973 966.509>
LayerCount: 2
Fore
SplineSet
1379 1393 m 0,0,1
 1405 1393 1405 1393 1413 1366 c 2,2,-1
 1433 1302 l 2,3,4
 1436 1292 1436 1292 1436 1283 c 0,5,6
 1436 1254 1436 1254 1395 1233 c 2,7,-1
 725 891 l 1,8,-1
 1197 593 l 2,9,10
 1219 579 1219 579 1219 549 c 0,11,12
 1219 527 1219 527 1199 503 c 2,13,-1
 1143 436 l 2,14,15
 1114 401 1114 401 1082 401 c 0,16,17
 1063 401 1063 401 1046 412 c 2,18,-1
 461 788 l 2,19,20
 429 809 429 809 429 844 c 0,21,22
 429 854 429 854 430 858 c 2,23,-1
 441 899 l 2,24,25
 452 940 452 940 510 969 c 2,26,-1
 1349 1385 l 2,27,28
 1365 1393 1365 1393 1379 1393 c 0,0,1
360 355 m 2,29,-1
 1122 355 l 2,30,31
 1174 355 1174 355 1174 314 c 0,32,33
 1174 305 1174 305 1170 290 c 2,34,-1
 1148 209 l 2,35,36
 1130 144 1130 144 1066 144 c 2,37,-1
 304 144 l 2,38,39
 252 144 252 144 252 185 c 0,40,41
 252 194 252 194 256 209 c 2,42,-1
 278 290 l 2,43,44
 296 355 296 355 360 355 c 2,29,-1
EndSplineSet
Validated: 1
EndChar

StartChar: greaterequal
Encoding: 8805 8805 147
Width: 1292
GlyphClass: 2
Flags: W
HStem: 144 211<286.328 1139.67>
DStem2: 1312 1006 576 1201 0.841225 -0.540685<-731.145 -166.393> 1048 903 424 409 0.895917 0.444221<-808.536 0>
LayerCount: 2
Fore
SplineSet
691 1393 m 0,0,1
 710 1393 710 1393 727 1382 c 2,2,-1
 1312 1006 l 2,3,4
 1344 985 1344 985 1344 950 c 0,5,6
 1344 940 1344 940 1343 936 c 2,7,-1
 1332 895 l 2,8,9
 1321 854 1321 854 1263 825 c 2,10,-1
 424 409 l 2,11,12
 408 401 408 401 394 401 c 0,13,14
 368 401 368 401 360 428 c 2,15,-1
 340 492 l 2,16,17
 337 502 337 502 337 511 c 0,18,19
 337 540 337 540 378 561 c 2,20,-1
 1048 903 l 1,21,-1
 576 1201 l 2,22,23
 554 1215 554 1215 554 1245 c 0,24,25
 554 1267 554 1267 574 1291 c 2,26,-1
 630 1358 l 2,27,28
 659 1393 659 1393 691 1393 c 0,0,1
360 355 m 2,29,-1
 1122 355 l 2,30,31
 1174 355 1174 355 1174 314 c 0,32,33
 1174 305 1174 305 1170 290 c 2,34,-1
 1148 209 l 2,35,36
 1130 144 1130 144 1066 144 c 2,37,-1
 304 144 l 2,38,39
 252 144 252 144 252 185 c 0,40,41
 252 194 252 194 256 209 c 2,42,-1
 278 290 l 2,43,44
 296 355 296 355 360 355 c 2,29,-1
EndSplineSet
Validated: 1
EndChar

StartChar: lozenge
Encoding: 9674 9674 148
Width: 1258
GlyphClass: 2
Flags: W
HStem: -20 21G<615.398 643.264> 1510 20G<1020.29 1047.06>
DStem2: 298 738 549 843 0.683205 0.730227<248.158 720.762> 549 843 298 738 0.395089 -0.918643<0 585.891> 781 305 624 -20 0.693733 0.720233<0 464.766> 1039 1530 872 1188 0.373822 -0.927501<254.777 844.195>
LayerCount: 2
Fore
SplineSet
781 305 m 1,0,-1
 1099 644 l 1,1,-1
 872 1188 l 1,2,-1
 549 843 l 1,3,-1
 781 305 l 1,0,-1
624 -20 m 1,4,-1
 298 738 l 1,5,-1
 1039 1530 l 1,6,-1
 1357 741 l 1,7,-1
 624 -20 l 1,4,-1
EndSplineSet
Validated: 1
EndChar

StartChar: multiply
Encoding: 215 215 149
Width: 1262
Flags: W
DStem2: 684 754 793 605 0.785287 0.619133<-478.447 -6.65451 241.289 713.738> 873 904 684 754 0.591259 -0.806482<-361.573 0 193.837 541.454>
LayerCount: 2
Fore
SplineSet
684 1163 m 2,0,-1
 873 904 l 1,1,-1
 1202 1163 l 2,2,3
 1230 1185 1230 1185 1254 1185 c 128,-1,4
 1278 1185 1278 1185 1294 1163 c 2,5,-1
 1335 1105 l 2,6,7
 1346 1089 1346 1089 1346 1068 c 0,8,9
 1346 1041 1346 1041 1310 1013 c 2,10,-1
 982 754 l 1,11,-1
 1172 496 l 2,12,13
 1184 480 1184 480 1184 460 c 0,14,15
 1184 434 1184 434 1147 404 c 2,16,-1
 1075 346 l 2,17,18
 1048 324 1048 324 1023 324 c 0,19,20
 999 324 999 324 983 346 c 2,21,-1
 793 605 l 1,22,-1
 465 346 l 2,23,24
 437 324 437 324 413 324 c 128,-1,25
 389 324 389 324 373 346 c 2,26,-1
 331 404 l 2,27,28
 318 422 318 422 318 443 c 0,29,30
 318 466 318 466 356 496 c 2,31,-1
 684 754 l 1,32,-1
 494 1013 l 2,33,34
 477 1036 477 1036 478 1041 c 0,35,36
 478 1072 478 1072 519 1105 c 2,37,-1
 592 1163 l 2,38,39
 620 1185 620 1185 644 1185 c 128,-1,40
 668 1185 668 1185 684 1163 c 2,0,-1
EndSplineSet
Validated: 1
EndChar

StartChar: divide
Encoding: 247 247 150
Width: 1373
Flags: W
HStem: 179 370<664.14 901.86> 649 211<371.328 1405.67> 960 370<872.14 1109.86>
VStem: 601 364<241.578 486.422> 809 364<1022.58 1267.42>
CounterMasks: 1 e0
LayerCount: 2
Fore
SplineSet
445 860 m 2,0,-1
 1388 860 l 2,1,2
 1440 860 1440 860 1440 819 c 0,3,4
 1440 808 1440 808 1436 795 c 2,5,-1
 1414 714 l 2,6,7
 1397 649 1397 649 1332 649 c 2,8,-1
 389 649 l 2,9,10
 337 649 337 649 337 690 c 0,11,12
 337 701 337 701 341 714 c 2,13,-1
 363 795 l 2,14,15
 380 860 380 860 445 860 c 2,0,-1
991 960 m 128,-1,17
 915 960 915 960 862 1014 c 128,-1,18
 809 1068 809 1068 809 1145 c 128,-1,19
 809 1222 809 1222 862 1276 c 128,-1,20
 915 1330 915 1330 991 1330 c 128,-1,21
 1067 1330 1067 1330 1120 1276 c 128,-1,22
 1173 1222 1173 1222 1173 1145 c 128,-1,23
 1173 1068 1173 1068 1120 1014 c 128,-1,16
 1067 960 1067 960 991 960 c 128,-1,17
783 179 m 128,-1,25
 707 179 707 179 654 233 c 128,-1,26
 601 287 601 287 601 364 c 128,-1,27
 601 441 601 441 654 495 c 128,-1,28
 707 549 707 549 783 549 c 128,-1,29
 859 549 859 549 912 495 c 128,-1,30
 965 441 965 441 965 364 c 128,-1,31
 965 287 965 287 912 233 c 128,-1,24
 859 179 859 179 783 179 c 128,-1,25
EndSplineSet
Validated: 1
EndChar

StartChar: g
Encoding: 103 103 151
Width: 1319
Flags: W
HStem: -430 92<320.399 588.769> -20 105<591.638 783.727> 1015 105<818.774 1009.92> 1080 20G<1134.5 1345.5>
VStem: 107 315<-296.327 -92.4609> 228 313<164.527 577.658> 1027 350<886.536 1075.5>
DStem2: 683.763 -430 983.379 -430 0.258819 0.965926<371.243 487.624 569.587 1372.94 1522.21 1591.92>
LayerCount: 2
Fore
SplineSet
684 85 m 0,0,1
 748 85 748 85 805 148 c 0,2,3
 853 201 853 201 887 327 c 2,4,-1
 1006 773 l 2,5,6
 1027 850 1027 850 1027 901 c 0,7,8
 1027 932 1027 932 1019 952 c 0,9,10
 997 1015 997 1015 933 1015 c 0,11,12
 834 1015 834 1015 727 879 c 0,13,14
 634 760 634 760 577 550 c 0,15,16
 541 415 541 415 541 314 c 0,17,18
 541 263 541 263 550 221 c 0,19,20
 581 85 581 85 684 85 c 0,0,1
599 -20 m 0,21,22
 386 -20 386 -20 280 151 c 0,23,24
 228 235 228 235 228 353 c 0,25,26
 228 442 228 442 257 550 c 0,27,28
 321 788 321 788 488 942 c 0,29,30
 681 1120 681 1120 910 1120 c 0,31,32
 1023 1120 1023 1120 1079 1040 c 1,33,34
 1095 1100 1095 1100 1174 1100 c 2,35,-1
 1314 1100 l 2,36,37
 1377 1100 1377 1100 1377 1051 c 0,38,39
 1377 1039 1377 1039 1372 1020 c 2,40,-1
 1127 106 l 2,41,42
 1061 -141 1061 -141 871 -291 c 0,43,44
 695 -430 695 -430 449 -430 c 0,45,46
 304 -430 304 -430 213 -377 c 0,47,48
 107 -315 107 -315 107 -210 c 0,49,50
 107 -137 107 -137 157 -86 c 0,51,52
 203 -40 203 -40 268 -40 c 0,53,54
 332 -40 332 -40 377 -86 c 128,-1,55
 422 -132 422 -132 422 -195 c 0,56,57
 422 -259 422 -259 377 -297 c 0,58,59
 353 -318 353 -318 318 -324 c 1,60,61
 369 -338 369 -338 434 -338 c 0,62,63
 553 -338 553 -338 653 -246 c 0,64,65
 759 -148 759 -148 803 15 c 2,66,-1
 810 41 l 1,67,68
 720 -20 720 -20 599 -20 c 0,21,22
EndSplineSet
Validated: 1
EndChar

StartChar: k
Encoding: 107 107 152
Width: 1278
Flags: W
HStem: -20 144<929.5 1180.18> 0 21G<268 469> 750 370<1132.9 1362.27> 1386 144<501.907 752>
VStem: 570 301<1149.35 1383.44> 812 301<126.363 336.765> 842 292<185.595 446.405>
DStem2: 214.205 -20 514.346 -20 0.258819 0.965926<605.673 1390.68>
LayerCount: 2
Fore
SplineSet
300 0 m 2,0,1
 236 0 236 0 236 50 c 0,2,3
 236 61 236 61 241 80 c 2,4,-1
 563 1280 l 2,5,6
 570 1306 570 1306 570 1325 c 0,7,8
 570 1386 570 1386 503 1386 c 0,9,10
 433 1386 433 1386 368 1280 c 1,11,-1
 353 1280 l 1,12,13
 380 1375 380 1375 432 1430 c 0,14,15
 526 1530 526 1530 681 1530 c 0,16,17
 823 1530 823 1530 861 1427 c 0,18,19
 871 1400 871 1400 871 1363 c 0,20,21
 871 1309 871 1309 850 1231 c 2,22,-1
 651 490 l 1,23,24
 915 916 915 916 1101 1066 c 0,25,26
 1168 1120 1168 1120 1244 1120 c 128,-1,27
 1320 1120 1320 1120 1373 1066 c 128,-1,28
 1426 1012 1426 1012 1426 935 c 128,-1,29
 1426 858 1426 858 1372.5 804 c 128,-1,30
 1319 750 1319 750 1243 750 c 0,31,32
 1172 750 1172 750 1118 808 c 0,33,34
 1088 841 1088 841 1078 890 c 1,35,36
 952 742 952 742 849 586 c 1,37,38
 1134 564 1134 564 1134 333 c 0,39,40
 1134 284 1134 284 1120 230 c 0,41,42
 1113 204 1113 204 1113 185 c 0,43,44
 1113 124 1113 124 1179 124 c 0,45,46
 1249 124 1249 124 1315 230 c 1,47,-1
 1330 230 l 1,48,49
 1303 135 1303 135 1251 80 c 0,50,51
 1157 -20 1157 -20 1002 -20 c 0,52,53
 857 -20 857 -20 821 83 c 0,54,55
 812 109 812 109 812 145 c 0,56,57
 812 200 812 200 833 279 c 0,58,59
 842 313 842 313 842 343 c 0,60,61
 842 425 842 425 772 471 c 1,62,63
 644 273 644 273 541 80 c 24,64,65
 498 0 498 0 440 0 c 2,66,-1
 300 0 l 2,0,1
EndSplineSet
Validated: 1
EndChar

StartChar: v
Encoding: 118 118 153
Width: 1342
Flags: W
HStem: -20 129<647.46 917.377> 976 144<392.823 643>
VStem: 306 301<147.714 483.914> 460 301<733.602 973.637> 1162 254<525.629 842>
DStem2: 214.945 -20 514.677 -20 0.258819 0.965926<388.899 965.99>
LayerCount: 2
Fore
SplineSet
662 -20 m 0,0,1
 440 -20 440 -20 355 98 c 16,2,3
 306 167 306 167 306 262 c 0,4,5
 306 320 306 320 324 387 c 2,6,-1
 453 870 l 2,7,8
 460 896 460 896 460 915 c 0,9,10
 460 976 460 976 394 976 c 0,11,12
 324 976 324 976 258 870 c 1,13,-1
 243 870 l 1,14,15
 270 965 270 965 322 1020 c 0,16,17
 416 1120 416 1120 571 1120 c 0,18,19
 715 1120 715 1120 752 1017 c 0,20,21
 761 991 761 991 761 955 c 0,22,23
 761 900 761 900 740 821 c 2,24,-1
 624 388 l 2,25,26
 607 326 607 326 607 276 c 0,27,28
 607 229 607 229 622 193 c 0,29,30
 656 109 656 109 760 109 c 0,31,32
 877 109 877 109 972 186 c 0,33,34
 1107 295 1107 295 1147 458 c 0,35,36
 1162 521 1162 521 1162 577 c 0,37,38
 1162 613 1162 613 1156 646 c 0,39,40
 1140 732 1140 732 1073 794 c 0,41,42
 1002 861 1002 861 1002 940 c 0,43,44
 1002 1016 1002 1016 1059 1072 c 0,45,46
 1108 1120 1108 1120 1196 1120 c 0,47,48
 1333 1120 1333 1120 1387 970 c 0,49,50
 1416 891 1416 891 1416 793 c 0,51,52
 1416 686 1416 686 1381 557 c 0,53,54
 1331 372 1331 372 1197 220 c 0,55,56
 985 -20 985 -20 662 -20 c 0,0,1
EndSplineSet
Validated: 1
EndChar

StartChar: w
Encoding: 119 119 154
Width: 1992
Flags: W
HStem: -20 142<517 822.844 1288.62 1567.38> 976 144<392.823 643> 1080 20G<1204.5 1416.5>
VStem: 305 300<148.182 483.188> 460 301<735.5 973.637> 1812 254<525.629 842>
DStem2: 215.069 -20 514.265 -20 0.258819 0.965926<374.98 965.958> 864.265 -20 1164.68 -20 0.258819 0.965926<389.074 1166.04>
LayerCount: 2
Fore
SplineSet
613 -20 m 0,0,1
 421 -20 421 -20 351 83 c 0,2,3
 305 152 305 152 305 249 c 0,4,5
 305 315 305 315 326 394 c 2,6,-1
 453 870 l 2,7,8
 460 896 460 896 460 915 c 0,9,10
 460 976 460 976 394 976 c 0,11,12
 324 976 324 976 258 870 c 1,13,-1
 243 870 l 1,14,15
 270 965 270 965 322 1020 c 0,16,17
 416 1120 416 1120 571 1120 c 0,18,19
 715 1120 715 1120 752 1017 c 0,20,21
 761 991 761 991 761 955 c 0,22,23
 761 900 761 900 740 821 c 2,24,-1
 626 397 l 2,25,26
 605 317 605 317 605 262 c 0,27,28
 605 227 605 227 613 203 c 0,29,30
 640 122 640 122 732 122 c 0,31,32
 821 122 821 122 898 216 c 0,33,34
 943 271 943 271 976 397 c 2,35,-1
 1143 1020 l 2,36,37
 1164 1100 1164 1100 1245 1100 c 2,38,-1
 1385 1100 l 2,39,40
 1448 1100 1448 1100 1448 1051 c 0,41,42
 1448 1037 1448 1037 1443 1020 c 2,43,-1
 1274 388 l 2,44,45
 1257 326 1257 326 1257 276 c 0,46,47
 1257 229 1257 229 1272 193 c 0,48,49
 1306 109 1306 109 1410 109 c 0,50,51
 1527 109 1527 109 1622 186 c 0,52,53
 1757 295 1757 295 1797 458 c 0,54,55
 1812 521 1812 521 1812 577 c 0,56,57
 1812 613 1812 613 1806 646 c 0,58,59
 1790 732 1790 732 1723 794 c 0,60,61
 1652 861 1652 861 1652 940 c 0,62,63
 1652 1016 1652 1016 1709 1072 c 0,64,65
 1758 1120 1758 1120 1846 1120 c 0,66,67
 1983 1120 1983 1120 2037 970 c 0,68,69
 2066 891 2066 891 2066 793 c 0,70,71
 2066 686 2066 686 2031 557 c 0,72,73
 1981 372 1981 372 1847 220 c 0,74,75
 1635 -20 1635 -20 1312 -20 c 0,76,77
 1090 -20 1090 -20 1005 98 c 0,78,79
 992 116 992 116 983 137 c 1,80,81
 824 -20 824 -20 613 -20 c 0,0,1
EndSplineSet
Validated: 1
EndChar

StartChar: y
Encoding: 121 121 155
Width: 1390
Flags: W
HStem: -430 92<391.399 659.118> -20 142<503 769.343> 976 144<392.823 643.5> 1080 20G<1204.5 1416.5>
VStem: 178 315<-296.327 -92.4609> 305 300<147.266 483.188> 460 301<735.5 973.637>
DStem2: 105.21 -430 404.406 -430 0.258819 0.965926<799.503 1390.42> 754.763 -430 1054.38 -430 0.258819 0.965926<371.722 573.49 631.653 1590.41>
LayerCount: 2
Fore
SplineSet
585 -20 m 0,0,1
 421 -20 421 -20 351 83 c 0,2,3
 305 151 305 151 305 242 c 0,4,5
 305 315 305 315 326 394 c 2,6,-1
 453 870 l 2,7,8
 460 896 460 896 460 915 c 0,9,10
 460 976 460 976 394 976 c 0,11,12
 324 976 324 976 258 870 c 1,13,-1
 243 870 l 1,14,15
 270 965 270 965 322 1020 c 0,16,17
 416 1120 416 1120 571 1120 c 0,18,19
 716 1120 716 1120 752 1017 c 0,20,21
 761 991 761 991 761 955 c 0,22,23
 761 899 761 899 740 821 c 2,24,-1
 626 397 l 2,25,26
 605 319 605 319 605 262 c 0,27,28
 605 227 605 227 613 203 c 0,29,30
 640 122 640 122 732 122 c 0,31,32
 821 122 821 122 898 216 c 0,33,34
 942 270 942 270 976 397 c 2,35,-1
 1143 1020 l 2,36,37
 1164 1100 1164 1100 1245 1100 c 2,38,-1
 1385 1100 l 2,39,40
 1448 1100 1448 1100 1448 1051 c 0,41,42
 1448 1039 1448 1039 1443 1020 c 2,43,-1
 1198 106 l 2,44,45
 1132 -140 1132 -140 942 -291 c 0,46,47
 767 -430 767 -430 520 -430 c 0,48,49
 375 -430 375 -430 284 -377 c 0,50,51
 178 -315 178 -315 178 -210 c 0,52,53
 178 -137 178 -137 228 -86 c 0,54,55
 274 -40 274 -40 339 -40 c 0,56,57
 403 -40 403 -40 448 -86 c 128,-1,58
 493 -132 493 -132 493 -195 c 0,59,60
 493 -259 493 -259 448 -297 c 0,61,62
 424 -318 424 -318 389 -324 c 1,63,64
 440 -338 440 -338 505 -338 c 0,65,66
 620 -338 620 -338 724 -246 c 24,67,68
 829 -153 829 -153 874 15 c 2,69,-1
 903 124 l 1,70,71
 763 -20 763 -20 585 -20 c 0,0,1
EndSplineSet
Validated: 1
EndChar

StartChar: z
Encoding: 122 122 156
Width: 1157
Flags: W
HStem: -20 106<575.135 907.308> 1016 104<570.846 890.911>
VStem: 307 364<735.416 967.761> 807 364<129.566 364.584>
DStem2: 47 -11 514 143 0.668418 0.743786<426.694 1313.55>
LayerCount: 2
Fore
SplineSet
57 -20 m 1,0,1
 47 -11 l 1,2,-1
 925 966 l 1,3,4
 884 969 884 969 831 990 c 0,5,6
 766 1016 766 1016 692 1016 c 0,7,8
 638 1016 638 1016 569 1002 c 1,9,10
 596 995 596 995 616 978 c 0,11,12
 671 933 671 933 671 855 c 0,13,14
 671 780 671 780 619 727 c 0,15,16
 565 672 565 672 489 672 c 128,-1,17
 413 672 413 672 360 726 c 128,-1,18
 307 780 307 780 307 857 c 0,19,20
 307 891 307 891 320 929 c 0,21,22
 345 1002 345 1002 429 1054 c 0,23,24
 534 1120 534 1120 713 1120 c 0,25,26
 812 1120 812 1120 931 1088 c 0,27,28
 1017 1065 1017 1065 1129.5 1065 c 128,-1,29
 1242 1065 1242 1065 1373 1120 c 1,30,31
 1383 1111 l 1,32,-1
 514 143 l 1,33,34
 567 137 567 137 639 109 c 0,35,36
 698 86 698 86 784 86 c 0,37,38
 850 86 850 86 909 98 c 1,39,40
 882 104 882 104 861 121 c 0,41,42
 807 165 807 165 807 245 c 0,43,44
 807 320 807 320 859 373 c 0,45,46
 913 428 913 428 989 428 c 128,-1,47
 1065 428 1065 428 1118 374 c 128,-1,48
 1171 320 1171 320 1171 243 c 0,49,50
 1171 209 1171 209 1158 171 c 0,51,52
 1133 98 1133 98 1049 46 c 0,53,54
 944 -20 944 -20 765 -20 c 0,55,56
 665 -20 665 -20 552 8 c 0,57,58
 446 35 446 35 338 35 c 0,59,60
 200 35 200 35 57 -20 c 1,0,1
EndSplineSet
Validated: 1
EndChar

StartChar: x
Encoding: 120 120 157
Width: 1191
Flags: W
HStem: -20 143<846 1094.88> -20 116<130.021 406.689> 976 144<391.608 638.5>
VStem: 72 15<202.291 230> 988 364<821.394 1056.26>
DStem2: 768 969 491 907 0.280567 -0.959834<-98.9284 463.6 570.077 610.672 715.313 890.823> 509 204 492 56 0.804994 0.593283<-235.433 150.746>
LayerCount: 2
Fore
SplineSet
266 -20 m 0,0,1
 141 -20 141 -20 94 64 c 0,2,3
 67 112 67 112 67 175 c 0,4,5
 67 201 67 201 72 230 c 1,6,-1
 87 230 l 1,7,8
 113 96 113 96 252 96 c 0,9,10
 358 96 358 96 509 204 c 0,11,12
 614 279 614 279 662 323 c 1,13,-1
 491 907 l 2,14,15
 471 976 471 976 395 976 c 0,16,17
 325 976 325 976 259 870 c 1,18,-1
 244 870 l 1,19,20
 271 965 271 965 323 1020 c 0,21,22
 417 1120 417 1120 553 1120 c 0,23,24
 724 1120 724 1120 768 969 c 2,25,-1
 898 524 l 1,26,27
 1031 640 1031 640 1135 768 c 1,28,29
 1084 776 1084 776 1047 807 c 0,30,31
 988 856 988 856 988 936 c 0,32,33
 988 1013 988 1013 1041 1066.5 c 128,-1,34
 1094 1120 1094 1120 1170 1120 c 128,-1,35
 1246 1120 1246 1120 1299 1066 c 128,-1,36
 1352 1012 1352 1012 1352 935 c 0,37,38
 1352 904 1352 904 1342 873 c 0,39,40
 1327 826 1327 826 1297 786 c 0,41,42
 1252 726 1252 726 1155 616 c 0,43,44
 1096 551 1096 551 934 402 c 1,45,-1
 996 189 l 2,46,47
 1015 123 1015 123 1089 123 c 0,48,49
 1162 123 1162 123 1228 230 c 1,50,-1
 1243 230 l 1,51,52
 1216 135 1216 135 1164 80 c 0,53,54
 1070 -20 1070 -20 930 -20 c 0,55,56
 762 -20 762 -20 719 127 c 2,57,-1
 697 203 l 1,58,59
 588 116 588 116 492 56 c 0,60,61
 371 -20 371 -20 266 -20 c 0,0,1
EndSplineSet
Validated: 1
EndChar

StartChar: AE
Encoding: 198 198 158
Width: 2295
Flags: W
HStem: -20 110<107.283 252.483 1630.87 1977.61> 491 121<736 1186> 1385 145<969.894 1249.5> 1435 95<1987.11 2217.35>
VStem: 72 15<201.05 230> 833 15<1286 1294.1> 1543 312<970.494 1274.89> 2053 371<1124.51 1352.53>
DStem2: 297 188 653 491 0.56235 0.8269<-147.347 450.747 597.477 1257.33>
LayerCount: 2
Fore
SplineSet
182 -20 m 0,0,1
 91 -20 91 -20 65 49 c 0,2,3
 54 78 54 78 54 116 c 0,4,5
 54 165 54 165 72 230 c 1,6,-1
 87 230 l 1,7,8
 96 90 96 90 170 90 c 0,9,10
 230 90 230 90 297 188 c 2,11,-1
 1075 1332 l 1,12,13
 1057 1385 1057 1385 993 1385 c 0,14,15
 919 1385 919 1385 848 1286 c 1,16,-1
 833 1286 l 1,17,18
 850 1373 850 1373 909 1435 c 0,19,20
 999 1530 999 1530 1136 1530 c 0,21,22
 1363 1530 1363 1530 1396 1318 c 2,23,-1
 1476 804 l 1,24,25
 1577 867 1577 867 1694 889 c 1,26,27
 1632 918 1632 918 1595 961 c 0,28,29
 1543 1022 1543 1022 1543 1108 c 0,30,31
 1543 1151 1543 1151 1556 1199 c 0,32,33
 1594 1339 1594 1339 1751 1437 c 0,34,35
 1902 1530 1902 1530 2112 1530 c 0,36,37
 2268 1530 2268 1530 2361 1426 c 0,38,39
 2424 1355 2424 1355 2424 1264 c 0,40,41
 2424 1168 2424 1168 2363 1106 c 0,42,43
 2311 1053 2311 1053 2233 1053 c 128,-1,44
 2155 1053 2155 1053 2104 1103 c 128,-1,45
 2053 1153 2053 1153 2053 1232 c 0,46,47
 2053 1320 2053 1320 2113 1368 c 0,48,49
 2156 1403 2156 1403 2220 1408 c 1,50,51
 2179 1435 2179 1435 2115 1435 c 0,52,53
 2043 1435 2043 1435 1984 1388 c 0,54,55
 1905 1325 1905 1325 1871 1200 c 0,56,57
 1855 1140 1855 1140 1855 1093 c 0,58,59
 1855 1032 1855 1032 1881 990 c 0,60,61
 1927 918 1927 918 2054 874 c 1,62,-1
 2050 859 l 1,63,64
 1905 845 1905 845 1762 750 c 128,-1,65
 1619 655 1619 655 1571 475 c 0,66,67
 1549 392 1549 392 1548 327 c 0,68,69
 1548 250 1548 250 1579 196 c 0,70,71
 1642 85 1642 85 1785 85 c 0,72,73
 1940 85 1940 85 2067 181 c 0,74,75
 2177 265 2177 265 2283 390 c 1,76,-1
 2299 390 l 1,77,-1
 2246 189 l 1,78,-1
 2243 188 l 1,79,80
 2020 -20 2020 -20 1715 -20 c 0,81,82
 1638 -20 1638 -20 1573 -11 c 1,83,84
 1534 -20 1534 -20 1490 -20 c 0,85,86
 1283 -20 1283 -20 1254 172 c 2,87,-1
 1205 491 l 1,88,-1
 653 491 l 1,89,-1
 408 136 l 2,90,91
 300 -20 300 -20 182 -20 c 0,0,1
1108 1157 m 1,92,-1
 736 612 l 1,93,-1
 1186 612 l 1,94,-1
 1108 1157 l 1,92,-1
EndSplineSet
Validated: 1
EndChar

StartChar: Eth
Encoding: 208 208 159
Width: 1625
Flags: W
HStem: -20 144<197.651 412.5> -20 110<684.981 947.356> 585 120<290.543 447 798 1061.46> 1410 120<879.554 1232.23>
VStem: 142 15<193.977 230> 1383 350<746.424 1234.24>
DStem2: 285.013 -20 604.151 -20 0.258819 0.965926<308.606 626.311 833.067 1274.77>
LayerCount: 2
Fore
SplineSet
350 -20 m 0,0,1
 200 -20 200 -20 152 84 c 0,2,3
 134 123 134 123 134 168 c 0,4,5
 134 198 134 198 142 230 c 1,6,-1
 157 230 l 1,7,8
 170 124 170 124 247 124 c 128,-1,9
 324 124 324 124 352 230 c 2,10,-1
 447 585 l 1,11,-1
 310 585 l 2,12,13
 277 585 277 585 277 608 c 0,14,15
 277 613 277 613 279 620 c 2,16,-1
 293 670 l 2,17,18
 303 705 303 705 342 705 c 2,19,-1
 479 705 l 1,20,-1
 592 1125 l 2,21,22
 613 1205 613 1205 694 1205 c 2,23,-1
 854 1205 l 2,24,25
 916 1205 916 1205 916 1156 c 0,26,27
 916 1144 916 1144 911 1125 c 2,28,-1
 798 705 l 1,29,-1
 1042 705 l 2,30,31
 1075 705 1075 705 1075 682 c 0,32,33
 1075 677 1075 677 1073 670 c 2,34,-1
 1059 620 l 2,35,36
 1049 585 1049 585 1010 585 c 2,37,-1
 766 585 l 1,38,-1
 684 278 l 2,39,40
 671 229 671 229 671 195 c 0,41,42
 671 90 671 90 783 90 c 0,43,44
 982 90 982 90 1145 318 c 0,45,46
 1273 498 1273 498 1342 755 c 0,47,48
 1383 906 1383 906 1383 1030 c 0,49,50
 1383 1116 1383 1116 1363 1189 c 0,51,52
 1302 1410 1302 1410 1049 1410 c 0,53,54
 662 1410 662 1410 312 1036 c 1,55,-1
 300 1044 l 1,56,57
 638 1530 638 1530 1183 1530 c 0,58,59
 1496 1530 1496 1530 1632 1338 c 0,60,61
 1733 1195 1733 1195 1733 1002 c 0,62,63
 1733 887 1733 887 1697 755 c 0,64,65
 1618 462 1618 462 1395 239 c 0,66,67
 1136 -20 1136 -20 785 -20 c 0,68,69
 612 -20 612 -20 560 61 c 1,70,71
 475 -20 475 -20 350 -20 c 0,0,1
EndSplineSet
Validated: 1
EndChar

StartChar: Dcroat
Encoding: 272 272 160
Width: 1625
Flags: W
HStem: -20 144<197.651 412.5> -20 110<684.981 947.356> 585 120<290.543 447 798 1061.46> 1410 120<879.554 1232.23>
VStem: 142 15<193.977 230> 1383 350<746.424 1234.24>
DStem2: 285.013 -20 604.151 -20 0.258819 0.965926<308.606 626.311 833.067 1274.77>
LayerCount: 2
Fore
SplineSet
350 -20 m 0,0,1
 200 -20 200 -20 152 84 c 0,2,3
 134 123 134 123 134 168 c 0,4,5
 134 198 134 198 142 230 c 1,6,-1
 157 230 l 1,7,8
 170 124 170 124 247 124 c 128,-1,9
 324 124 324 124 352 230 c 2,10,-1
 447 585 l 1,11,-1
 310 585 l 2,12,13
 277 585 277 585 277 608 c 0,14,15
 277 613 277 613 279 620 c 2,16,-1
 293 670 l 2,17,18
 303 705 303 705 342 705 c 2,19,-1
 479 705 l 1,20,-1
 592 1125 l 2,21,22
 613 1205 613 1205 694 1205 c 2,23,-1
 854 1205 l 2,24,25
 916 1205 916 1205 916 1156 c 0,26,27
 916 1144 916 1144 911 1125 c 2,28,-1
 798 705 l 1,29,-1
 1042 705 l 2,30,31
 1075 705 1075 705 1075 682 c 0,32,33
 1075 677 1075 677 1073 670 c 2,34,-1
 1059 620 l 2,35,36
 1049 585 1049 585 1010 585 c 2,37,-1
 766 585 l 1,38,-1
 684 278 l 2,39,40
 671 229 671 229 671 195 c 0,41,42
 671 90 671 90 783 90 c 0,43,44
 982 90 982 90 1145 318 c 0,45,46
 1273 498 1273 498 1342 755 c 0,47,48
 1383 906 1383 906 1383 1030 c 0,49,50
 1383 1116 1383 1116 1363 1189 c 0,51,52
 1302 1410 1302 1410 1049 1410 c 0,53,54
 662 1410 662 1410 312 1036 c 1,55,-1
 300 1044 l 1,56,57
 638 1530 638 1530 1183 1530 c 0,58,59
 1496 1530 1496 1530 1632 1338 c 0,60,61
 1733 1195 1733 1195 1733 1002 c 0,62,63
 1733 887 1733 887 1697 755 c 0,64,65
 1618 462 1618 462 1395 239 c 0,66,67
 1136 -20 1136 -20 785 -20 c 0,68,69
 612 -20 612 -20 560 61 c 1,70,71
 475 -20 475 -20 350 -20 c 0,0,1
EndSplineSet
Validated: 1
EndChar

StartChar: Hbar
Encoding: 294 294 161
Width: 1537
Flags: W
HStem: -20 144<147.651 380.5 1178 1429.13> 586 121<749 1134> 1194 120<455.543 560 906 1297 1651 1753.46> 1386 144<512.377 764 1562 1794.35>
VStem: 92 15<193.977 230> 1035 317<126.634 367.852> 1835 15<1280 1316.02>
DStem2: 235.013 -20 554.883 -20 0.258819 0.965926<160.252 710.099 835.258 1256.75> 971.883 -20 1292.01 -20 0.258819 0.965926<296.972 627.31 752.469 1256.78>
LayerCount: 2
Fore
SplineSet
300 -20 m 0,0,1
 150 -20 150 -20 102 84 c 0,2,3
 84 123 84 123 84 168 c 0,4,5
 84 198 84 198 92 230 c 1,6,-1
 107 230 l 1,7,8
 120 124 120 124 197 124 c 128,-1,9
 274 124 274 124 302 230 c 2,10,-1
 560 1194 l 1,11,-1
 475 1194 l 2,12,13
 442 1194 442 1194 442 1216 c 0,14,15
 442 1222 442 1222 444 1229 c 2,16,-1
 458 1279 l 2,17,18
 468 1314 468 1314 507 1314 c 2,19,-1
 589 1314 l 1,20,21
 590 1320 590 1320 590 1325 c 0,22,23
 590 1386 590 1386 523 1386 c 0,24,25
 453 1386 453 1386 388 1280 c 1,26,-1
 373 1280 l 1,27,28
 399 1375 399 1375 449 1431 c 0,29,30
 536 1530 536 1530 684 1530 c 0,31,32
 844 1530 844 1530 891 1427 c 0,33,34
 907 1392 907 1392 907 1344 c 0,35,36
 907 1330 907 1330 906 1314 c 1,37,-1
 1333 1314 l 1,38,39
 1360 1386 1360 1386 1390 1422 c 0,40,41
 1482 1530 1482 1530 1642 1530 c 0,42,43
 1792 1530 1792 1530 1840 1426 c 0,44,45
 1858 1387 1858 1387 1858 1342 c 0,46,47
 1858 1312 1858 1312 1850 1280 c 1,48,-1
 1835 1280 l 1,49,50
 1822 1386 1822 1386 1745 1386 c 0,51,52
 1682 1386 1682 1386 1651 1314 c 1,53,-1
 1734 1314 l 2,54,55
 1767 1314 1767 1314 1767 1292 c 0,56,57
 1767 1286 1767 1286 1765 1279 c 2,58,-1
 1751 1229 l 2,59,60
 1741 1194 1741 1194 1702 1194 c 2,61,-1
 1617 1194 l 1,62,-1
 1359 230 l 2,63,64
 1352 204 1352 204 1352 185 c 0,65,66
 1352 124 1352 124 1418 124 c 0,67,68
 1488 124 1488 124 1554 230 c 1,69,-1
 1569 230 l 1,70,71
 1543 135 1543 135 1493 79 c 0,72,73
 1406 -20 1406 -20 1258 -20 c 0,74,75
 1098 -20 1098 -20 1050 83 c 0,76,77
 1035 116 1035 116 1035 163 c 0,78,79
 1035 215 1035 215 1052 279 c 2,80,-1
 1134 586 l 1,81,-1
 717 586 l 1,82,-1
 635 279 l 2,83,84
 599 144 599 144 552 88 c 0,85,86
 461 -20 461 -20 300 -20 c 0,0,1
1297 1194 m 1,87,-1
 880 1194 l 1,88,-1
 749 707 l 1,89,-1
 1166 707 l 1,90,-1
 1297 1194 l 1,87,-1
EndSplineSet
Validated: 1
EndChar

